<svg viewBox="157.953125 675.625 560.015625 474.3749999999998" fill="none" xmlns="http://www.w3.org/2000/svg" xmlns:xlink="http://www.w3.org/1999/xlink" xmlns:blush="http://design.blush" overflow="visible" width="560.015625px" height="474.3749999999998px"><g id="Master/Animal/Artsy Cat" blush:has-customizable-colors="true" blush:viewBox="160.82500000000005 603.75 557.1437500000001 546.2499999999999" blush:i="0"><g id="Group 57" blush:i="0.0"><path id="Fill 1" fill-rule="evenodd" clip-rule="evenodd" d="M415.424 784.699C415.445 784.654 415.471 784.616 415.491 784.571C428.779 756.25 435.176 725.25 433.624 693.966C433.327 687.997 427.551 685.01 422.337 687.49C401.002 697.641 381.776 711.942 365.859 729.402C365.753 729.518 365.665 729.636 365.569 729.754C330.993 720.433 294.957 718.94 259.677 725.021C259.556 725.042 259.446 725.074 259.328 725.099C253.209 715.285 245.383 706.67 236.175 699.608C226.986 692.56 212.021 682.037 199.942 687.611C193.146 690.746 191.388 697.232 190.616 704.097C189.798 711.376 189.76 718.755 190.418 726.048C191.813 741.515 196.067 756.285 202.969 770.187C203.074 770.399 203.189 770.593 203.304 770.785C205.114 782.977 197.363 794.447 191.622 804.927C185.672 815.79 180.836 827.845 182.44 840.178C179.362 842.136 177.414 846.056 179.567 850.217C188.466 867.415 203.337 879.972 220.55 886.448C235.876 899.449 252.838 910.475 271.132 919.132C269.92 920.906 269.552 923.229 269.875 925.584C277.825 983.508 262.987 1043.51 230.111 1091.67C228.39 1091.96 226.9 1092.91 225.748 1094.25C225.606 1094.16 225.469 1094.07 225.317 1093.99C201.444 1081.37 183.914 1056.74 181.525 1029.57C180.781 1021.11 181.431 1012.57 183.325 1004.31C182.689 996.449 185.858 989.719 187.844 982.134C189.154 977.129 190.55 972.972 192.667 968.805C193.133 967.397 193.664 966.007 194.276 964.639C197.027 958.488 202.026 951.647 207.807 946.951C209.029 945.668 210.311 944.466 211.668 943.393C209.716 942.794 207.575 942.91 205.939 944.137C179.669 963.845 163.615 996.473 166.525 1029.57C169.371 1061.94 188.97 1091.73 217.745 1106.94C219.32 1107.77 220.862 1108.01 222.277 1107.81C223.103 1120.38 233.807 1131.13 244.977 1136.81C261.151 1145.04 279.286 1149.05 297.386 1149.13C301.272 1149.15 303.593 1146.73 304.352 1143.82C313.391 1146.28 322.661 1147.84 332.161 1148.49C341.796 1149.15 341.755 1134.15 332.161 1133.49C330.338 1133.37 328.519 1133.2 326.704 1132.99C339.968 1110.37 351.691 1086.15 359.247 1061C366.193 1037.88 368.446 1013.37 359.735 990.654C362.694 991.346 365.599 992.282 368.415 993.522C373.086 995.579 377.433 998.364 382.388 998.921C382.79 999.332 383.235 999.72 383.729 1000.07C389.89 1004.48 399.8 1000.32 401.309 993.022C401.945 989.942 400.835 986.462 398.232 984.726C397.481 978.045 391.837 973.454 385.627 971.681C374.466 968.493 357.871 969.437 351.24 957.781C348.023 952.124 348.612 944.946 346.922 938.795C345.852 934.897 344.155 931.325 341.741 928.301C373.212 910.267 401.537 886.905 425.178 859.381C425.541 859.443 425.904 859.485 426.26 859.485C430.735 859.485 433.252 856.022 433.76 851.985C436.786 827.946 429.772 803.955 415.424 784.699" fill="#F9EFEA" blush:i="0.0.0"/><path id="Fill 3" fill-rule="evenodd" clip-rule="evenodd" d="M270.239 986.791C270.423 986.955 270.534 986.915 270.543 986.668C270.543 986.641 270.392 986.567 270.344 986.589C270.29 986.612 270.272 986.72 270.239 986.791V986.791ZM192.558 957.24L192.346 957.208L192.402 957.405L192.558 957.24ZM327.53 924.424L327.409 924.254L327.312 924.449L327.53 924.424ZM396.85 893.629C396.739 893.541 396.63 893.45 396.513 893.373C396.506 893.369 396.374 893.495 396.385 893.539C396.417 893.669 396.491 893.788 396.549 893.912C396.65 893.818 396.749 893.724 396.85 893.629V893.629ZM279.161 1131.19C278.854 1131.22 278.546 1131.24 278.238 1131.27C278.422 1131.89 278.832 1131.51 279.161 1131.19V1131.19ZM369.208 992.02C370.063 993.058 371.166 993.757 372.742 993.982C371.939 992.484 370.684 992.132 369.208 992.02V992.02ZM278.99 724.403L279.019 724.374C278.683 724.498 278.335 724.753 278.012 724.725C272.138 724.209 267.128 726.83 262.031 729.113C261.394 729.397 260.714 729.695 260.444 730.49C259.61 732.943 259.638 732.888 257.806 731.281C255.831 729.55 255.112 727.008 253.575 725.01C251.982 722.939 250.673 720.269 248.555 719.079C245.921 717.598 244.01 715.639 242.011 713.561C240.022 711.495 238.447 709.001 235.92 707.472L236.01 707.413L235.948 707.499C233.554 704.851 230.667 702.826 227.614 701.041C220.381 696.812 213.828 691.044 204.787 690.854C204.439 690.847 204.101 690.624 203.749 690.535C200.326 689.666 197.234 687.937 193.643 686.483C193.29 691.099 192.997 695.505 192.626 699.852C192.252 704.249 191.74 708.658 191.412 713.07C190.981 718.87 190.228 724.689 190.535 730.474C190.891 737.167 192.769 743.682 194.376 750.184C196.172 757.448 199.784 763.972 203.53 770.365C205.688 774.047 206.959 778.465 211.144 780.701C211.639 780.965 211.877 781.625 211.463 782.124C210.398 783.406 210.265 785.132 209.304 786.451C207.213 789.318 205.702 792.505 204.135 795.669C202.617 798.73 200.483 801.402 198.346 804.043C197.452 805.149 196.172 805.898 195.117 806.874C192.971 808.857 192.175 811.581 190.539 813.809C187.8 817.543 186.133 821.96 184.825 826.195C183.322 831.06 183.744 836.487 183.643 841.687C183.614 843.142 183.89 844.559 184.239 845.985C186.088 853.551 190.921 859.354 195.511 865.307C196.033 865.983 196.741 866.348 197.542 866.597C204.301 868.696 211.269 869.957 218.119 871.695C223.274 873.002 228.63 873.43 233.773 874.863L233.75 874.839C237.818 875.114 241.815 875.928 245.85 876.42C251.245 877.079 256.232 879.133 261.401 880.553C261.916 880.694 262.338 881.368 262.128 882.259C259.784 882.212 257.543 881.536 255.296 881.018C247.442 879.208 239.466 878.049 231.535 876.689C224.134 875.421 216.729 874.264 209.449 872.376C206.676 871.658 204.023 870.328 201.046 870.506L201.064 870.489C201.881 872.218 203.973 872.675 204.879 874.315L204.859 874.295C205.412 874.475 205.964 874.654 206.517 874.834C206.535 874.913 206.542 874.996 206.576 875.067C206.602 875.121 206.662 875.157 206.707 875.202C206.636 875.086 206.564 874.97 206.493 874.855C206.347 874.56 206.202 874.265 205.829 873.507C207.526 874.121 208.507 874.854 209.242 875.952L209.221 875.931C213.247 878.998 216.819 882.628 221.12 885.366C223.014 886.572 225.192 887.562 226.468 889.493C228.346 892.337 231.503 893.192 234.166 894.813C234.704 895.142 235.398 894.928 236.024 894.743C241.239 893.198 246.523 891.865 251.605 889.899C254.519 888.771 257.682 888.997 260.647 888.125C261.565 887.856 262.578 888.228 262.717 889.354C262.883 890.705 261.887 890.744 260.904 890.606C259.598 890.423 258.401 890.969 257.157 891.174C250.624 892.251 244.569 894.899 238.269 896.685C238.449 897.516 238.895 897.779 239.284 897.901C242.669 898.963 244.703 902.003 247.768 903.607C250.152 904.854 252.308 905.511 254.404 904.19C257.249 902.398 260.433 901.294 263.341 899.636C263.916 899.308 264.735 898.708 265.182 899.712C265.524 900.478 264.943 901.08 264.281 901.485C263.74 901.816 263.198 902.149 262.632 902.433C259.559 903.974 256.478 905.5 253.399 907.031L253.369 907.001C255.718 908.705 257.858 910.886 260.455 912.021C268.341 915.468 276.364 918.63 284.693 920.887C287.139 921.55 289.624 922.073 292.08 922.721C295.747 923.689 299.445 924.681 303.194 925.151C306.044 925.508 308.949 925.57 311.827 925.896C314.329 926.179 316.928 926.718 319.372 925.72C324.871 923.476 330.583 922.225 336.469 921.577C339.071 921.291 341.952 921.295 344.164 920.134C350.577 916.768 358.024 915.718 363.882 911.187C364.647 910.596 365.909 910.681 366.267 909.551C366.629 908.408 364.992 908.164 364.976 907.116C365.254 907.078 365.433 907.012 365.594 907.04C366.181 907.143 366.527 907.553 366.801 908.047C367.246 908.847 367.966 908.897 368.687 908.595C373.2 906.702 377.756 904.882 381.353 901.369C382.518 900.23 382.181 899.518 380.815 898.998C375.642 897.025 370.332 895.399 365.377 892.868C364.439 892.388 363.028 892.963 362.302 891.552C363.946 890.812 365.313 891.636 366.589 892.086C371.689 893.885 376.925 895.304 381.856 897.597C382.999 898.129 384.363 898.624 385.679 897.525C388.457 895.207 391.37 893.048 394.117 890.695C396.278 888.844 398.506 887.024 400.364 884.544C398.795 883.937 397.405 883.878 396.132 884.123C392.013 884.914 387.833 885.055 383.686 885.172C375.886 885.393 368.074 885.289 360.269 885.198C358.421 885.176 356.449 885.291 354.793 884.1L354.774 884.126C359.993 884.14 365.194 883.688 370.43 883.818C380.312 884.064 390.147 882.805 400.012 882.396C401.492 882.334 402.888 882.034 404.02 880.966C406.593 878.538 409.233 876.177 411.744 873.687C416.635 868.842 420.138 862.745 425.554 858.355C426.336 857.721 427.657 857.354 427.91 856.653C429.299 852.79 432.377 850.064 434.324 846.604C434.625 846.069 434.888 845.431 434.906 844.833C435.044 840.15 431.858 836.24 431.773 831.595C431.77 831.455 431.516 831.336 431.443 831.179C429.507 826.995 427.627 822.788 425.572 818.656C424.624 816.748 424.366 814.48 423.902 812.353C423.383 809.984 422.5 807.917 420.496 806.358C418.815 805.05 417.941 803.079 416.996 801.217C414.823 796.932 412.843 792.55 410.16 788.534C409.208 787.109 409.165 785.7 410.23 784.011C411.76 781.584 414.273 779.958 415.583 777.569C417.302 774.435 419.021 771.414 421.607 768.919C422.117 768.428 422.547 767.772 422.803 767.11C424.248 763.365 425.82 759.652 426.989 755.819C428.834 749.772 430.842 743.765 431.644 737.429C432.204 732.991 432.085 728.555 432.18 724.115C432.19 723.681 432.121 723.064 431.841 722.834C429.824 721.178 430.582 719.168 431.233 717.34C433.12 712.035 433.573 706.589 433.311 701.02C433.077 696.057 432.488 691.154 431.519 686.384C430.619 686.244 430.208 686.681 429.708 686.868C426.149 688.203 422.881 690.344 419.123 691.086C414.816 691.937 410.568 693.108 406.689 695.017C401.968 697.34 397.553 700.317 395.931 705.892C395.615 706.973 394.742 707.746 393.886 708.393C392.298 709.593 390.658 710.716 388.908 711.706C386.785 712.908 384.361 713.554 382.454 715.116C377.896 718.851 375.07 723.933 371.908 728.763C370.587 730.783 369.978 733.038 369.221 735.259C368.818 736.44 368.09 737.396 366.843 736.504C365.197 735.325 363.285 734.624 361.519 733.873C357.781 732.284 354.513 729.791 350.507 728.688C346.131 727.484 341.596 726.978 337.306 725.464L337.336 725.494C334.349 725.241 331.096 726.144 328.662 723.493C321.383 721.55 313.881 721.502 306.463 721.476C303.518 721.465 300.39 722.274 297.34 722.602C291.23 723.257 285.143 724.179 278.99 724.403V724.403ZM391.297 996.418L391.275 996.438C391.45 994.204 391.659 994.048 393.275 995.151C394.093 995.711 394.832 996.401 395.544 997.098C396.307 997.843 397.008 998.153 397.782 997.168C397.18 995.505 394.877 994.983 394.859 992.944C397.13 991.722 398.989 992.65 401.099 993.641C400.545 989.94 400.173 986.25 396.62 984.18C396.623 983.034 397.855 983.781 397.974 982.719C394.593 979.254 391.178 975.653 386.088 974.314C379.773 972.654 373.406 971.204 366.991 970.007C363.432 969.343 359.814 969.443 356.026 970.588C357.544 975.78 358.899 980.757 359.876 985.823C360.095 986.953 361.065 987.142 361.937 987.305C368.75 988.579 374.299 992.288 379.518 996.543C383.228 999.566 387.268 1000.11 391.799 998.933C391.883 997.969 390.4 997.4 391.297 996.418V996.418ZM177.075 1066.2L177.049 1066.22C176.913 1065.92 176.775 1065.53 176.361 1065.85C176.224 1065.96 176.156 1066.43 176.239 1066.49C176.598 1066.76 176.801 1066.34 177.075 1066.2V1066.2ZM392.39 706.411C391.991 706.506 391.481 706.416 391.371 707.029C391.958 707.191 392.093 706.68 392.369 706.391L392.39 706.411ZM196.697 1072.74L196.676 1072.76L195.593 1071.69C195.408 1071.5 195.222 1071.32 195.037 1071.13C194.901 1070.1 194.26 1069.45 193.413 1068.96L193.434 1068.94C193.595 1069.95 194.211 1070.61 195.061 1071.11C195.246 1071.29 195.431 1071.48 195.617 1071.66C195.791 1072.21 196.138 1072.58 196.697 1072.74V1072.74ZM274.105 1131.66C273.914 1131.8 273.669 1131.9 273.549 1132.09C273.448 1132.24 273.659 1132.41 273.785 1132.28C273.938 1132.11 273.983 1131.85 274.074 1131.63L274.105 1131.66ZM191.234 1065.68L191.251 1065.67C191.31 1065.78 191.369 1065.9 191.429 1066.01L191.234 1065.68ZM230.492 1091.31C230.376 1091.37 230.26 1091.42 230.144 1091.48L230.475 1091.29L230.492 1091.31ZM226.103 1106.54L226.135 1106.56C226.102 1106.62 226.036 1106.68 226.042 1106.74C226.055 1106.86 226.103 1106.98 226.136 1107.1C226.521 1112.83 228.032 1118.32 229.836 1123.74C230.099 1124.53 230.707 1125.12 231.362 1125.62C234.725 1128.18 237.9 1131.06 242.072 1132.32C245.712 1133.42 249.348 1134.94 253.172 1134.69C255.278 1134.56 256.67 1135.2 257.918 1136.52C258.501 1137.13 259.041 1137.74 259.836 1137.93C260.952 1138.19 258.902 1139.48 260.493 1139.61C263.387 1139.84 266.077 1141.08 268.999 1141.35C273.239 1141.75 277.45 1142.45 281.673 1143.02C282.215 1143.09 282.972 1143.14 283.121 1143.62C283.676 1145.4 285.287 1145.38 286.584 1145.64C289.156 1146.17 291.772 1146.52 294.385 1146.79C298.059 1147.18 301.636 1146.7 304.996 1145.07C306.13 1144.53 307.313 1143.62 306.117 1142.39C304.088 1140.3 302.477 1137.81 299.346 1136.8C294.217 1135.14 289.069 1133.96 283.669 1133.96C278.465 1133.95 273.322 1134.19 268.634 1136.89C267.454 1137.56 266.127 1137.99 264.766 1138.13C263.869 1138.22 262.809 1137.72 263.433 1136.78C264.784 1134.75 265.202 1132 267.796 1130.84C268.697 1130.44 269.487 1129.79 270.32 1129.24C272.965 1127.49 274.93 1125.26 275.907 1122.15C277.862 1115.92 277.589 1109.62 276.806 1103.29L276.825 1103.31C276.056 1101.93 275.102 1100.62 275.167 1098.92L275.193 1098.95C272.81 1095.51 269.435 1093.48 265.212 1092.41C267.05 1091.02 268.373 1092.94 269.828 1092.53C270.044 1091.7 269.394 1091.3 269.208 1090.73L269.173 1090.77C269.726 1090.56 270.263 1090.6 270.691 1091.02C273.785 1094.06 276.827 1097.17 279.312 1100.73C281.958 1104.52 281.848 1108.95 281.595 1113.31C281.277 1118.81 280.706 1124.27 277.356 1128.87C281.994 1130.45 286.745 1129.59 291.032 1131.89C293.234 1133.07 296.053 1133.31 298.573 1134.01C302.502 1135.09 306.829 1135.61 309.397 1139.51C309.843 1140.18 310.726 1139.87 311.423 1139.98C314.076 1140.42 316.869 1140.12 319.362 1141.43C319.084 1143.31 319.452 1143.52 323.26 1143.38C321.587 1142.8 320.281 1142.44 319.327 1141.45C320.136 1140.83 320.995 1141 321.912 1141.2C325.007 1141.87 327.974 1142.91 330.86 1144.19C332.07 1144.73 333.295 1144.88 334.568 1144.56C337.236 1143.9 338.023 1142.14 336.843 1139.65C336.103 1138.1 334.814 1137.14 333.394 1136.31C328.117 1133.21 322.312 1131.5 316.461 1129.94C314.207 1129.33 311.914 1128.86 310.093 1127.25L310.069 1127.29C311.431 1126.62 312.903 1127.33 314.345 1126.83C320.156 1124.79 324.325 1120.71 328.016 1116.06C331.377 1111.82 333.341 1106.81 335.361 1101.86C335.967 1100.37 336.978 1099.04 336.917 1097.27C336.829 1094.71 337.773 1092.32 338.54 1089.93C339.859 1085.82 342.466 1082.37 344.558 1078.67C346.641 1074.98 346.256 1070.27 349.603 1067.09C350.451 1066.28 350.602 1064.79 350.599 1063.48C350.597 1062.95 350.53 1062.33 350.758 1061.89C352.509 1058.51 352.55 1054.48 354.897 1051.32C355.485 1050.53 355.634 1049.5 355.834 1048.5C356.769 1043.88 357.814 1039.27 358.732 1034.65C359.988 1028.32 360.16 1021.91 360.282 1015.48C360.404 1009.03 358.684 1002.81 358.386 996.383C358.121 990.658 357.596 984.664 355.76 978.97C353.732 972.679 351.854 966.34 349.753 960.067C346.611 950.687 344.169 941.097 341.605 931.546C341.204 930.057 340.813 928.56 340.299 927.107C339.762 925.588 338.791 924.811 337.181 925.852C335.404 926.999 333.281 927.157 331.492 928.004C330.78 927.529 331.829 926.917 331.051 926.439C329.187 927.05 327.165 927.565 325.264 928.366C321.328 930.023 317.341 930.658 313.123 929.698C312.08 929.46 310.795 929.201 309.911 929.598C308.348 930.299 307.141 929.834 305.796 929.249C305.055 928.927 304.235 928.791 303.456 928.554C300.051 927.521 296.364 927.799 293.048 926.616C288.689 925.062 284.143 924.117 279.864 922.305C277.394 921.258 276.594 921.671 275.87 924.144C275.238 926.308 274.766 928.551 274.518 930.791C273.775 937.531 272.705 944.25 272.906 951.067C272.928 951.858 272.338 952.967 271.991 952.862C269.797 952.196 270.854 954.237 270.954 954.342C272.685 956.164 272.063 958.383 272.012 960.448C271.852 966.894 272.223 973.347 271.729 979.788C271.551 982.098 271.826 984.527 271.195 986.699C270.291 989.808 269.64 992.989 269.073 996.121C267.206 1006.44 265.787 1016.85 264.197 1027.22C263.936 1028.93 263.928 1030.99 262.577 1031.99C261.158 1033.05 260.71 1034.37 260.241 1035.79C258.19 1041.99 255.882 1048.09 253.44 1054.14C251.002 1060.18 248.765 1066.3 246.338 1072.34C244.528 1076.85 241.67 1080.97 240.902 1085.91C240.729 1087.02 239.935 1087.53 238.688 1087.36C236.516 1087.08 235.909 1087.61 235.819 1089.84C235.789 1090.55 236.145 1091.42 235.44 1091.86C233.835 1092.86 232.564 1094.36 230.743 1095.02C229.389 1095.5 228.625 1094.58 227.795 1093.72C227.559 1093.48 226.926 1093.59 226.474 1093.58C225.114 1093.53 223.753 1093.49 222.391 1093.45C215.456 1093.26 209.577 1090.49 204.639 1085.79C199.164 1080.59 194.406 1074.78 190.385 1068.35C189.187 1066.43 187.986 1064.75 188.496 1062.39L188.521 1062.42C188.112 1061.52 187.726 1060.61 187.289 1059.72C183.366 1051.77 181.124 1043.28 179.143 1034.69C178.773 1033.09 178.415 1031.61 178.596 1029.88C179.229 1023.82 178.213 1017.77 178.195 1011.7C178.178 1005.99 177.996 1000.3 180.643 994.938C181.467 993.271 181.888 991.363 182.317 989.493C184.411 980.35 187.556 971.578 192.32 963.467C195.535 957.995 199.324 952.916 203.492 948.119C204.758 946.662 205.88 945.08 207.345 943.199C205.674 943.441 204.737 943.969 203.843 944.807C200.656 947.79 197.727 950.999 195.065 954.456L195.046 954.436C195.903 954.84 195.473 955.235 195.036 955.626C192.208 958.155 190.416 961.503 188.221 964.509C185.528 968.199 183.312 972.189 181.665 976.551C180.207 980.412 178.608 984.26 177.116 988.109C175.036 993.477 173.69 999.131 172.083 1004.68C170.606 1009.78 169.991 1015.08 169.689 1020.3C169.51 1023.39 169.572 1026.66 169.575 1029.81C169.58 1035.38 171.483 1040.38 172.801 1045.56C173.186 1047.08 173.511 1048.89 174.126 1050.01C176.012 1053.46 177.724 1057.01 178.974 1060.66C180.942 1066.42 184.427 1071.24 187.613 1076.24C191.383 1082.17 197.341 1085.93 202.374 1090.6C202.781 1090.98 203.295 1091.25 203.863 1091.13C205.432 1090.81 206.442 1091.72 207.424 1092.69C209.661 1094.88 212.211 1096.53 215.275 1097.32C215.8 1097.45 216.668 1097.55 216.633 1098.04C216.455 1100.49 218.584 1100.19 219.852 1100.95C221.469 1101.91 223.729 1101.75 224.852 1103.42C225.651 1104.61 226.654 1105.38 227.746 1106.2C231.254 1108.82 232.256 1111.23 231.012 1115.84L231.043 1115.81C230.096 1115.52 229.97 1114.74 229.877 1113.91C229.621 1111.67 228.843 1109.61 227.749 1107.65L227.768 1107.67C227.215 1107.48 226.662 1107.3 226.11 1107.12C226.108 1106.93 226.105 1106.73 226.103 1106.54V1106.54ZM185.769 987.156C184.319 991.092 183.721 995.227 183.134 999.337C182.484 1003.88 182.029 1008.46 181.74 1013.04C181.522 1016.52 181.697 1020.03 181.697 1023.65C182.196 1023.71 182.106 1022.44 183.12 1022.48C184.111 1023.57 183.562 1025.05 183.337 1026.2C182.225 1031.86 182.779 1037.41 184.375 1042.84C185.854 1047.86 187.278 1052.95 189.615 1057.67C192.13 1062.74 194.677 1067.83 198.466 1072.13C198.942 1072.67 199.108 1073.2 198.89 1073.86L198.859 1073.83C200.198 1074.59 199.94 1076.67 201.616 1077.15L201.583 1077.12C201.579 1077.31 201.575 1077.5 201.571 1077.69L201.594 1077.66C201.35 1079.13 202.562 1078.59 203.196 1078.78C204.6 1079.21 206.016 1079.57 205.96 1081.48C205.918 1081.72 205.365 1081.87 205.819 1082.21C205.858 1081.96 205.896 1081.71 205.935 1081.46C208.59 1082.04 210.024 1084.3 211.973 1085.86L211.941 1085.82C212.298 1086.05 212.946 1086.23 212.824 1086.65C212.548 1087.61 211.578 1087.35 210.853 1087.5C210.3 1085.86 208.543 1085.43 207.576 1084.2L207.599 1084.23C207.735 1086.27 209.42 1086.76 210.878 1087.47C214.255 1088.09 217.275 1089.82 220.604 1090.59C223.957 1091.37 227.172 1091.52 230.34 1089.66C231.555 1088.94 232.505 1088.2 233.324 1087.07C237.485 1081.33 241.208 1075.32 244.098 1068.85C250.654 1054.17 255.69 1038.98 259.177 1023.28C259.932 1019.88 260.428 1016.4 261.501 1013.11C263.996 1005.44 264.177 997.493 264.933 989.596C265.177 987.045 264.777 984.284 266.397 981.958C266.681 981.55 266.474 981.091 266.396 980.645C265.879 977.672 266.776 974.848 267.365 971.998C267.611 970.814 267.557 969.625 267.397 968.475C266.572 962.573 267.058 956.69 267.653 950.824C268.145 945.958 267.693 941.06 268.768 936.194C269.965 930.779 271.059 925.401 274.398 920.249C271.201 919.577 268.407 918.345 265.539 917.404C260.368 915.708 255.889 912.822 251.439 909.865C249.83 908.796 248.645 908.66 246.793 909.564C239.881 912.938 232.739 915.826 225.876 919.32C223.056 920.755 219.994 921.117 216.854 920.687C216.118 920.586 215.239 920.435 215.172 919.592C215.083 918.49 216.105 918.619 216.76 918.687C222.454 919.275 227.026 916.362 231.811 914.015C235.799 912.059 239.9 910.338 243.923 908.452C244.789 908.045 245.837 907.822 246.544 906.512C244.154 905.137 241.802 903.714 239.383 902.415C237.551 901.432 235.607 900.66 233.762 899.699C231.089 898.306 228.439 898.942 225.813 899.717C220.157 901.385 214.518 903.107 208.98 905.146C205.454 906.444 201.7 906.586 198.017 907.039C197.185 907.14 196.195 907.32 195.435 906.404C195.801 905.081 196.957 904.954 197.987 904.921C204.18 904.724 209.895 902.615 215.588 900.498C218.317 899.483 221.143 898.878 223.917 898.065C225.056 897.731 226.1 897.279 227.578 896.647C224.183 894.183 221.069 891.936 217.97 889.668C215.001 887.495 211.857 885.489 209.018 883.235C205.37 880.339 201.682 877.158 198.868 873.458C195.025 868.406 189.847 867.596 184.289 867.115C183.841 867.076 183.377 867.181 182.934 867.12C182.399 867.046 181.786 866.904 181.83 866.187C181.868 865.575 182.353 865.145 182.911 865.135C184.791 865.101 186.712 864.7 188.521 865.585C188.478 865.66 188.435 865.735 188.392 865.811C188.428 865.729 188.464 865.647 188.5 865.565C189.185 865.336 189.967 865.653 190.687 865.148C190.608 863.603 189.552 862.495 188.56 861.567C186.786 859.908 185.178 858.233 184.691 855.758L184.711 855.779C182.885 853.679 182.454 850.871 180.956 848.551C178.618 844.929 178.713 840.675 178.69 836.475C178.656 830.444 181.003 825.11 182.683 819.488C184.655 812.889 189.403 808.536 193.024 803.246C195.946 798.977 199.177 794.949 202.199 790.761C203.094 789.521 203.853 788.141 204.44 786.727C206.053 782.84 206.503 782.612 202.895 780.352C200.982 779.153 199.419 777.405 198.912 775.053C197.888 770.299 195.233 766.214 193.532 761.74C192.561 759.185 191.98 756.545 191.773 753.822L191.794 753.842C190.818 753.259 190.538 752.193 190.512 751.265C190.449 749.013 189.185 747.645 187.567 746.378C186.544 745.578 185.73 744.664 187.595 743.793C188.55 743.348 188.047 742.562 187.876 741.901C187.287 739.63 186.806 737.323 185.738 735.206C185.405 734.544 185.236 733.853 185.251 733.115L185.229 733.133C185.424 732.937 185.619 732.743 185.814 732.547L185.796 732.57C186.226 732.676 186.657 732.781 187.147 732.902C187.216 732.585 187.376 732.3 187.307 732.089C185.333 726.026 187.131 719.815 186.582 713.699C186.55 713.342 186.511 712.91 186.672 712.623C189.154 708.211 187.622 703.307 188.451 698.719C188.871 696.398 190.001 694.194 189.623 691.741C189.154 688.701 190.908 685.706 189.766 682.651C189.601 682.21 189.798 681.737 190.287 681.529C190.84 681.295 191.42 681.404 191.803 681.812C194.71 684.909 198.609 685.117 202.462 685.826C214.726 688.083 226.476 691.763 235.739 700.672C238.96 703.77 242.278 706.885 244.635 710.79C244.912 711.249 245.1 711.791 245.664 712.007C249.938 713.643 252.128 717.32 254.463 720.892C255.649 722.705 256.717 724.876 258.422 726.002C260.76 727.546 261.969 724.41 263.842 723.655C267.514 722.174 271.001 720.232 274.859 719.211C275.547 719.029 276.312 718.887 277 718.994C284.649 720.181 292.304 720.78 299.981 719.306C304.688 718.402 309.338 716.838 314.194 717.373C318.146 717.809 321.952 716.531 325.702 716.589C328.598 716.633 330.987 716 333.538 715.194C334.191 714.988 335.084 714.553 335.369 715.581C335.605 716.427 335.137 717.258 334.285 717.542C333.531 717.794 332.679 717.761 331.87 717.854L331.891 717.834C331.599 718.262 330.948 718.419 330.947 719.101C331.608 719.671 332.302 719.213 332.98 719.15C334.058 719.05 335.412 718.271 335.247 720.512C335.177 721.469 336.306 721.274 336.972 721.229C342.489 720.854 348.042 720.641 353.059 717.856C353.256 717.747 353.567 717.842 353.832 717.842C353.515 720.418 351.802 721.483 344.593 723.524C347.357 724.446 349.688 725.688 352.36 726.081C356.334 726.666 360.057 728.167 363.822 729.49C365.12 729.945 366.301 730.599 366.916 732.514C368.065 729.82 369.018 727.702 369.878 725.546C372.046 720.112 375.945 715.988 380.03 711.999C381.195 710.861 382.494 709.835 382.496 707.961C382.497 706.715 383.274 705.994 384.385 705.563C391.264 702.895 397.109 698.647 402.508 693.713C403.039 693.227 403.623 692.682 404.281 692.471C408.923 690.985 413.235 688.686 418.018 687.456C422.287 686.358 426.768 685.23 430.134 681.921C430.721 681.344 431.412 680.899 432.279 680.841C433.061 680.789 433.946 680.234 434.587 681.009C435.282 681.848 434.572 682.54 434.085 683.17C433.394 684.067 433.423 685.006 433.765 686.004C435.71 691.674 436.587 697.628 438.419 703.338C439.573 706.937 438.397 710.572 437.533 714.07C436.154 719.661 435.315 725.191 435.89 731.022C436.267 734.84 434.666 738.6 433.694 742.326C433.349 743.647 432.785 744.873 433.216 746.283C433.342 746.696 433.366 747.229 433.216 747.623C430.705 754.2 430.306 761.552 425.947 767.449C425.894 767.521 425.87 767.617 425.813 767.686C421.606 772.748 419.4 779.225 414.483 783.775C412.988 785.159 413.351 786.153 414.49 787.661C418.857 793.437 423.452 799.065 426.944 805.457C427.204 805.935 427.498 806.404 427.689 806.911C428.301 808.545 427.707 808.967 426.162 808.364C425.984 807.996 425.806 807.628 425.627 807.261L425.642 807.247C425.822 807.613 426.003 807.979 426.183 808.346C426.493 808.895 426.682 809.585 427.132 809.972C430.874 813.184 432.263 817.788 434.295 822.001C435.158 823.792 435.782 825.691 436.823 827.411C437.693 828.849 437.808 830.499 437.731 832.144C437.652 833.853 437.858 835.52 438.459 837.114C439.874 840.857 439.074 844.603 438.525 848.349C438.489 848.592 438.268 848.997 438.114 849.006C434.474 849.219 433.889 852.585 432.706 854.828C428.603 862.611 422.44 868.482 416.065 874.264C413.666 876.44 410.889 878.228 408.797 881.103C410.19 881.525 411.517 881.395 412.811 881.276C419.364 880.675 425.84 881.482 432.312 882.318C434.269 882.571 436.333 881.967 438.187 883.043L438.164 883.02C438.713 882.84 439.375 882.674 439.356 883.519C439.333 884.499 438.577 884.968 437.672 884.913C435.961 884.809 434.261 884.521 432.55 884.424C426.221 884.063 419.963 882.714 413.583 883.068C412.768 883.113 411.949 883.106 411.133 883.146C408.224 883.287 405.807 883.712 403.941 886.72C401.683 890.357 398.432 893.376 395.627 896.677C394.477 898.032 393.726 898.052 393.456 896.114C393.82 895.75 394.184 895.386 394.547 895.022L394.567 895.042C394.023 895.227 393.628 895.56 393.485 896.14C392.218 896.824 391.5 897.792 391.2 899.29C390.853 901.02 391.543 902.029 392.986 902.43C398.675 904.008 403.275 907.718 408.497 910.199C410.047 910.935 411.6 911.665 413.145 912.411C413.88 912.765 414.808 913.09 414.211 914.179C413.682 915.146 412.781 915.252 411.864 914.754C409.638 913.544 407.457 912.249 405.217 911.065C400.492 908.567 395.722 906.156 391.012 903.632C388.981 902.543 387.272 902.772 385.134 903.709C380.745 905.634 377.093 908.601 373.174 911.199C372.695 911.517 372.389 911.939 372.23 912.481L372.203 912.455C376.364 915.926 380.961 918.919 384.218 923.384L384.199 923.365C385.011 922.963 385.574 923.417 386.124 923.921C389.304 926.832 392.485 929.742 395.664 932.652L395.646 932.632C396.199 933.144 397.054 933.584 396.572 934.507C396.309 935.015 395.754 935.491 395.1 934.824L395.11 934.834C391.239 932.201 387.784 929.102 384.733 925.551L384.755 925.574C382.572 923.313 380.059 921.413 377.806 919.21C375.846 917.295 373.734 915.438 371.525 913.751C371.153 913.467 370.744 913.197 370.281 913.344C366.956 914.399 363.274 914.701 360.797 917.597C359.64 918.95 358.061 919.306 356.486 919.716C353.069 920.603 349.614 921.359 346.232 922.361C341.567 923.743 341.618 923.809 343.198 928.326C345.528 934.982 347.484 941.793 350.221 948.274C352.222 953.013 352.824 958.07 354.594 962.818C354.72 963.156 354.797 963.515 354.868 963.87C355.645 967.775 355.644 967.778 359.489 967.452C364.323 967.042 369.122 967.31 373.761 968.749C379.562 970.55 385.592 971.535 391.257 973.818C396.07 975.757 399.132 979.823 402.822 983.127C403.177 983.445 403.541 984.333 403.369 984.568C402.062 986.367 403.428 987.817 403.869 989.369C404.64 992.08 404.403 994.737 403.57 997.376C402.985 999.234 401.518 1000.15 399.777 1000.54C395.605 1001.46 391.349 1002.3 387.102 1001.9C383.253 1001.53 379.656 999.996 376.183 998.164C371.296 995.587 366.661 992.597 361.87 989.868C361.569 989.696 361.213 989.562 360.601 989.968C362.79 994.478 362.031 999.503 362.733 1004.34C363.23 1007.76 363.318 1011.2 363.496 1014.64C363.591 1016.45 363.52 1018.25 363.856 1020.06C364.152 1021.65 363.83 1023.14 363.225 1024.77C362.535 1026.62 362.857 1028.86 362.813 1030.93C362.705 1035.91 362.243 1040.85 361.516 1045.77C361.398 1046.57 361.205 1047.37 360.678 1048.04C359.173 1049.96 358.615 1052.27 358.084 1054.55C357.572 1056.76 356.952 1058.88 356.058 1060.99C354.902 1063.73 354.612 1066.82 353.474 1069.57C352.141 1072.78 352.203 1076.5 349.843 1079.31L349.872 1079.28C349.575 1081.85 347.71 1083.75 346.932 1086.15C346.345 1087.96 346.568 1090.21 344.702 1091.52C345.799 1095.92 342.213 1098.35 340.376 1101.45C336.913 1107.3 334.28 1113.65 329.818 1118.88C329.296 1122.51 325.958 1124.42 324.459 1127.71C325.816 1127.51 326.754 1128.08 327.491 1129.1C328.526 1130.52 330.252 1130.95 331.734 1131.35C335.527 1132.37 337.064 1135.62 339.26 1138.24C339.717 1138.79 339.938 1139.52 340.312 1140.15C342.453 1143.69 341.893 1144.81 338.256 1146.5C333.475 1148.72 328.831 1148.07 324.115 1146.66C319.592 1145.3 314.965 1144.38 310.381 1143.27C309.671 1143.1 309.201 1143.12 308.86 1143.89C307.574 1146.79 304.209 1147.21 302.247 1149.33C301.973 1149.63 301.207 1149.52 300.67 1149.52C292.406 1149.42 284.194 1148.65 276.1 1147.02C271.233 1146.04 266.495 1144.42 261.632 1143.41C258.368 1142.73 255.303 1141.95 252.968 1139.39C252.693 1139.08 252.177 1138.87 251.762 1138.85C248.169 1138.68 244.996 1136.95 241.575 1136.14C239.336 1135.61 237.43 1134.28 235.647 1132.88C232.881 1130.72 229.65 1129.15 227.492 1126.2C224.287 1121.8 222.301 1117.13 223.156 1111.54C223.48 1109.42 222.067 1108.01 220.776 1106.59C220.171 1105.93 219.254 1105.57 218.882 1104.66C219.025 1103.98 219.771 1104.17 220.139 1103.82L220.109 1103.85C217.937 1102.94 215.764 1102.02 213.592 1101.11C213.355 1101.07 213.237 1100.55 212.891 1100.94C213.131 1100.99 213.371 1101.04 213.611 1101.09C213.802 1102.72 216.015 1102.67 216.3 1104.27C215.387 1105.37 214.433 1104.59 213.611 1104.26C212.792 1103.93 211.994 1103.4 211.359 1102.78C208.047 1099.55 204.463 1096.71 200.448 1094.39C197.778 1092.84 196.086 1090.16 193.858 1088.08C187.933 1082.56 182.545 1076.54 178.896 1069.19C178.745 1068.88 178.395 1068.67 178.138 1068.42C178.122 1068.34 178.119 1068.25 178.087 1068.18C178.062 1068.12 178 1068.08 177.954 1068.03C178.025 1068.15 178.096 1068.27 178.167 1068.4C178.669 1069.59 177.724 1070.23 177.16 1071.01L176.989 1071.2C174.744 1066.96 172.921 1062.51 171.715 1057.89C171.034 1055.28 169.694 1053.09 168.589 1050.74C166.837 1047.01 166.385 1042.94 165.718 1038.95C165.287 1036.37 165.097 1033.74 164.291 1031.23C164 1030.32 164.119 1029.45 164.512 1028.59L164.538 1028.62C164.234 1028.15 163.877 1027.57 164.133 1027.1C165.621 1024.38 164.243 1021.36 165.091 1018.55C165.38 1017.59 164.097 1016.3 165.629 1015.5L165.6 1015.52C167.186 1010.34 167.363 1004.9 168.357 999.616C169.163 995.328 170.699 991.232 172.466 987.265C174.448 982.81 176.058 978.18 178.477 973.924C181.694 968.265 184.992 962.676 189.203 957.645C191.751 954.6 194.134 951.426 196.909 948.563C199.33 946.065 201.959 943.822 205.122 942.435C207.212 941.518 209.734 941.798 211.735 940.092C212.5 941.671 211.807 942.438 210.988 943.181C209.848 944.212 208.718 945.254 207.584 946.292L207.609 946.269C204.504 950.35 201.451 954.472 198.281 958.501C195.005 962.667 192.778 967.375 190.863 972.259C189.546 975.619 187.924 978.886 187.569 982.555C187.461 983.678 186.648 984.507 186.316 985.536L186.34 985.513C185.32 985.797 184.655 986.196 185.797 987.184L185.769 987.156Z" fill="#7C6063" blush:i="0.0.1"/><path id="Fill 5" fill-rule="evenodd" clip-rule="evenodd" d="M185.802 1086.37C182.205 1081.69 179.138 1076.72 176.989 1071.2L177.159 1071.01C178.256 1070.86 178.885 1071.18 179.438 1072.31C181.133 1075.77 182.984 1079.17 184.907 1082.51C185.63 1083.77 185.83 1085.02 185.772 1086.39L185.802 1086.37Z" fill="#7C6063" blush:i="0.0.2"/><path id="Fill 7" fill-rule="evenodd" clip-rule="evenodd" d="M542.286 1067.81C542.166 1067.71 541.95 1067.61 541.952 1067.51C541.954 1067.38 542.121 1067.25 542.217 1067.12C542.338 1067.22 542.557 1067.32 542.557 1067.42C542.556 1067.55 542.385 1067.68 542.286 1067.81" fill="#7C6063" blush:i="0.0.3"/><path id="Fill 9" fill-rule="evenodd" clip-rule="evenodd" d="M185.772 1086.39L186.273 1086.89C185.749 1087.04 185.966 1086.54 185.802 1086.37L185.772 1086.39Z" fill="#7C6063" blush:i="0.0.4"/><path id="Fill 11" fill-rule="evenodd" clip-rule="evenodd" d="M201.615 1077.15C201.671 1077.02 201.727 1076.89 201.783 1076.76C201.776 1076.82 201.789 1076.9 201.759 1076.95C201.717 1077.01 201.643 1077.06 201.582 1077.12L201.615 1077.15Z" fill="#7C6063" blush:i="0.0.5"/><path id="Fill 13" fill-rule="evenodd" clip-rule="evenodd" d="M201.571 1077.68L201.945 1077.84C201.886 1077.83 201.819 1077.83 201.77 1077.81C201.704 1077.77 201.653 1077.71 201.594 1077.66L201.571 1077.68Z" fill="#7C6063" blush:i="0.0.6"/><path id="Fill 15" fill-rule="evenodd" clip-rule="evenodd" d="M186.315 985.537L186.339 985.514L186.315 985.537Z" fill="#7C6063" blush:i="0.0.7"/><path id="Fill 17" fill-rule="evenodd" clip-rule="evenodd" d="M184.69 855.758L184.711 855.779L184.69 855.758Z" fill="#7C6063" blush:i="0.0.8"/><path id="Fill 19" fill-rule="evenodd" clip-rule="evenodd" d="M349.843 1079.31L349.872 1079.28L349.843 1079.31Z" fill="#7C6063" blush:i="0.0.9"/><path id="Fill 21" fill-rule="evenodd" clip-rule="evenodd" d="M185.25 733.115C185.247 732.934 185.245 732.752 185.242 732.571L185.224 732.544C185.226 732.74 185.227 732.937 185.229 733.133L185.25 733.115Z" fill="#7C6063" blush:i="0.0.10"/><path id="Fill 23" fill-rule="evenodd" clip-rule="evenodd" d="M185.242 732.571C185.426 732.571 185.61 732.571 185.795 732.57L185.813 732.548C185.617 732.547 185.42 732.545 185.224 732.544L185.242 732.571Z" fill="#7C6063" blush:i="0.0.11"/><path id="Fill 25" fill-rule="evenodd" clip-rule="evenodd" d="M185.796 987.184L185.768 987.157L185.796 987.184Z" fill="#7C6063" blush:i="0.0.12"/><path id="Fill 27" fill-rule="evenodd" clip-rule="evenodd" d="M299.287 872.561C304.148 873.221 309.316 873.218 314.495 873.132C316.903 873.092 317.282 873.921 316.744 876.197C315.774 880.305 313.463 883.445 310.066 885.789C308.574 886.818 308.087 888.174 308.337 889.762C308.68 891.942 308.771 893.908 306.543 895.204C306.011 895.513 306.152 896.177 305.976 896.676C305.509 898.001 304.421 898.515 303.173 898.265C301.919 898.013 301.955 896.849 302.037 895.826C302.21 893.657 302.338 891.482 302.622 889.327C302.771 888.188 302.505 887.451 301.53 886.812C298.388 884.752 296.615 881.614 295.059 878.327C294.984 878.169 294.984 877.973 294.962 877.793C294.849 876.839 292.7 876.876 294.012 875.024C295.226 873.309 296.499 872.535 298.455 872.561C298.636 872.563 298.817 872.561 299.287 872.561V872.561Z" fill="#7C6063" blush:i="0.0.13"/><path id="Fill 29" fill-rule="evenodd" clip-rule="evenodd" d="M256.555 844.641C254.132 848.969 251.555 852.558 247.152 854.53C244.236 855.836 241.452 856.028 238.517 854.712C237.285 854.16 235.955 853.784 234.636 853.471C229.793 852.32 228.174 848.315 226.477 844.369C226.285 843.924 226.309 843.451 226.759 843.162C227.197 842.88 227.63 843.059 228.013 843.341C229.315 844.298 230.722 845.055 231.826 846.345C234.01 848.898 236.717 850.704 240.273 850.596C241.054 850.572 241.787 849.942 242.41 849.661C245.324 848.347 247.707 846.581 249.616 844.057C249.821 843.786 250.472 843.714 250.889 843.767C252.661 843.995 254.423 844.304 256.555 844.641" fill="#7C6063" blush:i="0.0.14"/><path id="Fill 31" fill-rule="evenodd" clip-rule="evenodd" d="M353.004 844.041C355.816 842.631 358.201 843.756 360.506 845.052C363.065 846.491 365.721 846.917 368.628 846.524C371.449 846.144 373.581 844.814 375.082 842.48C375.786 841.384 376.522 840.423 377.882 841.177C379.401 842.019 378.532 843.233 378.019 844.246C373.563 853.033 362.615 854.576 355.582 847.418C354.602 846.421 353.235 845.696 353.004 844.041" fill="#7C6063" blush:i="0.0.15"/><path id="Fill 33" fill-rule="evenodd" clip-rule="evenodd" d="M207.638 737.158C209.028 737.321 209.881 737.743 210.292 738.801C211.634 742.249 213.254 745.561 215.043 748.801C216.466 751.38 218.638 753.459 219.841 756.18C220.351 757.335 220.945 758.455 221.544 759.568C222.248 760.875 221.689 761.78 220.71 762.628C219.537 763.645 218.929 762.652 218.254 761.97C213.77 757.437 210.828 751.972 208.821 745.991C208.048 743.689 207.101 741.429 206.71 738.998C206.532 737.887 206.777 737.255 207.638 737.158" fill="#7C6063" blush:i="0.0.16"/><path id="Fill 35" fill-rule="evenodd" clip-rule="evenodd" d="M413.977 750.348C413.884 753.07 413.512 755.901 412.285 758.726C411.077 761.508 410.565 764.598 409.801 767.566C409.171 770.015 407.975 772.08 406.001 773.684C405.498 774.094 404.996 774.568 404.313 774.231C403.486 773.823 403.571 773.062 403.792 772.336C404.769 769.138 405.695 765.922 406.76 762.754C408.499 757.588 409.686 752.289 410.747 746.955C410.799 746.689 410.785 746.409 410.847 746.146C411.041 745.344 411.226 744.411 412.298 744.51C413.272 744.6 413.561 745.444 413.645 746.304C413.769 747.566 413.855 748.832 413.977 750.348" fill="#7C6063" blush:i="0.0.17"/><path id="Fill 37" fill-rule="evenodd" clip-rule="evenodd" d="M206.492 734.216C207.032 734.677 207.366 735.178 206.925 735.934C205.819 735.448 206.322 734.792 206.52 734.188L206.492 734.216Z" fill="#7C6063" blush:i="0.0.18"/><path id="Fill 39" fill-rule="evenodd" clip-rule="evenodd" d="M352.6 883.561C352.054 883.55 351.471 884.112 350.917 883.472C351.559 882.847 352.06 883.258 352.566 883.599L352.6 883.561Z" fill="#7C6063" blush:i="0.0.19"/><path id="Fill 41" fill-rule="evenodd" clip-rule="evenodd" d="M352.566 883.598C353.352 883.565 354.108 883.655 354.773 884.126L354.793 884.1C354.021 884.084 353.029 884.967 352.6 883.56L352.566 883.598Z" fill="#7C6063" blush:i="0.0.20"/><path id="Fill 43" fill-rule="evenodd" clip-rule="evenodd" d="M206.52 734.188L206.492 734.216L206.52 734.188Z" fill="#7C6063" blush:i="0.0.21"/><path id="Fill 45" fill-rule="evenodd" clip-rule="evenodd" d="M304.609 981.733L304.547 981.646L304.64 981.702C305.319 984.684 306.946 987.125 308.994 989.325C309.047 989.434 309.101 989.544 309.154 989.653C309.093 989.55 309.032 989.448 308.972 989.344C308.077 986.487 306.909 983.786 304.609 981.733M316.05 1022.74C314.782 1022.32 315.18 1021.34 314.746 1020.8C314.394 1020.79 314.291 1021.05 314.232 1021.29C313.037 1026.04 310.206 1029.93 306.769 1033.08C302.15 1037.32 296.821 1040.5 290.016 1038.13C287.588 1037.28 286.349 1035.5 286.841 1032.94C287.764 1028.13 289.323 1023.47 290.017 1018.61C290.494 1015.28 290.702 1012.04 289.893 1008.65C288.87 1004.37 288.417 999.959 288.071 995.467C289.916 998.292 293.351 1000.2 292.856 1004.21C292.677 1005.67 293.684 1006.73 293.7 1008.12C293.742 1011.67 293.587 1015.2 292.919 1018.68C292.579 1020.46 292.043 1022.17 292.524 1024.04C292.833 1025.24 292.046 1026.28 291.479 1027.33C290.079 1029.92 289.136 1032.61 290.343 1036.27C291.968 1033.39 292.539 1030.73 293.207 1028.12C293.414 1027.31 293.513 1026.44 294.633 1026.47C295.45 1026.5 295.957 1026.99 296.247 1027.72C296.539 1028.47 296.241 1029.17 296.04 1029.85C295.535 1031.56 294.969 1033.25 294.427 1034.95C294.635 1035.04 294.842 1035.12 295.049 1035.21C295.341 1034.21 295.579 1033.19 295.941 1032.22C296.339 1031.15 296.588 1029.72 298.287 1030.3C299.821 1030.81 299.737 1031.93 299.135 1033.16C298.945 1033.55 298.678 1033.96 299.07 1034.53C301.383 1033.92 303.355 1032.67 304.753 1030.74C306.508 1028.33 308.028 1025.75 309.648 1023.24C313.227 1017.69 313.331 1011.61 312.436 1005.37C312.166 1003.49 312.094 1001.57 311.709 999.714C310.999 996.284 309.412 993.264 307.252 990.484C305.194 987.834 303.312 985.042 302.255 981.791C301.725 980.164 302.639 978.068 299.906 977.011C302.07 976.172 303.351 976.621 304.216 977.668C308.155 982.432 312.213 987.267 313.438 993.493C315.11 1001.99 317.252 1010.46 317.134 1019.23C317.116 1020.5 316.958 1021.72 316.05 1022.74" fill="#7C6063" blush:i="0.0.22"/><path id="Fill 47" fill-rule="evenodd" clip-rule="evenodd" d="M261.569 1089.67C264.482 1088.31 267.681 1088.77 269.173 1090.77L269.207 1090.73C266.669 1090.27 264.182 1089.44 261.549 1089.64L261.569 1089.67Z" fill="#7C6063" blush:i="0.0.23"/><path id="Fill 49" fill-rule="evenodd" clip-rule="evenodd" d="M262.872 1092.19C262.706 1092.21 262.534 1092.24 262.367 1092.23C262.128 1092.21 262.006 1092.03 262.14 1091.89C262.228 1091.8 262.462 1091.83 262.628 1091.84C262.872 1091.86 262.954 1091.99 262.872 1092.19" fill="#7C6063" blush:i="0.0.24"/><path id="Fill 51" fill-rule="evenodd" clip-rule="evenodd" d="M310.093 1127.25C309.77 1127.36 309.466 1127.64 309.1 1127.38C309.07 1127.36 309.086 1127.19 309.134 1127.15C309.49 1126.84 309.786 1127.03 310.068 1127.29L310.093 1127.25Z" fill="#7C6063" blush:i="0.0.25"/><path id="Fill 53" fill-rule="evenodd" clip-rule="evenodd" d="M261.55 1089.64L261.57 1089.67L261.55 1089.64Z" fill="#7C6063" blush:i="0.0.26"/><path id="Fill 55" fill-rule="evenodd" clip-rule="evenodd" d="M231.011 1115.84L231.117 1115.92L231.042 1115.81L231.011 1115.84Z" fill="#7C6063" blush:i="0.0.27"/></g><g id="Cat Clothes" blush:component="Cat Clothes" blush:defaultValue="Hat" blush:width="334" blush:height="274" transform="translate(163 605) scale(1 1)" blush:i="0.1" blush:value="Hat" blush:viewBox="80.16000000000003 83.53658536585363 173.67999999999998 96.90243902439018"><g id="Cat Clothes/Hat" blush:viewBox="80.16000000000003 83.53658536585363 173.67999999999998 96.90243902439018" blush:i="0.1.0"><g id="Hat" blush:i="0.1.0.0"><path id="Fill 65" fill-rule="evenodd" clip-rule="evenodd" d="M216.085 159.172C216.845 158.826 217.598 158.462 218.341 158.074C218.193 158.336 218.046 158.6 217.938 158.884C217.32 158.993 216.702 159.076 216.085 159.172M247.334 123.795C247.276 122.717 246.963 121.588 246.31 120.44C240.629 110.456 230.096 105.559 219.358 102.85C206.018 99.4832 192.168 97.6602 178.478 96.4862C177.231 96.3792 176.151 96.5422 175.23 96.9012C175.133 96.1092 174.961 95.3002 174.705 94.4782C171.968 85.6972 158.625 88.8962 159.969 97.2752C159.869 97.3242 159.777 97.3672 159.662 97.4292C159.225 97.4962 158.787 97.5622 158.349 97.6282C156.689 97.9032 154.945 97.8812 153.267 98.0502C149.761 98.4042 146.258 98.8742 142.783 99.4572C136.023 100.593 129.356 102.267 122.856 104.439C109.76 108.815 97.362 115.08 86.11 123.076C80.761 126.878 82.596 134.187 86.82 136.603C87.617 138.252 89.074 139.63 91.315 140.318C109.434 145.873 127.37 151.985 145.109 158.646C170.028 174.673 201.329 179.341 229.93 171.565C234.392 170.352 236.662 164.988 234.721 161.028C239.312 155.756 244.995 151.401 247.956 144.819C251.137 137.752 251.33 130.166 247.334 123.795" fill="#d5a567" blush:color="Accesories-500" blush:i="0.1.0.0.0"/><path id="Fill 67" fill-rule="evenodd" clip-rule="evenodd" d="M142.384 157.319C142.976 158.565 143.713 158.747 144.343 159.039C150.865 162.056 157.754 164.032 164.569 166.228C169.87 167.935 175.402 168.476 180.787 169.75C191.105 172.191 201.495 174.311 212.141 174.545C216.598 174.642 221.019 174.084 225.065 171.898C228.602 169.987 231.697 167.593 234.062 164.187C232.944 163.518 231.959 163.748 230.99 163.861C229.193 164.069 227.4 164.327 225.6 164.51C217.551 165.33 209.564 164.907 201.512 164.045C195.049 163.352 188.55 162.73 182.044 162.296C176.559 161.929 171.116 160.91 165.662 160.132C158.066 159.048 150.356 159.004 142.384 157.319M249.526 138.205C249.502 131.116 248.011 125.993 245.721 121.141C243.386 116.194 238.922 113.241 234.585 110.261C229.967 107.089 224.765 105.275 219.423 103.722C211.058 101.29 202.662 99.1857 193.872 99.1437C191.159 99.1307 188.412 99.1187 185.743 98.7057C182.141 98.1487 178.586 98.2697 175.086 98.9927C171.329 99.7697 168.89 97.6067 169.655 93.8707C169.781 93.2507 169.898 92.6157 169.907 91.9867C169.927 90.5737 169.279 89.9437 167.843 90.4257C166.041 91.0317 164.995 92.0637 165.054 94.2007C165.131 96.9407 164.245 98.1937 161.784 98.7027C158.873 99.3067 155.903 99.7337 152.937 99.9407C148.771 100.232 144.656 100.715 140.707 102.098C136.112 103.706 131.532 105.365 126.994 107.126C120.417 109.677 113.49 111.371 107.35 114.999C104.605 116.62 101.665 117.821 98.7966 119.18C94.5046 121.212 90.6366 123.861 87.2136 127.17C85.5456 128.782 85.2636 130.581 86.1846 132.62C86.7846 133.948 87.5176 135.202 88.5876 136.224C91.8836 139.372 95.4516 142.047 99.8396 143.592C101.806 144.285 103.811 144.862 105.761 145.602C112.401 148.12 119.219 149.916 126.266 150.909C134.35 152.048 142.446 153.052 150.563 153.914C163.461 155.282 176.347 156.738 189.306 157.439C199.618 157.997 209.888 159.067 220.265 158.064C226.548 157.457 232.66 156.698 238.401 153.894C245.65 150.354 249.088 144.443 249.526 138.205M211.722 179.45C204.848 180.15 198.03 179.097 191.21 178.757C186.363 178.516 181.459 177.683 176.776 176.397C172.457 175.211 168.227 173.559 164.172 171.463C160.405 169.516 156.372 168.009 152.334 166.679C147.568 165.109 143.331 162.399 138.633 160.73C131.977 158.364 125.265 156.104 118.689 153.577C111.626 150.864 104.127 149.698 97.1826 146.812C90.8196 144.166 85.9556 139.598 82.4306 133.665C80.9646 131.196 81.1146 127.494 83.1106 125.511C87.5916 121.058 91.8226 116.205 98.4146 114.64C99.9786 114.268 101.523 113.546 102.9 112.697C111.22 107.569 120.559 104.709 129.398 100.743C136.047 97.7607 143.155 96.1947 150.398 95.3057C153.188 94.9637 155.956 94.4317 158.749 94.1327C159.909 94.0087 160.429 93.5877 160.325 92.4587C160.157 90.6537 160.791 89.0457 161.59 87.5107C163.172 84.4727 166.822 83.4867 169.736 85.2987C172.059 86.7447 173.834 88.6787 174.178 91.5007C174.376 93.1197 175.097 93.6647 176.662 93.6067C188.209 93.1797 199.688 94.2147 211.037 96.0897C220.931 97.7257 230.42 100.899 238.382 107.394C242.674 110.895 247.018 114.503 249.101 119.839C251.826 126.819 253.31 133.908 252.123 141.627C251.13 148.084 249.108 153.915 244.488 158.303C241.784 160.872 239.589 163.414 238.265 166.857C237.64 168.484 236.344 169.664 234.728 170.487C231.497 172.133 228.999 174.848 225.665 176.448C221.191 178.595 216.546 179.303 211.722 179.45" fill="#7C6063" blush:i="0.1.0.0.1"/></g></g></g><g id="Cat Painting" blush:component="Cat Painting" blush:defaultValue="Bird" blush:width="296" blush:height="274" transform="translate(422 875.4) scale(1 1)" blush:i="0.2" blush:value="Butterfly" blush:viewBox="29.600000000000023 0.14794816414686807 266.3999999999999 273.70410367170626"><g id="Cat Painting/Butterfly" blush:viewBox="29.600000000000023 0.14794816414686807 266.3999999999999 273.70410367170626" blush:i="0.2.0"><g id="Butterfly" blush:i="0.2.0.0"><g id="Group 113" blush:i="0.2.0.0.0"><path id="Fill 96" fill-rule="evenodd" clip-rule="evenodd" d="M283.862 5.5399C253.547 4.9229 223.231 4.3059 192.917 3.6889C189.163 3.6129 186.456 5.1799 184.787 7.4849C182.64 8.8719 180.959 11.0769 179.903 13.6609C164.347 51.7439 148.792 89.8259 133.235 127.908C130.421 134.799 137.373 140.657 143.36 141.2L252.886 151.123C257.093 151.503 262.247 147.615 263.01 143.414C270.674 101.268 281.02 59.6589 293.987 18.8319C296.1 12.1739 290.436 5.6739 283.862 5.5399" fill="white" blush:i="0.2.0.0.0.0"/><path id="Fill 98" fill-rule="evenodd" clip-rule="evenodd" d="M178.254 148.312C178.254 148.312 122.561 258.086 122.771 264.791C122.982 271.495 145.771 263.881 145.771 263.881L180.323 148.312H178.254Z" fill="#A48661" blush:i="0.2.0.0.0.1"/><path id="Fill 100" fill-rule="evenodd" clip-rule="evenodd" d="M221.836 153.553C221.836 153.553 220.11 261.974 214.787 269.423L228.421 272.56L229.174 172.463L225.173 152.832L221.836 153.553Z" fill="#A48661" blush:i="0.2.0.0.0.2"/><path id="Fill 102" fill-rule="evenodd" clip-rule="evenodd" d="M243.011 154.198L257.57 221.176L264.655 223.02L246.704 153.915" fill="#A48661" blush:i="0.2.0.0.0.3"/><g id="Group 106" blush:i="0.2.0.0.0.4"><mask id="mask0df6b583b-b8ea-42d8-bf8b-7795291cb23d" mask-type="alpha" maskUnits="userSpaceOnUse" x="118" y="0" width="178" height="274" blush:i="0.2.0.0.0.4.0"><path id="Clip 105" fill-rule="evenodd" clip-rule="evenodd" d="M118.271 0.908661H295.65V274H118.271V0.908661Z" fill="white" blush:i="0.2.0.0.0.4.0.0"/></mask><g mask="url(#mask0df6b583b-b8ea-42d8-bf8b-7795291cb23d)" blush:i="0.2.0.0.0.4.1"><path id="Fill 104" fill-rule="evenodd" clip-rule="evenodd" d="M214.73 3.65999L214.928 3.61199L214.781 3.52199L214.73 3.65999ZM144.051 101.296C144.058 101.217 144.082 101.134 144.062 101.061C144.057 101.038 143.938 101.045 143.872 101.038C143.867 101.118 143.846 101.202 143.865 101.275C143.871 101.296 143.986 101.289 144.051 101.296V101.296ZM286.731 53.88C286.77 53.825 286.837 53.769 286.837 53.713C286.838 53.657 286.771 53.599 286.734 53.543C286.696 53.598 286.627 53.655 286.627 53.71C286.627 53.767 286.694 53.824 286.731 53.88V53.88ZM133.996 230.945C133.777 230.944 133.733 231.034 133.885 231.197C133.905 231.217 134.007 231.16 134.072 231.139C134.046 231.075 134.021 231.01 133.996 230.945V230.945ZM202.172 3.66399L202.403 3.60499L202.231 3.48899L202.172 3.66399ZM221.446 166.35C221.511 166.323 221.608 166.312 221.633 166.264C221.656 166.222 221.599 166.137 221.578 166.072C221.511 166.098 221.416 166.109 221.389 166.158C221.367 166.2 221.423 166.285 221.446 166.35V166.35ZM220.393 198.231C220.353 198.168 220.312 198.107 220.272 198.045L220.269 198.411C220.31 198.352 220.352 198.291 220.393 198.231V198.231ZM133.63 133.147C133.63 133.049 133.666 132.93 133.624 132.889C133.501 132.771 133.417 132.86 133.436 133.11C133.442 133.186 133.49 133.259 133.519 133.334C133.559 133.267 133.599 133.2 133.63 133.147V133.147ZM284.244 58.764C284.188 58.699 284.132 58.634 284.078 58.568C284.043 58.643 283.979 58.718 283.979 58.794C283.979 59.043 284.096 59.125 284.274 59.004C284.304 58.984 284.255 58.848 284.244 58.764V58.764ZM283.68 60.363C283.593 60.402 283.462 60.428 283.458 60.47C283.437 60.625 283.459 60.785 283.464 60.942C283.537 60.904 283.661 60.875 283.67 60.824C283.698 60.677 283.68 60.521 283.68 60.363V60.363ZM282.971 63.602C282.99 63.449 283.016 63.299 283.02 63.149C283.021 63.116 282.943 63.079 282.901 63.044C282.876 63.195 282.844 63.345 282.835 63.496C282.834 63.527 282.919 63.563 282.971 63.602V63.602ZM282.312 65.709C282.294 65.878 282.271 66.046 282.268 66.214C282.267 66.231 282.384 66.25 282.447 66.268C282.466 66.101 282.492 65.934 282.498 65.766C282.499 65.75 282.381 65.729 282.312 65.709V65.709ZM209.35 3.61099C209.281 3.57799 209.214 3.52799 209.143 3.51599C209.066 3.50499 208.941 3.49999 208.911 3.54399C208.811 3.68699 208.906 3.76299 209.144 3.71799C209.216 3.70399 209.282 3.64799 209.35 3.61099V3.61099ZM267.645 153.406C267.627 153.168 267.783 152.818 267.352 152.833C267.234 152.837 267.035 153.07 267.029 153.203C267.02 153.441 267.075 153.85 267.202 153.892C267.54 154.005 267.588 153.664 267.645 153.406V153.406ZM170.618 143.968C171.113 143.905 171.608 143.841 172.265 143.758C171.624 143.44 171.139 143.44 170.618 143.968V143.968ZM131.101 138.294C132.115 138.334 131.941 137.675 131.984 136.984C131.327 137.306 131.125 137.74 131.101 138.294V138.294ZM220.63 205.22C220.547 203.918 220.487 202.954 220.426 201.991C219.962 202.998 219.501 204.003 220.63 205.22V205.22ZM220.843 187.474C221.125 188.996 219.806 191.934 220.253 194.886C220.45 194.889 220.647 194.891 220.843 194.894V187.474ZM189.962 4.95999C189.976 4.74199 189.989 4.52399 190.002 4.30599L189.803 4.33399C189.868 4.53499 189.933 4.73599 189.999 4.93699C188.313 6.20899 186.488 5.41799 184.76 5.17499C183.078 4.93699 182.226 5.39899 181.876 7.09499C181.472 9.04399 180.864 10.94 180.108 12.799C176.694 21.192 174.109 29.88 171.096 38.416C169.504 42.926 168.406 47.625 166.007 51.829L166.021 51.816C164.566 58.188 161.663 64.041 159.46 70.145C157.252 76.265 155.035 82.383 152.8 88.493C151.403 92.316 149.817 96.076 148.587 99.95C147.298 104.012 144.907 107.634 144.087 111.879C143.574 114.536 142.974 117.206 142.08 119.753C140.047 125.539 137.708 131.212 135.962 137.109C135.457 138.819 135.765 139.509 137.445 139.668C139.954 139.908 142.406 140.44 144.996 140.177C147.956 139.877 150.969 140.078 153.959 140.103C154.736 140.11 155.516 140.261 156.292 141.434C152.418 141.593 148.872 140.553 145.49 142.182L167.445 143.462C164.309 143.034 161.309 142.265 158.252 141.517C158.529 140.751 158.878 140.721 159.241 140.789C167.157 142.29 175.324 142.203 183.103 144.576C183.705 144.759 184.346 144.859 184.976 144.899C195.389 145.566 205.684 147.246 216.032 148.474C222.872 149.285 229.736 149.954 236.535 151.035C243.258 152.104 250.051 152.501 256.78 153.493C260.249 154.004 260.418 153.752 260.931 150.242C262.994 136.148 267.321 122.535 269.683 108.497C270.809 101.802 272.214 95.094 274.233 88.622C278.65 74.459 280.588 59.831 283 45.292C284.97 33.407 287.008 21.54 289.67 9.78899C290.095 7.91699 289.624 7.00999 287.75 6.89499C283.591 6.63899 279.476 5.93799 275.278 6.04099C269.658 6.17799 264.031 6.21999 258.416 5.64099C256.343 5.42799 254.171 4.75899 252.229 5.03999C247.439 5.73199 242.657 5.71199 237.894 5.45899C234.065 5.25699 230.322 5.18799 226.55 5.98899C225.067 6.30399 223.463 5.99999 221.936 6.16899C220.705 6.30599 220.523 5.51299 220.291 4.63299C218.961 5.45099 217.62 6.03799 216.15 6.09299C210.44 6.30299 204.725 6.80899 199.017 6.43999C195.975 6.24299 192.829 6.36199 189.962 4.95999V4.95999ZM172.563 170.108L172.534 170.136C173.204 167.109 174.629 164.363 175.771 161.514C177.448 157.328 179.228 153.185 180.323 148.781C178.63 147.882 177.907 148.572 177.188 149.907C174.742 154.443 172.913 159.258 170.465 163.816C165.086 173.836 159.458 183.745 154.764 194.12C152.481 199.167 149.643 203.909 147.171 208.846C141.444 220.287 136.817 232.239 131.053 243.664C127.903 249.91 125.918 256.653 122.887 262.952C122.628 263.49 122.178 264.055 122.77 264.79C124.773 264.901 126.773 265.603 128.882 265.492C131.052 265.378 133.218 265.408 135.384 264.995C137.329 264.626 139.372 264.368 141.323 264.558C143.022 264.724 143.4 264.014 143.587 262.691C144.75 254.488 147.638 246.704 149.42 238.654C150.915 231.908 153.334 225.454 155.442 218.898C158.91 208.117 161.734 197.135 166.045 186.618C167.083 184.089 168.078 181.482 169.021 178.895C170.096 175.95 170.656 172.734 172.563 170.108V170.108ZM222.692 170.652C223.44 173.188 223.268 175.833 223.212 178.384C223.004 187.847 222.532 197.304 222.085 206.76C222.034 207.851 222.296 209.176 221.06 209.942L221.084 209.918C220.596 211.578 221.535 213.185 221.428 214.705C221.266 217.021 220.921 219.326 220.825 221.674C220.666 225.496 220.053 229.281 219.392 233.066C218.649 237.323 218.466 241.674 217.922 245.97C216.931 253.795 215.884 261.614 214.787 269.423C214.575 270.934 215.139 271.31 216.508 271.426C219.036 271.643 221.555 271.982 224.063 272.368C226.627 272.765 226.818 272.775 227.155 270.067C227.949 263.669 227.81 257.214 227.961 250.791C228.244 238.833 228.048 226.864 228.123 214.9C228.206 201.661 229.559 188.444 229.065 175.203C228.826 168.802 228.642 162.329 226.584 156.128C225.545 152.999 225.49 152.929 221.835 153.553C222.304 157.221 222.732 160.893 222.815 164.612C222.853 166.287 222.292 167.938 222.713 169.602L222.682 169.572C222.696 169.942 222.709 170.312 222.721 170.682L222.692 170.652ZM264.687 222.99L264.655 223.02C264.509 222.036 264.545 220.982 264.189 220.081C261.847 214.163 260.608 207.917 258.709 201.868C256.734 195.575 255.253 189.132 253.756 182.698C252.175 175.905 250.121 169.222 248.461 162.446C247.945 160.333 247.334 158.255 246.766 156.162C246.375 154.725 245.193 154.862 244.105 154.978C242.701 155.128 242.99 156.176 243.15 157.048C243.897 161.144 244.612 165.246 245.463 169.321C246.964 176.501 248.647 183.644 250.087 190.836C251.936 200.069 253.552 209.355 256.468 218.331C258.078 223.286 258.886 223.704 264.172 223.16C264.348 223.143 264.515 223.048 264.687 222.99V222.99ZM265.793 141.259C264.17 143.785 264.863 146.829 263.942 149.509C263.449 150.945 263.111 152.35 264.253 154.198C265.178 149.608 265.425 145.416 265.761 141.236C266.302 140.359 266.343 139.428 266.064 138.379C265.459 139.349 265.598 140.301 265.793 141.259V141.259ZM222.152 4.38599C222.997 4.93899 223.891 4.90099 225.172 4.63599C223.917 4.54199 223.025 4.47599 222.133 4.40999C222.085 3.44699 223.545 3.22099 223.251 2.02599C221.739 1.57799 220.374 2.05399 218.919 2.47599C219.621 4.10999 221.496 3.11399 222.152 4.38599V4.38599ZM179.659 6.59599C177.703 9.02199 177.28 11.983 176.698 14.889C178.153 12.281 179.122 9.50499 179.629 6.57099C179.68 6.51499 179.742 6.46599 179.778 6.40299C179.805 6.35599 179.8 6.29099 179.809 6.23399C179.759 6.35399 179.709 6.47499 179.659 6.59599V6.59599ZM187.269 2.76299C186.271 2.99699 185.169 2.10299 183.922 2.95899C185.295 3.48599 186.291 3.30699 187.245 2.73299C187.453 2.59599 187.86 2.89699 187.916 2.42699C187.7 2.53799 187.485 2.65099 187.269 2.76299V2.76299ZM168.224 33.31C167.626 33.951 167.053 34.601 167.34 35.645C168.133 35 168.073 34.112 168.191 33.288C168.291 33.054 168.81 32.825 168.202 32.579C168.209 32.823 168.216 33.066 168.224 33.31V33.31ZM281.551 69.787C281.789 69.404 282.269 69.063 281.709 68.382C281.655 68.963 281.615 69.385 281.576 69.807C281.543 70.061 280.997 70.232 281.454 70.565C281.486 70.306 281.519 70.047 281.551 69.787V69.787ZM136.584 225.752C136.514 225.863 136.443 225.974 136.373 226.084C136.436 225.967 136.501 225.85 136.565 225.733L136.584 225.752ZM135.496 227.937C135.438 227.987 135.37 228.03 135.327 228.091C135.296 228.135 135.3 228.202 135.289 228.26C135.348 228.143 135.409 228.026 135.468 227.91L135.496 227.937ZM133.313 232.841C133.136 233.207 132.959 233.573 132.781 233.939C131.826 234.211 132.205 234.945 132.222 235.553L132.211 235.541C132.391 234.999 132.572 234.457 132.751 233.914L133.291 232.819L133.313 232.841ZM221.62 180.47C221.62 180.47 221.6 180.489 221.599 180.489C221.552 180.419 221.504 180.349 221.457 180.279C221.511 180.342 221.565 180.407 221.62 180.47V180.47ZM216.712 229.023C215.375 226.066 216.585 223.112 216.878 220.206C217.632 212.726 218.168 205.281 217.903 197.732C217.719 192.517 218.366 187.233 219.078 182.038C219.734 177.252 219.375 172.467 219.657 167.688C219.889 163.741 219.559 159.756 219.41 155.79C219.288 152.546 219.152 152.576 216.005 152.192C210.622 151.534 205.133 151.527 199.918 149.747C199.748 149.689 199.556 149.593 199.393 149.621C194.75 150.421 190.191 149.427 185.607 148.976C184.292 148.846 183.597 149.618 183.15 150.706C181.12 155.652 178.851 160.515 177.136 165.567C174.634 172.935 172.525 180.425 169.533 187.641C168.555 189.997 167.672 192.474 166.946 194.963C166.844 195.311 166.794 195.693 166.615 195.996C160.845 205.721 158.879 216.793 155.475 227.357C152.385 236.944 149.605 246.619 147.17 256.391C146.557 258.852 146.231 261.383 145.77 263.881C145.196 266.991 143.467 268.3 140.358 267.703C137.459 267.147 134.584 267.219 131.692 267.552C128.16 267.958 124.619 267.656 121.083 267.717C119.899 267.738 118.977 267.287 118.271 266.021C120.014 264.92 120.51 263.022 121.21 261.185C124.86 251.614 127.67 241.747 131.541 232.251C134.052 226.088 137.722 220.579 140.944 214.817L140.921 214.838C141.653 211.8 143.412 209.215 144.713 206.437C148.439 198.479 152.214 190.538 156.232 182.726C158.075 179.143 159.187 175.268 161.159 171.753C165.104 164.718 168.969 157.638 172.853 150.568C174.482 147.601 174.005 146.609 170.644 146.672C160.803 146.856 151.137 145.439 141.474 143.847C138.539 143.363 135.539 143.28 132.598 142.817C131.647 142.667 130.021 143.097 130.016 141.217C130.446 141.034 131.059 141.38 131.385 140.735C130.655 140.25 130.23 140.429 130.043 141.246C128.179 141.016 128.322 139.717 128.534 138.394C129.241 133.996 130.664 129.781 132.068 125.589C137.043 110.739 142.898 96.2 147.771 81.307C149.856 74.936 152.593 68.791 154.835 62.464C157.111 56.044 160.155 49.935 162.909 43.708C164.619 39.843 165.584 35.655 167.124 31.705C168.518 28.126 169.204 24.183 172.026 21.266C172.04 21.334 172.044 21.406 172.07 21.47C172.089 21.519 172.133 21.559 172.167 21.603C172.111 21.499 172.054 21.394 171.998 21.29C171.864 17.45 173.637 14.146 175.112 10.804C176.279 8.15699 177.837 5.68199 179.238 3.14099C179.56 2.55699 179.748 1.58499 180.763 2.39399C180.986 2.57199 181.373 2.76399 181.452 2.55299C182.357 0.125991 184.16 1.60299 185.59 1.58499C196.003 1.45099 206.416 2.11799 216.834 1.16199C223.602 0.541991 230.379 1.18199 237.162 1.77699C244.199 2.39299 251.296 2.31899 258.368 2.53999C266.791 2.80299 275.241 2.34899 283.63 3.50699C284.527 3.63099 285.455 3.78699 286.34 3.68599C290.367 3.22699 292.591 6.19399 295.257 8.30099C295.944 8.84299 295.558 9.64499 295.383 10.342C293.169 19.153 291.537 28.069 290.581 37.104C289.99 42.695 289.873 48.357 288.652 53.854C287.105 60.824 286.083 67.932 283.746 74.704C281.823 80.277 280.38 86.062 279.555 91.776C278.256 100.756 275.842 109.472 274.345 118.394C272.62 128.677 270.517 138.906 269.024 149.231C268.771 150.982 267.477 153.214 270.153 154.679C270.931 155.105 270.189 156.398 269.277 156.38C267.063 156.338 265.332 156.786 264.996 159.394C263.783 158.749 264.487 157.48 263.591 156.87C261.944 156.928 262.719 159.439 261.024 159.546C259.816 159.028 260.498 157.775 259.968 156.748C256.953 156.625 253.999 155.352 250.826 155.239C250.119 155.213 249.403 154.828 248.91 155.699C248.525 156.378 248.813 156.85 249.198 157.416C250.612 159.501 250.788 162.035 251.463 164.361C253.933 172.87 256.174 181.448 258.454 190.013C261.085 199.906 263.656 209.815 266.287 219.707C266.612 220.931 267.163 222.092 267.569 223.296C267.977 224.507 267.563 225.164 266.243 225.365C263.172 225.831 260.096 225.797 257.015 225.611C255.697 225.531 254.787 224.91 254.607 223.496C254.092 219.437 252.339 215.664 251.91 211.577C251.358 206.327 249.206 201.429 248.497 196.195C247.487 188.74 245.126 181.563 243.715 174.188C242.627 168.498 241.634 162.788 240.731 157.067C240.494 155.566 239.987 154.788 238.419 154.662C236.072 154.474 233.734 154.159 231.394 153.877C230.101 153.721 229.548 154.165 229.701 155.553C229.808 156.523 229.819 157.459 230.067 158.452C230.942 161.947 231.6 165.47 231.141 169.158C230.962 170.592 231.594 172.157 232.002 173.621C232.196 174.319 232.549 174.992 232.47 175.72C231.811 181.836 232.279 188.015 231.431 194.118L231.417 194.105C231.953 196.649 231.411 199.193 231.415 201.738L231.435 201.718C231.393 201.783 231.311 201.851 231.318 201.91C231.334 202.048 231.392 202.182 231.433 202.318L231.416 202.301C231.973 206.712 231.242 211.123 231.447 215.54C231.736 221.771 232.033 228.008 232.043 234.243C232.055 240.921 232.332 247.616 231.315 254.274C230.714 258.207 230.324 262.181 230.03 266.151C229.878 268.189 229.088 270.023 228.61 271.947C228.329 273.077 227.717 274.346 225.942 273.913C222.203 272.999 218.358 273.637 214.573 273.273C212.283 273.052 211.998 272.648 212.396 270.479C212.935 267.544 213.437 264.581 213.641 261.61C214.025 256.024 215.206 250.543 215.188 244.88C215.172 239.589 216.151 234.295 216.692 229.002L216.712 229.023Z" fill="#7C6063" blush:i="0.2.0.0.0.4.1.0"/></g></g><path id="Fill 107" fill-rule="evenodd" clip-rule="evenodd" d="M209.533 164.371C209.465 164.497 209.395 164.624 209.327 164.75C209.272 164.691 209.161 164.614 209.173 164.577C209.216 164.443 209.3 164.323 209.368 164.197C209.424 164.255 209.478 164.313 209.533 164.371" fill="#7C6063" blush:i="0.2.0.0.0.5"/><path id="Fill 109" fill-rule="evenodd" clip-rule="evenodd" d="M231.415 201.738C231.416 201.925 231.416 202.114 231.416 202.301L231.434 202.318C231.435 202.118 231.436 201.919 231.436 201.718L231.415 201.738Z" fill="#7C6063" blush:i="0.2.0.0.0.6"/><path id="Fill 111" fill-rule="evenodd" clip-rule="evenodd" d="M222.713 169.602L222.682 169.572L222.713 169.602Z" fill="#7C6063" blush:i="0.2.0.0.0.7"/></g><g id="Group 1493" blush:i="0.2.0.0.1"><path id="Fill 1393" fill-rule="evenodd" clip-rule="evenodd" d="M258.172 68.8441C258.076 68.7601 257.981 68.6761 257.884 68.5921C257.841 68.6501 257.75 68.7491 257.76 68.7601C257.842 68.8541 257.943 68.9321 258.037 69.0151C258.082 68.9591 258.126 68.9021 258.172 68.8441V68.8441ZM219.113 93.6311C219.035 93.7741 218.895 93.9171 218.894 94.0611C218.892 94.3181 219.053 94.3661 219.242 94.1871C219.305 94.1281 219.357 94.0421 219.377 93.9601C219.43 93.7401 219.332 93.6291 219.113 93.6311V93.6311ZM218.46 90.4311C218.178 90.7431 218.191 91.0721 218.404 91.4031C218.423 91.4331 218.587 91.4241 218.602 91.3931C218.765 91.0471 218.762 90.7171 218.46 90.4311V90.4311ZM222.244 83.8071C220.682 85.4811 219.925 89.2401 220.712 90.8971C220.963 91.4261 221.38 91.7471 221.963 91.7791C222.504 91.8081 222.808 91.3931 222.92 90.9721C223.568 88.5351 223.955 86.1091 222.244 83.8071V83.8071ZM253.113 60.6571C252.381 60.2401 251.67 60.0761 250.792 60.3641C241.957 63.2611 233.115 66.1381 224.256 68.9641C222.673 69.4691 221.679 70.6531 221.451 72.0041C221.265 73.1181 222.012 74.2251 223.213 75.1361C225.9 77.1751 228.272 79.6271 230.773 81.9101L230.742 81.8801C232.374 82.1561 233.117 83.4981 234.036 84.6291C233.936 84.8341 233.399 84.8041 233.71 85.2331C233.81 85.0231 233.909 84.8131 234.008 84.6031C236.035 84.4861 237.195 86.3051 238.943 86.8141L238.925 86.7941C239.758 86.9531 240.426 86.8531 241.114 86.1761C242.333 84.9761 243.787 84.0181 245.027 82.8381C251.892 76.3021 257.248 68.6731 261.368 60.1531C261.62 59.6321 261.824 59.1341 261.487 58.6291C261.09 58.0331 260.528 58.3711 260.007 58.4581C259.431 58.5541 258.546 59.3721 258.547 57.9071L258.662 57.8001L258.557 57.9171C256.68 58.0911 255.32 59.4261 253.665 60.0991C253.482 60.2851 253.298 60.4711 253.113 60.6571V60.6571ZM230.747 90.0631L230.776 90.0981C231.109 89.1881 230.752 88.3681 230.046 87.9641C228.445 87.0501 227.644 85.5161 226.597 84.1401C226.093 83.4771 225.479 82.7461 224.143 82.4471C224.755 84.8841 224.958 87.1791 224.883 89.4911C224.828 91.1951 224.33 92.7801 222.868 93.6841C221.992 94.2271 220.708 94.1311 220.636 95.5981C220.579 96.7571 220.338 97.9291 220.45 99.0691C220.584 100.428 221.778 100.873 222.524 99.9131C223.916 98.1171 226.151 96.9771 226.622 94.3981C226.882 92.9741 227.416 91.3461 229.567 91.5031C229.747 91.5161 231.567 91.5171 230.747 90.0631V90.0631ZM216.588 80.8281L216.562 80.8011C216.133 83.5091 217.812 85.7991 217.868 88.8921C220.311 82.3361 221.161 82.1741 223.399 81.0201C222.914 79.6481 222.24 78.3641 220.947 77.6211C220.087 77.1271 219.097 75.7711 218.161 76.7081C217.15 77.7231 215.617 78.9031 216.588 80.8281V80.8281ZM189.332 67.1951C189.263 67.2471 189.179 67.2871 189.128 67.3531C189.091 67.4011 189.099 67.4831 189.086 67.5501C189.161 67.4251 189.236 67.3001 189.313 67.1751L189.332 67.1951ZM219.283 103.68C216.259 102.815 217.624 100.003 216.951 98.1291C216.586 97.1131 216.542 96.0801 215.476 95.5131L215.506 95.5431C215.398 91.8391 214.868 88.1981 213.851 84.6311L213.764 84.5361L213.859 84.6211C212.054 85.5531 211.408 87.7241 209.555 88.6291C208.996 88.9011 208.528 89.5051 207.886 88.9621C207.248 88.4231 207.248 87.6941 207.62 86.9911C208.325 85.6601 209.064 84.3471 209.908 82.8081C207.514 82.9051 205.518 83.8021 203.578 84.4571C199.922 85.6901 195.982 85.4951 192.421 87.0291C190.871 87.6971 190.066 85.9831 188.791 85.7051C188.813 85.5251 188.813 85.3451 188.791 85.1651L188.775 85.1801C190.59 84.6291 192.405 84.0781 194.22 83.5261C194.408 83.5261 194.596 83.5261 194.784 83.5261C194.967 83.5341 195.15 83.5431 195.332 83.5521L195.305 83.5251C195.901 83.9481 196.362 83.7331 197.015 83.4491C199.194 82.5001 201.189 81.2081 203.598 80.6541C206.463 79.9951 209.388 79.3231 212.028 77.8971C212.914 77.4201 213.781 76.9171 213.842 75.7251C213.905 74.4901 212.984 74.1891 212.163 73.5731C209.185 71.3371 204.836 70.8311 203.408 66.5591C203.142 65.7601 202.101 65.0881 201.153 64.6871C199.63 64.0411 197.856 64.0481 196.612 62.6141C196.221 62.1631 194.963 61.9611 194.588 63.0111C194.375 63.6041 194.46 64.2661 193.68 64.4691L193.7 64.4481C189.415 70.7031 186.618 77.4651 186.617 85.1831L186.501 85.2691L186.587 85.1521C187.315 85.3441 188.042 85.5341 188.77 85.7261C186.06 87.9951 184.405 85.4061 182.234 84.3731C183.181 82.6241 183.662 80.8771 183.527 78.9381C183.35 76.3961 185.668 74.8281 186.248 72.5531C186.291 72.3871 186.507 72.2621 186.537 72.0991C187.555 66.5981 191.832 63.4471 195.391 60.1131C194.708 57.5451 191.895 55.8411 193.702 52.9851C193.714 53.6651 194.031 54.2011 194.505 54.6561C197.018 57.0701 199.991 58.9501 202.332 61.5851C203.196 62.5571 204.453 63.1511 205.914 63.3031C207.083 63.4251 208.731 63.8461 208.933 64.9511C209.157 66.1781 209.931 66.5211 210.591 67.1771C211.849 68.4271 213.335 69.3891 214.315 70.9981C215.444 72.8541 216.235 72.6791 217.419 70.7171C218.872 68.3091 218.639 65.3041 220.185 62.9161C220.397 62.5891 220.423 61.9411 220.243 61.5911C219.231 59.6221 219.643 57.5531 219.66 55.5021C219.709 49.8191 219.519 44.1221 219.867 38.4591C219.994 36.4061 218.971 34.8821 218.61 33.0991C218.401 32.0641 216.925 31.2161 215.59 32.4901C215.133 32.9271 214.624 33.3101 214.125 33.7001C208.88 37.7961 203.724 41.9431 199.45 47.1531C197.74 49.2391 196.538 52.0191 193.666 53.0261C193.173 49.5751 195.654 47.3471 197.541 45.3081C202.203 40.2691 206.982 35.2541 212.845 31.5211C215.274 29.9761 217.998 30.5511 220.546 31.1071C221.492 31.3131 222.025 32.6881 222.03 33.8401C222.045 36.6531 222.092 39.4721 221.905 42.2751C221.828 43.4431 221.646 44.5391 222.065 45.6821C223.987 50.9261 222.813 56.0631 221.47 61.1881L221.491 61.1671C220.876 62.0821 221.684 62.9941 221.495 63.9081C221.434 63.9641 221.359 64.0111 221.315 64.0781C221.283 64.1271 221.294 64.2031 221.286 64.2671C221.347 64.1391 221.406 64.0111 221.466 63.8841C223.852 62.5991 225.778 61.0791 226.003 57.9981C226.17 55.7121 227.969 53.9651 228.687 51.8091C229.113 50.5281 229.901 49.3641 229.557 47.9101C229.423 47.3431 229.658 46.8341 230.01 46.3971C230.61 45.6521 231.093 44.4451 232.336 45.2211C233.562 45.9871 233.735 47.2121 232.707 48.2221C230.494 50.3981 230.253 53.3301 229.184 56.2381C233.218 54.8781 234.113 50.3711 237.581 48.7611C239.035 51.7121 238.702 51.8861 236.542 53.7971C232.364 57.4931 226.844 60.0551 225.375 66.2471C226.176 66.7531 226.713 66.0141 227.274 65.7001C232.731 62.6461 238.765 60.9871 244.505 58.6241C247.212 57.5101 250.27 57.2501 253.166 56.5931C253.923 56.4211 254.357 56.8501 254.756 57.3751L254.728 57.3471C257.626 56.9571 260.548 56.6861 263.414 56.1301C265.113 55.8011 265.693 56.6441 266.168 57.9181L266.191 57.8961C264.725 58.9781 264.205 60.7291 263.193 62.1331C264.824 63.5841 263.36 63.9391 262.369 64.4611C262.011 64.0341 261.651 64.0881 261.291 64.4581L261.273 64.4391C261.645 64.4381 262.017 64.4371 262.389 64.4371C263.641 66.3661 261.714 67.4061 260.891 68.3091C259.484 69.8521 258.451 71.6491 257.446 73.3431C255.371 76.8431 252.15 79.2301 249.639 82.2831C248.102 84.1521 245.798 85.3861 243.856 86.9271C241.51 88.7861 238.643 89.4241 235.908 90.3811C234.702 90.8031 233.954 92.6831 234.82 93.5451C235.812 94.5311 235.342 95.6091 235.227 96.5101C235.034 98.0101 233.797 97.1321 232.899 97.2281C231.21 97.4091 229.749 98.8391 229.242 100.079C228.538 101.803 227.738 103.018 226.109 103.802C225.902 103.9 225.918 104.458 225.831 104.804L225.853 104.782C225.089 105.503 223.888 105.586 223.772 107.191C223.648 108.891 221.635 109.341 220.334 109.59C219.275 109.792 219.151 108.1 218.683 107.161C217.981 105.755 218.118 104.685 219.328 103.724L219.435 103.562L219.283 103.68Z" fill="#7C6063" blush:i="0.2.0.0.1.0"/><path id="Fill 1431" fill-rule="evenodd" clip-rule="evenodd" d="M213.595 87.536C213.653 87.684 213.764 87.835 213.756 87.979C213.741 88.252 213.595 88.473 213.292 88.271C213.206 88.214 213.188 87.951 213.241 87.824C213.29 87.7 213.471 87.63 213.595 87.536" fill="#7C6063" blush:i="0.2.0.0.1.1"/><path id="Fill 1439" fill-rule="evenodd" clip-rule="evenodd" d="M215.475 95.5135C215.439 95.8595 215.53 96.3825 215.15 96.4485C214.545 96.5535 214.576 95.9125 214.405 95.5335L214.38 95.5535L215.505 95.5425C215.505 95.5435 215.475 95.5135 215.475 95.5135" fill="#7C6063" blush:i="0.2.0.0.1.2"/><path id="Fill 1445" fill-rule="evenodd" clip-rule="evenodd" d="M214.405 95.5331C214.294 95.3091 214.182 95.0851 214.07 94.8611C214.55 94.9231 214.217 95.3501 214.381 95.5531L214.405 95.5331Z" fill="#7C6063" blush:i="0.2.0.0.1.3"/><path id="Fill 1451" fill-rule="evenodd" clip-rule="evenodd" d="M213.314 92.7933L213.297 92.8093L213.314 92.7933Z" fill="#7C6063" blush:i="0.2.0.0.1.4"/><path id="Fill 1453" fill-rule="evenodd" clip-rule="evenodd" d="M213.297 92.8094L213.314 92.7934L213.297 92.8094Z" fill="#7C6063" blush:i="0.2.0.0.1.5"/><path id="Fill 1457" fill-rule="evenodd" clip-rule="evenodd" d="M225.831 104.804L225.852 104.783L225.831 104.804Z" fill="#7C6063" blush:i="0.2.0.0.1.6"/><path id="Fill 1459" fill-rule="evenodd" clip-rule="evenodd" d="M196.949 107.507L196.97 107.528L196.949 107.507Z" fill="#7C6063" blush:i="0.2.0.0.1.7"/><path id="Fill 1463" fill-rule="evenodd" clip-rule="evenodd" d="M221.47 61.1884L221.491 61.1674L221.47 61.1884Z" fill="#7C6063" blush:i="0.2.0.0.1.8"/><path id="Fill 1465" fill-rule="evenodd" clip-rule="evenodd" d="M266.168 57.9178L266.19 57.8958L266.168 57.9178Z" fill="#7C6063" blush:i="0.2.0.0.1.9"/><path id="Fill 1469" fill-rule="evenodd" clip-rule="evenodd" d="M235.661 70.4506C236.755 68.4496 239.014 68.8216 240.687 68.3016C242.884 67.6196 244.889 66.6556 246.798 65.5236C248.318 64.6226 249.556 64.5626 250.926 65.5586L250.907 65.5386C247.705 68.0316 244.781 70.7926 242.181 73.9316C240.535 75.9176 238.134 77.1586 235.74 77.7316C233.222 78.3346 231.488 76.2306 229.88 74.5266C228.872 73.4566 229.073 72.4066 230.221 71.5216C230.367 71.6926 230.164 72.2826 230.731 71.9476C230.55 71.8166 230.369 71.6856 230.188 71.5546C231.918 70.6626 233.665 69.8546 235.694 70.4336C234.825 71.0336 233.973 71.6576 233.082 72.2236C232.539 72.5686 232.344 73.0306 232.556 73.5876C233.05 74.8836 236.849 76.0996 237.593 75.0636C238.954 73.1676 241.018 71.9346 242.184 69.8976L242.203 69.9186C241.292 70.1016 240.38 70.2836 239.468 70.4676L239.492 70.4426C238.218 71.9046 236.938 70.9866 235.661 70.4506" fill="#7C6063" blush:i="0.2.0.0.1.10"/><path id="Fill 1471" fill-rule="evenodd" clip-rule="evenodd" d="M253.096 60.6307C253.276 60.4457 253.456 60.2597 253.637 60.0747C255.039 60.2387 256.752 59.9707 256.928 62.0607C257.034 63.3367 256.52 64.4067 255.221 64.8517C254.126 65.2277 252.969 65.1857 252.238 64.1997C251.172 62.7637 252.144 61.6647 253.096 60.6307" fill="#7C6063" blush:i="0.2.0.0.1.11"/><path id="Fill 1473" fill-rule="evenodd" clip-rule="evenodd" d="M250.926 65.5585L250.907 65.5385L250.926 65.5585Z" fill="#7C6063" blush:i="0.2.0.0.1.12"/><path id="Fill 1475" fill-rule="evenodd" clip-rule="evenodd" d="M210.995 47.4501C209.722 47.9411 209.473 48.8611 209.002 49.5991C208.225 50.8171 207.562 52.1151 206.498 53.1331C205.147 54.4261 204.988 56.0631 206.475 56.8281C208.338 57.7871 209.431 59.4321 210.899 60.7291C211.408 61.1781 211.835 61.9241 212.726 61.3591C213.28 56.6101 211.951 52.1421 210.995 47.4501M213.672 42.6361C214.104 46.4791 214.372 50.2611 215.006 53.9801C215.426 56.4441 215.016 58.9921 216.071 61.4071C216.737 62.9301 215.039 64.6161 213.446 64.0791C211.309 63.3591 209.125 62.5791 207.768 60.5691C206.989 59.4141 205.894 58.5851 204.853 57.7301C203.514 56.6301 203.179 55.3811 203.921 53.8891C205.79 50.1321 208.505 46.9501 211.074 43.6791C211.559 43.0611 212.337 42.6441 213.672 42.6361" fill="#7C6063" blush:i="0.2.0.0.1.13"/><path id="Fill 1477" fill-rule="evenodd" clip-rule="evenodd" d="M214.61 37.7743C214.513 37.6903 214.418 37.6063 214.322 37.5223C214.28 37.5793 214.193 37.6763 214.203 37.6883C214.286 37.7833 214.387 37.8623 214.483 37.9463C214.525 37.8893 214.567 37.8323 214.61 37.7743M216.527 38.1353C216.367 39.3363 215.932 40.7503 214.284 40.8313C212.869 40.9003 211.944 39.8743 211.827 38.4303C211.721 37.1283 213.612 35.3503 214.872 35.4243C215.778 35.4773 216.495 36.5513 216.527 38.1353" fill="#7C6063" blush:i="0.2.0.0.1.14"/><path id="Fill 1479" fill-rule="evenodd" clip-rule="evenodd" d="M194.554 77.7699C198.957 78.4909 202.167 76.7229 203.054 73.1989C199.901 74.0909 197.007 74.9639 194.554 77.7699M195.32 80.2709C193.86 80.3389 192.946 79.5269 192.329 78.3319C191.694 77.0979 192.42 76.1669 193.306 75.5349C196.571 73.2059 200.277 71.9009 204.24 71.5299C205.37 71.4239 206.17 72.1859 205.525 73.7119C204.136 76.9969 199.134 80.3039 195.32 80.2709" fill="#7C6063" blush:i="0.2.0.0.1.15"/><path id="Fill 1481" fill-rule="evenodd" clip-rule="evenodd" d="M195.332 83.5516L195.305 83.5246L195.332 83.5516Z" fill="#7C6063" blush:i="0.2.0.0.1.16"/><path id="Fill 1483" fill-rule="evenodd" clip-rule="evenodd" d="M194.801 83.5433C194.602 83.5433 194.402 83.5433 194.202 83.5443C194.402 83.5433 194.602 83.5433 194.801 83.5433" fill="#7C6063" blush:i="0.2.0.0.1.17"/><path id="Fill 1485" fill-rule="evenodd" clip-rule="evenodd" d="M188.791 85.1654L188.774 85.1804L188.791 85.1654Z" fill="#7C6063" blush:i="0.2.0.0.1.18"/><path id="Fill 1487" fill-rule="evenodd" clip-rule="evenodd" d="M230.747 90.0629C230.643 90.1629 230.537 90.2629 230.432 90.3619C230.309 89.9629 230.661 90.1859 230.776 90.0979L230.747 90.0629Z" fill="#7C6063" blush:i="0.2.0.0.1.19"/><path id="Fill 1489" fill-rule="evenodd" clip-rule="evenodd" d="M218.758 82.2943C218.649 82.3913 218.547 82.5013 218.424 82.5743C218.394 82.5923 218.273 82.5063 218.228 82.4433C218.095 82.2573 218.151 82.0903 218.376 82.0833C218.5 82.0783 218.63 82.2183 218.758 82.2943" fill="#7C6063" blush:i="0.2.0.0.1.20"/><path id="Fill 1491" fill-rule="evenodd" clip-rule="evenodd" d="M216.588 80.828L216.562 80.801L216.588 80.828Z" fill="#7C6063" blush:i="0.2.0.0.1.21"/></g><g id="Group 1493 Copy" blush:i="0.2.0.0.2"><path id="Fill 1391" fill-rule="evenodd" clip-rule="evenodd" d="M113.939 187.069C112.406 183.844 109.07 181.599 104.344 182.632C103.107 182.902 101.878 183.198 100.652 183.505C92.1072 181.836 83.418 181.503 74.6988 182.475C74.9495 182.176 75.1676 181.822 75.3278 181.393L80.6052 167.313C82.0409 163.483 84.2281 159.415 84.7412 155.354C85.5093 149.268 80.7523 146.243 75.0947 147.352C64.7271 149.385 44.2012 156.314 46.5357 169.983C43.192 172.128 40.0216 174.53 37.1433 177.286C34.2044 180.101 30.7292 183.47 31.1883 187.918C31.6286 192.18 35.3885 194.077 39.1656 194.821C44.0322 195.777 48.9657 196.179 53.9126 196.189C56.3165 198.502 57.1907 202.313 55.4885 206.484C54.0861 209.923 55.6486 213.706 58.3683 216.082L57.8505 219.857C57.5545 222.024 60.0521 224.022 62.0946 223.435C67.5303 221.873 72.3941 219.385 76.696 215.695C79.5196 213.273 81.5886 211.423 85.379 210.714C88.1207 210.202 90.9375 210.211 93.6861 209.729C103.836 207.945 112.671 201.383 117.738 192.49C119.431 189.516 116.445 186.569 113.939 187.069" fill="#FBB957" blush:i="0.2.0.0.2.0"/><path id="Fill 1393_2" fill-rule="evenodd" clip-rule="evenodd" d="M106.751 197.127C106.686 197.017 106.621 196.908 106.555 196.798C106.496 196.84 106.379 196.906 106.385 196.92C106.434 197.034 106.506 197.14 106.57 197.248C106.63 197.208 106.69 197.168 106.751 197.127V197.127ZM61.9443 208.631C61.8259 208.743 61.6486 208.835 61.6031 208.972C61.5218 209.216 61.6601 209.311 61.8951 209.199C61.9733 209.163 62.0493 209.097 62.0937 209.025C62.2121 208.832 62.1532 208.697 61.9443 208.631V208.631ZM62.3121 205.386C61.9475 205.595 61.8582 205.912 61.9585 206.293C61.9673 206.327 62.126 206.369 62.1499 206.344C62.4118 206.066 62.5109 205.751 62.3121 205.386V205.386ZM67.9578 200.255C65.955 201.365 64.0734 204.706 64.3099 206.525C64.3851 207.105 64.6825 207.54 65.2271 207.75C65.7326 207.945 66.15 207.644 66.3866 207.278C67.756 205.161 68.8737 202.973 67.9578 200.255V200.255ZM104.47 187.777C103.902 187.154 103.277 186.779 102.353 186.781C93.0551 186.806 83.7568 186.81 74.4581 186.76C72.7965 186.751 71.4853 187.57 70.851 188.785C70.3298 189.787 70.6982 191.07 71.5589 192.308C73.4843 195.078 74.9825 198.142 76.6556 201.087L76.6354 201.048C78.1022 201.815 78.3941 203.321 78.9187 204.681C78.7602 204.845 78.2588 204.65 78.422 205.155C78.582 204.986 78.741 204.817 78.9001 204.647C80.864 205.163 81.4051 207.251 82.9103 208.275L82.8994 208.251C83.6425 208.659 84.3087 208.771 85.1722 208.339C86.7024 207.575 88.3812 207.113 89.9252 206.374C98.4739 202.279 105.925 196.679 112.476 189.849C112.877 189.431 113.225 189.021 113.061 188.436C112.867 187.747 112.228 187.894 111.706 187.816C111.128 187.73 110.034 188.234 110.488 186.841L110.63 186.775L110.494 186.854C108.655 186.439 106.949 187.288 105.167 187.417C104.936 187.537 104.703 187.658 104.47 187.777V187.777ZM74.1114 208.833L74.1282 208.875C74.7261 208.112 74.64 207.222 74.0934 206.62C72.8532 205.256 72.5654 203.549 71.9949 201.917C71.7204 201.131 71.3624 200.246 70.1841 199.549C70.0131 202.055 69.497 204.301 68.7112 206.476C68.1323 208.08 67.1689 209.434 65.4991 209.842C64.4982 210.087 63.3067 209.599 62.7849 210.972C62.3725 212.057 61.7812 213.097 61.5354 214.216C61.2429 215.55 62.2409 216.342 63.2471 215.659C65.126 214.381 67.6038 213.988 68.8487 211.681C69.5361 210.407 70.547 209.023 72.5442 209.837C72.7114 209.905 74.442 210.469 74.1114 208.833V208.833ZM63.4992 195.674L63.4828 195.64C62.238 198.083 63.1272 200.78 62.2246 203.739C66.574 198.259 67.4324 198.367 69.9175 197.961C69.8802 196.507 69.636 195.077 68.6359 193.971C67.9706 193.236 67.4481 191.64 66.2684 192.242C64.9932 192.895 63.1706 193.543 63.4992 195.674V195.674ZM41.79 174.286C41.7083 174.314 41.6161 174.326 41.5472 174.373C41.4972 174.407 41.4794 174.488 41.4464 174.547C41.5563 174.452 41.6663 174.356 41.7781 174.261L41.79 174.286ZM59.0006 218.24C56.3919 216.483 58.5591 214.231 58.4981 212.241C58.465 211.161 58.7423 210.165 57.9037 209.297L57.923 209.335C58.9649 205.779 59.5859 202.152 59.721 198.445L59.6676 198.328L59.7317 198.438C57.727 198.767 56.4417 200.632 54.3998 200.92C53.7841 201.006 53.1523 201.436 52.7096 200.721C52.2694 200.011 52.4946 199.318 53.0657 198.764C54.1475 197.716 55.256 196.696 56.5343 195.493C54.2275 194.845 52.052 195.082 50.0045 195.105C46.1465 195.148 42.4595 193.745 38.5988 194.104C36.9182 194.26 36.6823 192.381 35.5556 191.723C35.6322 191.558 35.6878 191.387 35.7225 191.209L35.7026 191.218C37.5991 191.255 39.4955 191.292 41.3922 191.328C41.571 191.386 41.7498 191.444 41.9286 191.502C42.1002 191.566 42.2715 191.632 42.4418 191.696L42.4244 191.662C42.8606 192.249 43.3654 192.187 44.0742 192.118C46.4398 191.889 48.7365 191.277 51.1987 191.495C54.1272 191.753 57.1167 192.018 60.0681 191.477C61.0582 191.298 62.0382 191.087 62.4645 189.972C62.9061 188.817 62.1232 188.246 61.5327 187.407C59.3914 184.36 55.4116 182.535 55.3736 178.031C55.3676 177.189 54.5852 176.228 53.8075 175.553C52.5587 174.468 50.8693 173.927 50.1293 172.179C49.8968 171.629 48.7628 171.048 48.0817 171.931C47.6959 172.429 47.5722 173.085 46.7676 173.037L46.7931 173.023C40.7849 177.648 36.0353 183.215 33.6493 190.554L33.5124 190.6L33.6304 190.516C34.2634 190.923 34.8961 191.329 35.5291 191.736C32.2506 193.057 31.4767 190.083 29.7311 188.43C31.1723 187.059 32.1696 185.546 32.6404 183.66C33.2575 181.188 35.9466 180.413 37.2013 178.429C37.2935 178.284 37.5375 178.232 37.6164 178.086C40.2845 173.169 45.3259 171.494 49.7409 169.423C49.8849 166.769 47.7362 164.28 50.3373 162.122C50.1386 162.772 50.2744 163.38 50.5846 163.959C52.2287 167.031 54.4752 169.738 55.8874 172.968C56.4087 174.159 57.4206 175.112 58.7631 175.708C59.8372 176.186 61.2745 177.095 61.1251 178.209C60.959 179.445 61.5891 180.01 62.0141 180.838C62.8243 182.416 63.9403 183.79 64.3751 185.623C64.8753 187.737 65.6817 187.815 67.414 186.315C69.54 184.474 70.247 181.544 72.4553 179.75C72.7579 179.505 72.9829 178.897 72.9199 178.508C72.5659 176.323 73.597 174.482 74.247 172.537C76.0498 167.147 77.6295 161.67 79.7105 156.392C80.4657 154.479 79.9637 152.713 80.1713 150.906C80.2924 149.857 79.1507 148.594 77.4873 149.394C76.9176 149.668 76.3152 149.875 75.7201 150.092C69.4661 152.366 63.2809 154.717 57.6061 158.351C55.3352 159.807 53.333 162.079 50.2904 162.15C50.8879 158.715 53.936 157.363 56.3607 156.007C62.3517 152.655 68.4465 149.362 75.1761 147.624C77.9636 146.905 80.3766 148.294 82.6281 149.61C83.4642 150.098 83.5462 151.57 83.1949 152.668C82.3399 155.348 81.5135 158.043 80.4695 160.651C80.0353 161.738 79.5236 162.724 79.5689 163.941C79.7763 169.522 77.0723 174.045 74.2114 178.504L74.2378 178.491C73.3702 179.171 73.8568 180.288 73.3946 181.099C73.3193 181.133 73.2334 181.155 73.1709 181.205C73.1253 181.241 73.1123 181.317 73.0849 181.375C73.1825 181.273 73.2781 181.169 73.3744 181.067C76.0407 180.582 78.3422 179.732 79.5083 176.871C80.3735 174.748 82.6243 173.643 83.9734 171.814C84.7744 170.728 85.8835 169.864 86.0057 168.375C86.0534 167.794 86.4342 167.383 86.904 167.076C87.7049 166.553 88.5372 165.554 89.4796 166.676C90.4089 167.784 90.1949 169.002 88.9051 169.645C86.128 171.031 84.9927 173.745 83.0774 176.18C87.3343 176.133 89.5782 172.123 93.374 171.664C93.8449 174.92 93.4744 174.982 90.8296 176.132C85.714 178.356 79.6724 179.087 76.3619 184.522C76.9673 185.251 77.7064 184.714 78.337 184.589C84.4707 183.37 90.722 183.657 96.9113 183.184C99.83 182.961 102.819 183.658 105.776 183.929C106.549 183.999 106.829 184.541 107.047 185.164L107.029 185.128C109.905 185.653 112.768 186.298 115.665 186.655C117.383 186.867 117.674 187.848 117.732 189.207L117.761 189.193C116.032 189.769 114.997 191.273 113.6 192.296C114.703 194.18 113.201 194.065 112.097 194.255C111.889 193.739 111.53 193.679 111.073 193.919L111.062 193.896C111.416 194.01 111.77 194.124 112.124 194.239C112.718 196.46 110.564 196.854 109.502 197.458C107.687 198.491 106.15 199.881 104.67 201.181C101.615 203.869 97.8145 205.144 94.483 207.271C92.4436 208.574 89.8711 209.035 87.5479 209.901C84.7423 210.944 81.8184 210.665 78.9216 210.73C77.6442 210.758 76.3519 212.315 76.9091 213.403C77.5479 214.647 76.7677 215.527 76.3799 216.348C75.7329 217.715 74.8277 216.498 73.944 216.312C72.2817 215.962 70.4504 216.871 69.585 217.893C68.3827 219.315 67.2464 220.224 65.4549 220.466C65.2277 220.495 65.0705 221.031 64.8808 221.333L64.9085 221.319C63.9591 221.768 62.7913 221.476 62.185 222.967C61.5417 224.545 59.4882 224.351 58.1739 224.186C57.1043 224.051 57.5093 222.403 57.3543 221.366C57.1212 219.812 57.5821 218.836 59.0298 218.296L59.1817 218.175L59.0006 218.24Z" fill="#7C6063" blush:i="0.2.0.0.2.1"/><path id="Fill 1431_2" fill-rule="evenodd" clip-rule="evenodd" d="M58.5798 201.129C58.5892 201.287 58.6481 201.465 58.596 201.6C58.4974 201.855 58.2903 202.02 58.0645 201.734C58.0003 201.653 58.0645 201.398 58.1541 201.293C58.2391 201.191 58.4328 201.18 58.5798 201.129" fill="#7C6063" blush:i="0.2.0.0.2.2"/><path id="Fill 1439_2" fill-rule="evenodd" clip-rule="evenodd" d="M57.9033 209.297C57.7621 209.615 57.687 210.141 57.3052 210.086C56.6974 209.999 56.925 209.399 56.8794 208.985L56.8495 208.997L57.9228 209.334C57.9225 209.335 57.9033 209.297 57.9033 209.297" fill="#7C6063" blush:i="0.2.0.0.2.3"/><path id="Fill 1445_2" fill-rule="evenodd" clip-rule="evenodd" d="M56.8796 208.985C56.8432 208.738 56.8059 208.49 56.7686 208.242C57.206 208.45 56.7573 208.753 56.8506 208.997L56.8796 208.985Z" fill="#7C6063" blush:i="0.2.0.0.2.4"/><path id="Fill 1451_2" fill-rule="evenodd" clip-rule="evenodd" d="M56.6875 206.042L56.6664 206.052L56.6875 206.042Z" fill="#7C6063" blush:i="0.2.0.0.2.5"/><path id="Fill 1453_2" fill-rule="evenodd" clip-rule="evenodd" d="M56.6669 206.052L56.688 206.042L56.6669 206.052Z" fill="#7C6063" blush:i="0.2.0.0.2.6"/><path id="Fill 1457_2" fill-rule="evenodd" clip-rule="evenodd" d="M64.881 221.333L64.9075 221.32L64.881 221.333Z" fill="#7C6063" blush:i="0.2.0.0.2.7"/><path id="Fill 1459_2" fill-rule="evenodd" clip-rule="evenodd" d="M36.5775 214.979L36.5909 215.005L36.5775 214.979Z" fill="#7C6063" blush:i="0.2.0.0.2.8"/><path id="Fill 1463_2" fill-rule="evenodd" clip-rule="evenodd" d="M74.2111 178.504L74.2376 178.491L74.2111 178.504Z" fill="#7C6063" blush:i="0.2.0.0.2.9"/><path id="Fill 1465_2" fill-rule="evenodd" clip-rule="evenodd" d="M117.732 189.206L117.76 189.192L117.732 189.206Z" fill="#7C6063" blush:i="0.2.0.0.2.10"/><path id="Fill 1469_2" fill-rule="evenodd" clip-rule="evenodd" d="M84.8458 191.699C86.5046 190.134 88.5381 191.185 90.2899 191.208C92.5901 191.238 94.7949 190.941 96.9602 190.454C98.6843 190.067 99.8802 190.393 100.875 191.763L100.863 191.738C97.0478 193.12 93.4137 194.842 89.971 197.024C87.7918 198.404 85.1249 198.842 82.671 198.648C80.0899 198.443 79.0909 195.906 78.0882 193.789C77.4602 192.46 77.9758 191.523 79.3411 191.036C79.4271 191.244 79.0517 191.742 79.6945 191.599C79.5628 191.418 79.4312 191.238 79.2995 191.057C81.2205 190.744 83.1316 190.515 84.8824 191.693C83.8705 191.995 82.8674 192.325 81.8451 192.588C81.2221 192.748 80.8939 193.127 80.9234 193.723C80.9927 195.108 84.23 197.438 85.2577 196.683C87.138 195.3 89.482 194.765 91.2204 193.188L91.232 193.214C90.309 193.107 89.3854 192.998 88.4612 192.891L88.4918 192.875C86.8283 193.872 85.8947 192.603 84.8458 191.699" fill="#7C6063" blush:i="0.2.0.0.2.11"/><path id="Fill 1471_2" fill-rule="evenodd" clip-rule="evenodd" d="M104.462 187.747C104.69 187.626 104.919 187.505 105.148 187.385C106.431 187.974 108.143 188.249 107.664 190.291C107.371 191.537 106.551 192.396 105.178 192.418C104.021 192.437 102.933 192.04 102.543 190.876C101.973 189.181 103.237 188.436 104.462 187.747" fill="#7C6063" blush:i="0.2.0.0.2.12"/><path id="Fill 1473_2" fill-rule="evenodd" clip-rule="evenodd" d="M100.875 191.763L100.863 191.738L100.875 191.763Z" fill="#7C6063" blush:i="0.2.0.0.2.13"/><path id="Fill 1475_2" fill-rule="evenodd" clip-rule="evenodd" d="M68.4949 162.202C67.1325 162.275 66.6114 163.073 65.9354 163.629C64.82 164.548 63.7884 165.577 62.4619 166.217C60.7774 167.029 60.1203 168.537 61.2982 169.724C62.7736 171.212 63.3048 173.114 64.3002 174.801C64.6455 175.385 64.8211 176.227 65.8431 175.965C67.8375 171.619 67.9542 166.959 68.4949 162.202M72.5285 158.45C71.7518 162.239 70.838 165.919 70.2917 169.651C69.9297 172.125 68.7524 174.421 69.0095 177.044C69.1723 178.698 67.0364 179.777 65.6873 178.774C63.8774 177.429 62.0413 176.012 61.3718 173.681C60.9879 172.342 60.2027 171.215 59.4768 170.08C58.5433 168.62 58.6106 167.329 59.7774 166.139C62.7159 163.144 66.2813 160.957 69.7353 158.64C70.3876 158.202 71.2564 158.045 72.5285 158.45" fill="#7C6063" blush:i="0.2.0.0.2.14"/><path id="Fill 1477_2" fill-rule="evenodd" clip-rule="evenodd" d="M74.922 154.116C74.8557 154.006 74.7913 153.897 74.726 153.787C74.6684 153.829 74.5557 153.894 74.5615 153.909C74.6111 154.025 74.6827 154.131 74.7481 154.24C74.8056 154.199 74.8632 154.158 74.922 154.116M76.6336 155.052C76.1103 156.145 75.2597 157.355 73.6673 156.923C72.3002 156.551 71.7376 155.29 72.0725 153.88C72.374 152.609 74.7219 151.502 75.8974 151.962C76.7427 152.292 77.0927 153.535 76.6336 155.052" fill="#7C6063" blush:i="0.2.0.0.2.15"/><path id="Fill 1479_2" fill-rule="evenodd" clip-rule="evenodd" d="M43.4887 185.957C47.4534 188.003 51.0526 187.313 52.9852 184.236C49.7109 184.11 46.6887 184.046 43.4887 185.957M43.4444 188.572C42.0348 188.185 41.4165 187.131 41.1989 185.804C40.9763 184.434 41.9545 183.773 42.9924 183.445C46.8173 182.239 50.7452 182.143 54.6289 183.015C55.7364 183.264 56.2617 184.236 55.1767 185.488C52.8406 188.183 47.0615 189.782 43.4444 188.572" fill="#7C6063" blush:i="0.2.0.0.2.16"/><path id="Fill 1481_2" fill-rule="evenodd" clip-rule="evenodd" d="M42.4425 191.696L42.4251 191.662L42.4425 191.696Z" fill="#7C6063" blush:i="0.2.0.0.2.17"/><path id="Fill 1483_2" fill-rule="evenodd" clip-rule="evenodd" d="M41.9395 191.524C41.7503 191.462 41.56 191.401 41.3695 191.34C41.56 191.401 41.7503 191.462 41.9395 191.524" fill="#7C6063" blush:i="0.2.0.0.2.18"/><path id="Fill 1485_2" fill-rule="evenodd" clip-rule="evenodd" d="M35.7225 191.209L35.7017 191.218L35.7225 191.209Z" fill="#7C6063" blush:i="0.2.0.0.2.19"/><path id="Fill 1487_2" fill-rule="evenodd" clip-rule="evenodd" d="M74.1116 208.832C73.9818 208.895 73.8501 208.958 73.7197 209.019C73.726 208.602 73.9918 208.923 74.1284 208.875L74.1116 208.832Z" fill="#7C6063" blush:i="0.2.0.0.2.20"/><path id="Fill 1489_2" fill-rule="evenodd" clip-rule="evenodd" d="M65.1101 197.739C64.9764 197.798 64.8454 197.871 64.7059 197.902C64.6718 197.91 64.5833 197.791 64.56 197.717C64.4909 197.499 64.5958 197.358 64.812 197.42C64.9314 197.454 65.0118 197.627 65.1101 197.739" fill="#7C6063" blush:i="0.2.0.0.2.21"/><path id="Fill 1491_2" fill-rule="evenodd" clip-rule="evenodd" d="M63.4996 195.674L63.4832 195.64L63.4996 195.674Z" fill="#7C6063" blush:i="0.2.0.0.2.22"/></g></g></g></g><g id="Brush" blush:i="0.3"><path id="Fill 89" fill-rule="evenodd" clip-rule="evenodd" d="M441.173 917.382C441.148 917.743 441.12 918.106 441.094 918.468C438.341 919.608 435.643 921.013 433.104 922.672C432.847 922.257 432.341 922.021 431.817 922.372C428.44 924.633 425.446 927.44 423.073 930.747C420.997 933.641 419.865 937.451 422.502 940.38C424.665 942.784 428.214 943.415 431.167 942.257C433.295 941.422 434.975 939.918 436.28 938.112C438.02 936.427 439.426 934.397 440.421 932.089C442.419 927.461 442.819 922.353 443.173 917.382C443.264 916.097 441.264 916.103 441.173 917.382" fill="#786163" blush:i="0.3.0"/><path id="Fill 91" fill-rule="evenodd" clip-rule="evenodd" d="M397.249 979.687C393.475 987.05 389.7 994.412 385.926 1001.78C385.813 1001.96 385.701 1002.15 385.589 1002.34C385.528 1002.44 385.508 1002.54 385.485 1002.64L379.254 1014.79C378.83 1015.34 378.405 1015.89 377.971 1016.43C377.681 1016.79 377.685 1017.21 377.842 1017.55L377.791 1017.64C377.291 1018.62 378.543 1019.71 379.361 1018.86C386.136 1011.78 391.184 1003.19 394.07 993.849C396.021 989.505 397.7 985.034 399.076 980.458C399.398 979.388 397.771 978.667 397.249 979.687" fill="#786163" blush:i="0.3.1"/><path id="Fill 93" fill-rule="evenodd" clip-rule="evenodd" d="M443.63 917.4C440.252 918.981 437.703 921.887 434.29 923.372C429.542 925.438 425.542 928.24 422.543 932.632C420.189 936.078 421.211 940.056 425.305 940.672C429.949 941.371 434.288 940.863 437.567 936.74C439.604 934.178 440.947 931.464 441.383 928.227C441.875 924.565 442.018 920.82 443.609 917.379L443.63 917.4ZM402.201 975.189C402.026 975.367 401.472 975.145 401.655 975.704C401.829 975.524 402.002 975.343 402.175 975.163L402.201 975.189ZM400.017 979.002C399.84 979.369 399.663 979.735 399.485 980.102C397.816 981.688 396.776 983.757 395.586 985.653C393.537 988.919 391.969 992.482 390.116 995.874C386.328 1002.81 382.498 1009.72 378.645 1016.62C378.347 1017.16 378.07 1017.54 378.597 1018.02C379.151 1018.52 379.701 1018.59 380.22 1017.94C380.445 1017.66 380.699 1017.4 380.941 1017.14L380.921 1017.15C381.006 1015.73 381.6 1014.56 382.655 1013.6C383.463 1012.86 384.028 1011.94 384.571 1010.99C389.103 1003.06 392.809 994.717 396.681 986.464C397.661 984.374 399.442 982.593 399.455 980.076C399.636 979.712 399.817 979.347 399.998 978.983L400.017 979.002ZM404.368 971.338L404.388 971.358C404.202 971.544 404.018 971.73 403.832 971.916C403.651 972.273 403.47 972.63 403.289 972.987C403.232 973.048 403.163 973.103 403.122 973.174C403.092 973.226 403.1 973.299 403.09 973.363C403.149 973.231 403.206 973.099 403.264 972.966C403.446 972.609 403.629 972.252 403.812 971.895C403.997 971.709 404.183 971.524 404.368 971.338V971.338ZM398.397 992.606C396.098 997.59 393.372 1002.33 390.194 1006.81L390.215 1006.79C387.988 1011.77 385.101 1016.39 381.9 1020.75C379.771 1023.66 374.483 1022.73 373.14 1019.36C372.374 1017.44 373.286 1015.69 374.94 1014.42L374.934 1014.43C375.306 1012 376.931 1010.18 378.116 1008.18C383.21 999.604 387.414 990.547 392.315 981.872C395.841 975.629 398.737 969.044 402.448 962.934C405.588 957.766 409.455 953.041 412.997 948.118C413.738 947.087 414.416 946.005 415.212 945.019C417.028 942.768 417.651 940.635 417.192 937.421C416.528 932.772 419.085 928.627 422.805 925.66C426.492 922.718 430.461 920.182 434.893 918.393C439.428 916.562 443.239 913.648 446.317 909.831C447.359 908.537 448.498 907.425 450.101 906.867C452.217 908.854 452.386 909.104 450.593 911.218C446.241 916.351 444.427 922.413 443.632 928.915C442.945 934.533 440.724 939.353 435.459 941.946C431.828 943.735 427.956 945.365 423.69 944.422C421.96 944.04 421.484 945.286 420.788 946.301C417.327 951.351 415.121 957.045 412.504 962.526C410.669 966.368 408.646 970.144 407.143 974.114C405.505 978.441 403.576 982.615 401.514 986.734C400.517 988.725 399.836 990.897 398.365 992.637L398.397 992.606Z" fill="#7C6063" blush:i="0.3.2"/></g></g></svg>