<svg xmlns="http://www.w3.org/2000/svg" version="1.1" viewBox="0 0 1024 1024" width="100%" height="100%">
<path d="M0 0 C5.47 2.82 10.43 6.21 15.31 9.94 C16.19 10.59 17.06 11.25 17.96 11.93 C23.32 16.12 28.13 20.64 32.75 25.62 C33.25 26.16 33.74 26.69 34.25 27.24 C42.31 36.15 42.31 36.15 42.31 39.94 C42.97 39.94 43.63 39.94 44.31 39.94 C45.76 41.89 45.76 41.89 47.44 44.62 C47.75 45.13 47.75 45.13 49.32 47.69 C49.98 48.76 50.64 49.83 51.31 50.94 C51.96 51.95 52.6 52.96 53.27 54 C57.79 61.14 61.7 68.42 65.39 76.02 C66.54 78.4 67.74 80.72 69.02 83.05 C75.51 95.03 79.48 108.09 83.68 121 C84.3 122.89 84.92 124.78 85.54 126.66 C95.58 157.32 100.14 187.84 102.31 219.94 C102.36 220.62 102.41 221.31 102.46 222.01 C103.03 230.16 103.46 238.27 103.38 246.44 C103.37 247.27 103.37 248.11 103.36 248.96 C103.35 250.96 103.33 252.95 103.31 254.94 C103.61 254.93 103.61 254.93 105.1 254.92 C107.81 254.9 110.53 254.89 113.25 254.88 C114.18 254.87 115.1 254.86 116.06 254.85 C121.9 254.83 127.52 255.18 133.31 255.94 C133.29 255.35 133.27 254.76 133.25 254.15 C133.08 245.16 134.09 236.35 135.12 227.44 C135.22 226.64 135.31 225.84 135.4 225.01 C136.74 213.27 138.17 201.57 140.31 189.94 C140.45 189.16 140.59 188.39 140.73 187.59 C143 175.03 146.07 162.78 149.58 150.51 C150.26 148.11 150.93 145.7 151.6 143.3 C153.87 135.18 156.55 127.37 159.8 119.59 C160.78 117.23 161.73 114.86 162.64 112.48 C165.69 104.54 169.13 96.82 172.75 89.12 C172.97 88.65 172.97 88.65 174.09 86.23 C177.24 79.63 181.02 73.84 185.31 67.94 C186.52 66.09 187.71 64.24 188.88 62.38 C189.45 61.47 190.02 60.57 190.61 59.63 C191.17 58.74 191.73 57.85 192.31 56.94 C193.41 55.2 194.51 53.47 195.62 51.75 C196.1 51.01 196.57 50.28 197.05 49.52 C197.47 49 197.88 48.48 198.31 47.94 C198.97 47.94 199.63 47.94 200.31 47.94 C200.56 47.21 200.8 46.49 201.05 45.74 C202.47 42.59 204.14 40.64 206.5 38.12 C207.31 37.26 208.11 36.39 208.94 35.49 C209.72 34.65 210.51 33.81 211.31 32.94 C212.53 31.55 213.74 30.15 214.94 28.75 C216.06 27.48 217.18 26.2 218.31 24.94 C218.57 24.65 218.57 24.65 219.84 23.2 C223.5 19.3 227.58 16.14 231.94 13.06 C232.49 12.67 233.04 12.28 233.61 11.87 C236.8 9.68 239.45 8.38 243.31 7.94 C243.31 7.28 243.31 6.62 243.31 5.94 C253.95 1.98 263.77 1.46 274.31 5.94 C274.31 6.6 274.31 7.26 274.31 7.94 C274.87 8.14 275.43 8.35 276 8.56 C285.62 14.28 288.55 26.93 291.14 37.02 C300.88 77.15 294.93 121.31 285.31 160.94 C285.2 161.41 285.2 161.41 284.62 163.81 C280.31 181.15 273.56 197.7 266.18 213.94 C265.25 216.08 264.43 218.25 263.62 220.44 C260.81 227.6 256.97 234.29 253.32 241.05 C252.48 242.62 251.69 244.22 250.9 245.82 C241.75 263.78 230.62 281.53 217.53 296.88 C216.31 298.94 216.31 298.94 216.5 301.04 C217.75 303.96 219.73 306.12 221.75 308.56 C228.03 316.4 232.7 325.05 237.31 333.94 C237.48 334.27 237.48 334.27 238.35 335.93 C240.92 340.95 243.11 346.08 245.19 351.31 C245.36 351.75 245.36 351.75 246.23 353.94 C258.45 385.03 258.45 385.03 258.31 396.94 C259.4 396.93 260.48 396.92 261.6 396.91 C302.39 396.55 302.39 396.55 322.31 398.94 C322.68 398.98 322.68 398.98 324.57 399.2 C330.52 399.89 335.76 400.69 341.31 402.94 C343.26 403.37 345.22 403.76 347.19 404.12 C386.69 412.32 386.69 412.32 394.31 419.94 C395.84 420.53 397.38 421.06 398.94 421.56 C422.5 429.88 442.83 444.7 462.31 459.94 C463.31 460.71 464.32 461.48 465.35 462.27 C466.26 462.99 467.18 463.7 468.12 464.44 C468.94 465.07 469.75 465.7 470.58 466.34 C471.15 466.87 471.72 467.4 472.31 467.94 C472.31 468.6 472.31 469.26 472.31 469.94 C472.58 470.04 472.58 470.04 473.94 470.56 C477.23 472.47 479.91 474.99 482.31 477.94 C482.31 478.6 482.31 479.26 482.31 479.94 C483.3 480.27 484.29 480.6 485.31 480.94 C486.83 482.61 488.28 484.35 489.69 486.12 C490.44 487.07 491.19 488.01 491.96 488.98 C492.74 489.96 493.51 490.93 494.31 491.94 C495.13 492.92 495.95 493.91 496.8 494.92 C506.54 506.61 514.66 518.7 521.82 532.14 C522.86 534.09 523.93 536.03 525.03 537.95 C534.92 555.54 542.54 577.1 546.31 596.94 C549 597.68 549 597.68 552.31 597.94 C554.91 596.36 554.91 596.36 557.38 594.12 C564.23 588 569.46 587.46 578.55 587.54 C583.68 588.08 587.25 589.85 591.31 592.94 C591.31 593.6 591.31 594.26 591.31 594.94 C591.73 594.86 591.73 594.86 593.87 594.46 C605.31 592.71 614.62 593.25 624.31 599.94 C633.66 607.39 636.69 615.35 638.31 626.94 C638.66 627.02 638.66 627.02 640.44 627.42 C652.72 630.44 659.83 636.09 666.98 646.46 C670.19 652.43 670.65 658.26 670.62 664.88 C670.63 665.25 670.63 665.25 670.67 667.18 C670.68 672.04 669.82 675.68 667.99 680.16 C667.05 682.64 666.76 684.33 667.31 686.94 C669.32 689.04 669.32 689.04 672 691.12 C679.34 697.36 683.61 705.57 684.53 715.27 C685.25 731.03 683.58 744.24 673.31 756.94 C672.32 757.27 671.33 757.6 670.31 757.94 C670.31 758.6 670.31 759.26 670.31 759.94 C668.67 760.63 667.02 761.32 665.38 762 C662.59 763.57 662.59 763.57 660.31 765.94 C659.3 771 659.35 775.88 659.37 781.03 C659.14 789.03 653.53 796.52 648.24 802.14 C638.97 810.86 630.21 813.17 617.75 813.11 C613.9 812.92 610.9 812.3 607.31 810.94 C607.06 811.67 606.81 812.4 606.55 813.16 C602.49 822.25 593.22 827.45 584.31 830.94 C575.22 833.29 564.88 832.87 556.31 828.94 C552.18 826.41 548.93 823.7 545.88 819.94 C545.03 819.28 544.18 818.62 543.31 817.94 C539.38 818.62 539.38 818.62 537.03 819.3 C527.52 821.53 517.96 820.37 509.31 815.94 C508 815.01 506.7 814.06 505.44 813.06 C504.41 812.36 503.38 811.66 502.31 810.94 C498.47 811.95 496.22 813.74 493.44 816.5 C485.12 824.13 474.77 829.79 464.31 833.94 C463.62 834.25 462.93 834.56 462.21 834.88 C446.59 841.69 430 843.92 413.19 845.64 C410.7 845.9 408.22 846.18 405.74 846.49 C381.87 849.44 357.77 850.31 333.75 851 C331.64 851.06 329.54 851.13 327.44 851.19 C298.86 852.04 270.45 852.34 241.88 851.06 C240.98 851.02 240.08 850.98 239.16 850.94 C207.46 849.52 207.46 849.52 197.75 841.94 C194.11 836.88 194.67 829.87 195.31 823.94 C197.68 816.84 202.89 811.87 208.31 806.94 C202.63 804 196.91 801.48 190.94 799.19 C190.53 799.03 190.53 799.03 188.5 798.23 C182.57 795.94 182.57 795.94 180.31 795.94 C178.97 797.85 178.97 797.85 177.38 800.56 C162.64 824.3 144.47 840.52 117.27 847.75 C100.77 851.12 81 850.63 66.4 841.73 C64.31 839.94 64.31 839.94 62.66 836.8 C60.04 833.6 59.66 833.5 55.79 833.09 C53.98 833 52.18 832.93 50.38 832.88 C31.13 831.65 31.13 831.65 24.23 824.9 C18.79 817.88 18.47 811.74 19.31 802.94 C23.16 791.23 32 783.75 42.68 778.18 C43.79 777.63 44.91 777.07 46.06 776.5 C52.24 773.26 55.74 769.89 59.31 763.94 C59.83 763.12 60.35 762.31 60.89 761.47 C68.47 748.18 74.18 725.23 72.31 709.94 C71.04 707.9 69.69 705.9 68.31 703.94 C37.85 660.17 29.28 610.31 38.31 557.94 C38.93 554.92 39.61 551.93 40.31 548.94 C39.98 548.88 39.98 548.88 38.3 548.57 C20.59 545.25 5.87 538.33 -8.69 527.94 C-9.59 527.31 -10.48 526.68 -11.41 526.03 C-13.22 524.73 -14.96 523.35 -16.69 521.94 C-16.69 521.28 -16.69 520.62 -16.69 519.94 C-16.97 519.82 -16.97 519.82 -18.42 519.22 C-26.18 514.84 -32.03 505.35 -36.69 497.94 C-37.36 496.87 -38.03 495.81 -38.72 494.71 C-50.01 475.82 -53.02 452.41 -47.66 431.1 C-44.58 421.07 -40.16 409.99 -33.03 402.11 C-27.1 395.4 -25.59 388.18 -23.94 379.62 C-23.66 378.27 -23.38 376.92 -23.1 375.57 C-22.68 373.58 -22.27 371.59 -21.86 369.6 C-19.95 360.23 -17.73 351.18 -14.12 342.31 C-13.78 341.46 -13.44 340.61 -13.08 339.74 C-6.95 325.03 0.93 312.01 11.31 299.94 C12.17 298.94 13.02 297.95 13.9 296.92 C19.7 290.35 19.7 290.35 23.31 287.94 C22.68 285.01 21.73 282.58 20.31 279.94 C19.65 279.94 18.99 279.94 18.31 279.94 C16.82 278.03 15.47 276.13 14.12 274.12 C13.72 273.53 13.32 272.93 12.9 272.32 C11.7 270.53 10.5 268.74 9.31 266.94 C9.02 266.5 9.02 266.5 7.55 264.29 C-3.9 246.68 -15.49 227.73 -22.69 207.94 C-23.37 206.29 -24.06 204.65 -24.75 203 C-26.51 198.64 -27.76 194.24 -28.88 189.68 C-29.69 186.94 -29.69 186.94 -31.15 183.61 C-32.78 179.71 -33.81 175.92 -34.75 171.81 C-36.46 164.48 -36.46 164.48 -37.67 161.64 C-38.88 158.44 -39.4 155.37 -39.94 151.99 C-40.05 151.34 -40.15 150.69 -40.26 150.02 C-40.6 147.95 -40.92 145.88 -41.25 143.81 C-41.58 141.74 -41.91 139.66 -42.25 137.59 C-42.55 135.71 -42.85 133.83 -43.15 131.95 C-43.69 128.94 -43.69 128.94 -44.69 125.94 C-48.83 90.77 -53.63 41.31 -34.69 9.94 C-25.19 -0.78 -13.92 -5.99 0 0 Z " fill="#F2E3C2" transform="translate(240.6875,87.0625)" />
<path d="M0 0 C3.31 1.75 3.31 1.75 5.88 3.94 C8.9 6.19 10.62 6.17 14.31 5.75 C14.64 5.42 14.97 5.09 15.31 4.75 C24.36 3.75 31.32 5.8 39.06 10.38 C45.56 17.23 48.49 24.2 48.38 33.56 C48.37 34.54 48.36 35.51 48.35 36.52 C48.34 36.89 48.34 36.89 48.31 38.75 C48.99 38.69 49.67 38.63 50.37 38.57 C60.01 38.11 66.54 40.95 73.69 47.38 C80.09 54.3 82.04 62.55 81.7 71.82 C80.74 79.07 77.44 84.86 73.31 90.75 C73.31 91.41 73.31 92.07 73.31 92.75 C74.8 93.69 76.33 94.55 77.88 95.38 C86.18 100.22 91.35 106.58 94.31 115.75 C94.82 119.27 94.83 122.7 94.75 126.25 C94.76 127.14 94.76 128.02 94.77 128.93 C94.67 139.56 90.97 149.31 83.91 157.35 C80.05 160.85 73.69 164.75 68.31 164.75 C68.64 165.49 68.97 166.24 69.31 167 C71.53 175.3 71.16 184 67.31 191.75 C62.31 200.37 57.1 205.96 47.31 208.75 C37.66 209.95 30.05 207.75 21.31 203.75 C21.2 204.66 21.09 205.57 20.98 206.5 C19.64 213.04 14.47 218.32 9.34 222.43 C1.68 227.41 -6.7 228.91 -15.69 227.75 C-24.7 225.66 -30.63 220.33 -35.69 212.75 C-36.02 212.09 -36.35 211.43 -36.69 210.75 C-39.46 211.84 -42.06 212.95 -44.69 214.38 C-51.14 217.15 -58.91 216.57 -65.5 214.62 C-74.23 209.49 -80.37 204.56 -83.16 194.53 C-84.03 189.94 -83.93 185.41 -83.69 180.75 C-84.24 180.72 -84.8 180.7 -85.38 180.67 C-92.06 180.18 -97.68 178.88 -102.45 173.92 C-106.87 168.32 -109.14 163.18 -108.95 155.9 C-108.24 150.03 -105.99 144.63 -102.69 139.75 C-103.53 139.25 -104.38 138.76 -105.25 138.25 C-112.4 133.45 -117.23 126.82 -119.24 118.46 C-120.82 108.92 -120.48 99.29 -115.69 90.75 C-111.45 85 -107.39 80.51 -100.69 77.75 C-99.37 77.75 -98.05 77.75 -96.69 77.75 C-96.98 77.11 -97.26 76.46 -97.56 75.8 C-100.94 67.58 -102.81 58.42 -99.5 49.81 C-95.14 42.44 -89.92 37.49 -81.69 34.75 C-79.96 34.68 -78.23 34.67 -76.5 34.69 C-75.6 34.7 -74.7 34.71 -73.77 34.71 C-73.08 34.73 -72.4 34.74 -71.69 34.75 C-71.61 34.06 -71.54 33.37 -71.46 32.66 C-70.24 23.96 -67.33 17.28 -60.25 11.81 C-53.94 7.82 -47.01 6.82 -39.69 7.75 C-36.97 8.64 -34.41 9.67 -31.82 10.88 C-29.69 11.75 -29.69 11.75 -26.69 11.75 C-25.78 10.33 -24.87 8.92 -23.99 7.48 C-18.01 -0.45 -9.31 -3.15 0 0 Z " fill="#FEFEFD" transform="translate(822.6875,683.25)" />
<path d="M0 0 C6.26 2.89 9.41 7.95 11.87 14.2 C13.98 20.8 14.51 26.85 14.44 33.75 C14.43 34.87 14.42 35.99 14.41 37.15 C13.85 65.36 8.38 94.11 -3 120 C-3.54 121.29 -4.07 122.57 -4.6 123.86 C-8.08 132.05 -11.95 139.98 -16.06 147.88 C-16.56 148.83 -17.05 149.78 -17.56 150.76 C-22.15 159.46 -27.13 167.89 -32.62 176.06 C-33.05 176.69 -33.47 177.32 -33.9 177.96 C-42.75 191.08 -51.96 203.77 -62 216 C-66.42 215.38 -70.43 214.33 -74.62 212.81 C-75.73 212.43 -76.84 212.04 -77.98 211.64 C-81.74 209.6 -83.09 207.82 -85 204 C-85.46 200.79 -85.46 200.79 -85.38 197.06 C-85.36 196.35 -85.34 195.64 -85.33 194.9 C-85.25 192.27 -85.13 189.63 -85 187 C-84.95 185.89 -84.9 184.79 -84.85 183.65 C-83.53 155.6 -80.03 128.24 -73 101 C-72.9 100.62 -72.9 100.62 -72.42 98.69 C-65.28 70.74 -53.63 43.91 -36 21 C-35.33 20.12 -34.65 19.25 -33.96 18.34 C-31 14.8 -27.52 11.97 -24 9 C-23.22 8.3 -22.43 7.6 -21.62 6.88 C-15.02 2.16 -8.31 -1.68 0 0 Z " fill="#F5B0B5" transform="translate(491,159)" />
<path d="M0 0 C13.06 12.16 22.74 27.66 29.31 44.19 C29.67 45.04 30.04 45.89 30.41 46.77 C34.97 57.94 38.06 69.59 41.31 81.19 C41.6 82.19 41.88 83.18 42.17 84.21 C42.44 85.18 42.71 86.14 42.99 87.14 C43.23 88 43.47 88.86 43.72 89.74 C44.45 92.76 44.8 95.73 45 98.82 C45.37 101.61 46.09 104.27 46.79 106.99 C52.87 132.66 54.15 161.9 53.31 188.19 C50.25 189.51 47.19 190.82 44.12 192.12 C43.26 192.5 42.4 192.87 41.51 193.26 C40.66 193.61 39.82 193.97 38.96 194.34 C38.19 194.67 37.42 195 36.62 195.34 C34.2 196.23 31.85 196.75 29.31 197.19 C-9.4 148.35 -39.67 83.4 -33.45 19.74 C-32.12 9.51 -29.99 0.04 -21.69 -6.81 C-14.13 -10.34 -5.54 -4.92 0 0 Z " fill="#F5B0B4" transform="translate(255.6875,161.8125)" />
<path d="M0 0 C2.12 1.19 4.09 2.41 6.02 3.88 C6.02 4.54 6.02 5.2 6.02 5.88 C6.86 5.72 7.71 5.57 8.57 5.41 C20.02 3.65 29.32 4.19 39.02 10.88 C48.36 18.34 51.4 26.29 53.02 37.88 C53.72 38.04 54.42 38.2 55.14 38.36 C67.42 41.38 74.54 47.03 81.69 57.4 C84.9 63.37 85.36 69.2 85.33 75.82 C85.35 76.58 85.36 77.34 85.38 78.12 C85.39 82.98 84.53 86.62 82.69 91.1 C81.75 93.58 81.47 95.28 82.02 97.88 C84.03 99.98 84.03 99.98 86.71 102.07 C94.04 108.3 98.32 116.51 99.24 126.21 C99.96 141.98 98.29 155.18 88.02 167.88 C87.03 168.21 86.04 168.54 85.02 168.88 C85.02 169.54 85.02 170.2 85.02 170.88 C83.38 171.57 81.73 172.26 80.08 172.94 C77.3 174.52 77.3 174.52 75.02 176.88 C74 181.94 74.06 186.82 74.07 191.97 C73.85 199.97 68.24 207.46 62.95 213.09 C53.68 221.81 44.92 224.11 32.46 224.05 C28.6 223.86 25.61 223.25 22.02 221.88 C21.77 222.61 21.52 223.35 21.26 224.1 C17.19 233.19 7.93 238.39 -0.98 241.88 C-10.07 244.23 -20.41 243.81 -28.98 239.88 C-33.11 237.35 -36.36 234.64 -39.42 230.88 C-40.26 230.22 -41.11 229.56 -41.98 228.88 C-45.92 229.57 -45.92 229.57 -48.27 230.24 C-57.73 232.46 -67.4 231.39 -75.98 226.88 C-85.41 220.76 -90.54 213.57 -93.98 202.88 C-94.33 200.04 -94.26 197.74 -93.98 194.88 C-94.83 194.8 -95.67 194.71 -96.54 194.63 C-104.31 192.93 -110.18 188.07 -114.98 181.88 C-120.04 172.78 -121.18 166.09 -118.54 156.07 C-117.74 153.32 -116.89 150.6 -115.98 147.88 C-116.97 147.55 -117.96 147.22 -118.98 146.88 C-129.2 134.98 -131.85 124.31 -130.98 108.88 C-129.77 101.84 -126.67 95.92 -122.98 89.88 C-122.32 89.88 -121.66 89.88 -120.98 89.88 C-120.65 88.89 -120.32 87.9 -119.98 86.88 C-118.2 85.27 -118.2 85.27 -116.04 83.69 C-115.33 83.16 -114.62 82.63 -113.89 82.09 C-111.98 80.88 -111.98 80.88 -109.98 80.88 C-110.3 80.04 -110.62 79.2 -110.96 78.33 C-113.49 69.79 -113.07 60.1 -109.23 52.02 C-104.42 43.8 -97.02 37.96 -87.98 34.88 C-85.65 34.8 -83.31 34.79 -80.98 34.88 C-80.94 33.91 -80.9 32.94 -80.86 31.94 C-79.71 24.21 -73.96 18.44 -68.3 13.48 C-61.85 9.02 -56.78 7.27 -48.92 7.57 C-48.54 7.57 -48.54 7.57 -46.6 7.6 C-43 7.67 -39.79 7.92 -36.24 8.64 C-32.98 8.88 -32.98 8.88 -30.29 7.3 C-29.48 6.56 -28.68 5.82 -27.86 5.07 C-20.12 -1.92 -10.01 -3.77 0 0 Z M-27.85 15.29 C-28.98 16.88 -28.98 16.88 -29.98 18.88 C-33.11 18.39 -35.78 17.56 -38.67 16.32 C-45.53 13.69 -52.47 14.05 -59.18 16.98 C-65.78 20.27 -69.76 24.25 -72.98 30.88 C-73.97 34.52 -74.57 38.13 -74.98 41.88 C-75.61 41.83 -76.24 41.79 -76.89 41.74 C-85.09 41.39 -89.65 43.51 -96.23 48.19 C-101.69 53.52 -104.12 59.25 -104.29 66.88 C-104.27 73.54 -102.69 78.84 -99.98 84.88 C-100.85 84.96 -101.71 85.04 -102.61 85.13 C-109.88 86.75 -114.84 91.93 -118.98 97.88 C-124.08 107.34 -124.53 118.09 -121.73 128.38 C-119.26 135.36 -115.38 139.68 -109.79 144.36 C-107.98 145.88 -107.98 145.88 -105.98 147.88 C-106.33 148.4 -106.68 148.92 -107.04 149.45 C-111.23 155.88 -112.77 161.09 -111.98 168.88 C-110.5 175.1 -107.59 180.41 -102.2 184.1 C-97.27 186.83 -92.57 187.62 -86.98 187.88 C-87.02 188.56 -87.05 189.24 -87.09 189.93 C-87.34 198.73 -86.52 206.21 -80.79 213.19 C-74.37 219.92 -68.1 222.96 -58.86 223.25 C-52.89 223.25 -49.1 221.96 -44.1 218.78 C-41.98 217.88 -41.98 217.88 -39.78 218.59 C-37.98 219.88 -37.98 219.88 -36.73 222.07 C-33.17 227.78 -27.71 232.41 -21.23 234.44 C-12.32 236.17 -4.03 235.09 4.02 230.88 C10.07 226.71 16.2 221.08 17.65 213.66 C17.77 212.74 17.89 211.83 18.02 210.88 C18.81 211.24 19.59 211.6 20.41 211.97 C29.14 215.69 37.3 217.84 46.66 215.11 C56.71 210.93 62.33 203.32 66.46 193.44 C67.6 186.2 68.06 178.71 65.02 171.88 C65.6 171.71 66.18 171.54 66.78 171.36 C76.62 168.31 82.11 163.61 87.25 154.76 C92.65 144.44 93.03 130.27 90 119.11 C85.92 110.32 79 103.56 70.02 99.88 C71.12 96.85 72.39 94.24 74.02 91.44 C78.52 83.58 79.22 75.85 77.44 66.97 C74.91 58.74 69.97 53.13 62.82 48.43 C57.01 45.45 51.44 45.45 45.02 45.88 C45.05 45.19 45.09 44.5 45.12 43.79 C45.38 35.07 44.08 27.58 38.68 20.52 C32.61 14.52 25.71 11.73 17.33 11.75 C16.36 11.75 15.39 11.75 14.38 11.75 C12.02 11.88 12.02 11.88 11.02 12.88 C7.33 13.3 5.61 13.32 2.58 11.07 C2.16 10.71 2.16 10.71 0.02 8.88 C-11.17 2.97 -20.23 5.79 -27.85 15.29 Z " fill="#DFCDAD" transform="translate(825.98046875,676.12109375)" />
<path d="M0 0 C3.8 1.51 5.57 3.69 8.04 6.9 C12.67 12.71 17.68 17.96 22.97 23.17 C24.47 24.65 25.96 26.14 27.44 27.63 C34.7 34.85 34.7 34.85 37 36 C37.54 50.35 32.65 64.38 23.11 75.12 C18.54 79.58 13.45 82.5 7.88 85.5 C1.69 88.83 -3.11 91.98 -7 98 C-7.4 98.59 -7.81 99.18 -8.22 99.79 C-11.87 105.94 -12.25 113.01 -13 120 C-37.45 121.13 -37.45 121.13 -47 115 C-52.1 109.99 -54.17 105.6 -54.38 98.5 C-54.32 89.16 -51.03 82.95 -45 76 C-39.53 71.35 -33.66 67.75 -27.25 64.56 C-21.07 61.32 -17.57 57.95 -14 52 C-13.74 51.59 -13.74 51.59 -12.43 49.53 C-4.09 34.92 -2.49 16.4 0 0 Z " fill="#E1CBA5" transform="translate(314,799)" />
<path d="M0 0 C0.33 0.66 0.66 1.32 1 2 C0.4 2.24 0.4 2.24 -2.66 3.43 C-17.82 9.5 -30.21 16.54 -42 28 C-42.67 28.61 -43.35 29.22 -44.04 29.85 C-64.67 49.17 -74.47 77.36 -75.39 105.07 C-75.82 130.42 -68.01 157.69 -51.35 177.27 C-50 179 -50 179 -49 182 C-50.09 182.04 -51.17 182.09 -52.29 182.14 C-56.42 182.31 -60.55 182.5 -64.67 182.69 C-66.44 182.77 -68.21 182.85 -69.98 182.92 C-87.55 183.64 -104.1 186.09 -121 191 C-121.47 191.13 -121.47 191.13 -123.84 191.78 C-127.97 192.95 -131.75 194.31 -135.62 196.19 C-140.56 198.45 -144.74 199.09 -150.05 197.32 C-151.73 196.61 -153.37 195.81 -155 195 C-155 194.34 -155 193.68 -155 193 C-130.6 175.47 -101.14 172.51 -72 171 C-72.41 170.27 -72.83 169.54 -73.25 168.78 C-88.12 140.9 -94.3 108.32 -85.27 77.5 C-75.6 47.49 -56.29 24.68 -28.38 9.88 C-19.43 5.54 -9.66 2.34 0 0 Z " fill="#DFCBA4" transform="translate(594,694)" />
<path d="M0 0 C3.97 3.25 6.64 5.78 7.35 11.06 C7.45 18.46 6.43 23.54 1.57 29.23 C-6.71 37.22 -17.05 38.26 -28.06 38.23 C-37.51 37.86 -45.29 35.22 -52.14 28.41 C-56.21 23.24 -57.43 18.71 -57.32 12.18 C-56.64 6.82 -54.01 3.34 -50.04 -0.18 C-35.58 -10.74 -14.41 -10.53 0 0 Z " fill="#E48584" transform="translate(428.98828125,517.453125)" />
<path d="M0 0 C3.98 4.02 7.12 7.31 7.31 13.12 C7.21 19.22 5.34 23.52 1.16 27.95 C-9.35 37.56 -20.09 37.69 -33.68 37.17 C-42.01 36.55 -48.51 32.1 -54 26 C-58.09 20.36 -57.97 14.73 -57 8 C-54.11 0.99 -47.65 -2.92 -41 -6 C-27.7 -11.02 -11.11 -8.92 0 0 Z " fill="#E38585" transform="translate(269,518)" />
<path d="M0 0 C0.33 0 0.66 0 1 0 C1.05 3.87 1.09 7.75 1.11 11.62 C1.12 13.57 1.15 15.51 1.18 17.46 C1.24 29.73 -0.09 41.4 -3.75 53.12 C-4.01 53.97 -4.27 54.82 -4.54 55.69 C-9.12 70.08 -9.12 70.08 -13 75 C-15.95 76.14 -17.44 76.18 -20.46 75.22 C-21.23 74.84 -22.01 74.46 -22.81 74.06 C-23.6 73.68 -24.39 73.3 -25.21 72.91 C-25.8 72.61 -26.39 72.31 -27 72 C-25.83 67.96 -24.26 64.55 -22.08 60.96 C-10.7 42.13 -5.02 21.25 0 0 Z " fill="#DFCAA3" transform="translate(449,810)" />
<path d="M0 0 C4.57 2.88 7.96 5.98 10.3 10.86 C10.05 13.24 10.05 13.24 9.3 14.86 C5.18 14.35 3.39 13.33 0.55 10.36 C-3.04 7.09 -5.67 5.77 -10.54 5.6 C-15.85 6.25 -19.27 9.13 -22.64 13.11 C-23.32 14.02 -24 14.93 -24.7 15.86 C-26.02 15.53 -27.34 15.2 -28.7 14.86 C-28.96 11.9 -28.97 10.3 -27.38 7.73 C-19.97 -0.45 -11.02 -4.63 0 0 Z " fill="#62523E" transform="translate(257.703125,459.13671875)" />
<path d="M0 0 C4.18 2.62 7.62 5.74 10.19 10 C10.38 12.76 10.38 12.76 10.19 15 C9.86 15.17 9.86 15.17 8.19 16 C4.1 14.01 1.37 11.19 -1.81 8 C-5.35 5.52 -8.57 5.56 -12.81 6 C-17.65 8.51 -20.54 11.77 -23.81 16 C-25.13 15.67 -26.45 15.34 -27.81 15 C-27.71 10.09 -26.98 7.73 -23.5 4.19 C-16.68 -2.28 -8.88 -2.33 0 0 Z " fill="#62523F" transform="translate(407.8125,459)" />
<path d="M0 0 C3.26 0.23 4.11 1.11 6.38 3.56 C9 6 9 6 12.06 6.5 C15.27 5.95 16.47 4.94 19 3 C22.07 3.28 23.36 4.24 26 6 C28.81 6.5 28.81 6.5 32 6 C33.7 4.52 35.1 2.97 36.51 1.21 C37 0.81 37.49 0.41 38 0 C40.18 0.32 40.18 0.32 42 1 C41.92 3.86 41.43 5.55 39.45 7.63 C33.03 13.14 33.03 13.14 28 13.19 C27.65 13.19 27.65 13.19 25.88 13.23 C24 13 24 13 22 11 C19.74 11.35 18.05 11.98 16 13 C10.81 13.63 7.92 13.38 3.56 10.38 C0.79 8.09 0.07 7.22 -1.06 3.69 C-1 1 -1 1 0 0 Z " fill="#675642" transform="translate(302,521)" />
<path d="M0 0 C0.56 0 0.56 0 3.38 0 C6.68 0.47 8.11 1.08 10.44 3.44 C11.11 7.31 10.76 8.93 8.62 12.25 C5.48 15.39 2.78 15.63 -1.5 15.75 C-4.83 15.7 -6.24 15.64 -9.12 13.88 C-11.07 10.58 -11.63 8.27 -11.56 4.44 C-7.9 0.6 -5.22 -0.09 0 0 Z " fill="#DE979F" transform="translate(322.5625,499.5625)" />
<path d="M0 0 C3.79 3.04 8.42 7.31 9.06 12.35 C9.26 18.28 8.36 22.62 4.82 27.46 C-1.96 34.66 -8.92 38.36 -18.83 38.67 C-20.59 38.69 -22.35 38.7 -24.11 38.71 C-24.99 38.74 -25.88 38.76 -26.78 38.78 C-32.04 38.81 -35.59 38.34 -40.18 35.46 C-36.43 34.34 -36.43 34.34 -34.18 35.46 C-32.29 35.55 -30.4 35.57 -28.51 35.56 C-27.39 35.56 -26.27 35.56 -25.11 35.55 C-24.53 35.55 -24.53 35.55 -21.55 35.53 C-20.37 35.52 -19.18 35.52 -17.96 35.51 C-15.04 35.5 -12.11 35.49 -9.18 35.46 C-9.18 34.8 -9.18 34.14 -9.18 33.46 C-7.53 33.46 -5.88 33.46 -4.18 33.46 C-4.18 32.8 -4.18 32.14 -4.18 31.46 C-3.57 31.21 -2.97 30.95 -2.34 30.69 C1.83 28.33 4.04 23.92 5.47 19.44 C6.4 14.25 5.37 9.97 2.82 5.46 C0.46 3.18 -1.04 2.51 -4.18 1.46 C-4.84 0.8 -5.5 0.14 -6.18 -0.54 C-6.84 -0.54 -7.5 -0.54 -8.18 -0.54 C-8.18 -1.2 -8.18 -1.86 -8.18 -2.54 C-18.78 -4.09 -28.48 -4.79 -39.18 -3.54 C-27.29 -10.14 -10.92 -7.29 0 0 Z " fill="#D48F84" transform="translate(267.17578125,516.53515625)" />
<path d="M0 0 C7.87 1.76 15.1 5.76 20.58 11.69 C23.53 16.36 23.17 21.35 22.58 26.69 C20.52 33.9 15.74 38.27 9.42 41.95 C0.28 46.09 -12.85 46.85 -22.54 44.08 C-26.09 42.69 -29.3 40.86 -32.42 38.69 C-30.73 38 -30.73 38 -28.42 37.69 C-26.75 38.68 -25.08 39.68 -23.42 40.69 C-20.82 41.26 -18.41 41.7 -15.79 42 C-15.09 42.08 -14.38 42.17 -13.66 42.25 C-6.7 42.96 -0.31 42.29 6.2 39.61 C8.58 38.69 8.58 38.69 11.58 38.69 C11.58 38.03 11.58 37.37 11.58 36.69 C12.53 35.92 13.48 35.16 14.46 34.38 C17.36 32.01 18.75 30.45 19.58 26.69 C20.01 21.13 20.13 15.78 17.58 10.69 C15.58 9.38 15.58 9.38 13.58 8.69 C12.92 8.36 12.26 8.03 11.58 7.69 C11.58 7.03 11.58 6.37 11.58 5.69 C10.92 5.56 10.26 5.44 9.58 5.31 C7.37 4.85 5.17 4.29 2.99 3.69 C-1.64 2.52 -6.17 2.25 -10.92 2.06 C-11.74 2.02 -12.56 1.99 -13.41 1.95 C-15.41 1.85 -17.42 1.77 -19.42 1.69 C-13.95 -1.96 -6.36 -0.82 0 0 Z " fill="#D48E83" transform="translate(413.41796875,510.3125)" />
<path d="M0 0 C2.69 0.18 5.33 0.62 8 1 C7.67 1.66 7.34 2.32 7 3 C5.14 3.27 5.14 3.27 2.81 3.38 C-3.34 3.95 -6.94 6.6 -10.88 11.25 C-11.58 12.16 -12.28 13.06 -13 14 C-14.32 13.67 -15.64 13.34 -17 13 C-16.76 6.95 -16.76 6.95 -14.74 4.42 C-10.81 0.98 -8.37 0.94 -3.31 1.06 C-1 1 -1 1 0 0 Z " fill="#5D4D39" transform="translate(397,461)" />
<path d="M0 0 C1.13 0.01 2.25 0.03 3.41 0.04 C6.38 0.38 6.38 0.38 9.38 2.38 C9.05 3.37 8.71 4.36 8.38 5.38 C8.38 4.71 8.38 4.06 8.38 3.38 C-2.75 1.75 -2.75 1.75 -7.62 4.38 C-8.75 6.87 -8.62 8.61 -8.62 11.38 C0.18 13.95 0.18 13.95 4.88 11.69 C7.38 9.38 7.38 9.38 9.38 6.38 C9.14 9.86 9 11.77 6.44 14.25 C2.04 15.87 -1.99 16.06 -6.62 15.38 C-10.09 13.26 -10.51 11.76 -11.69 7.88 C-11.62 4.38 -11.62 4.38 -9.54 2.18 C-6.06 0.02 -4.06 -0.1 0 0 Z " fill="#D49D97" transform="translate(322.625,499.625)" />
<path d="M0 0 C-1.52 4.25 -4.34 5.59 -8 8 C-11.08 10.94 -12.25 13.02 -12.39 17.21 C-12.36 18.74 -12.32 20.28 -12.25 21.81 C-12.23 22.6 -12.21 23.39 -12.2 24.2 C-12.15 26.13 -12.08 28.07 -12 30 C-14.76 27.48 -15.8 25.58 -16.27 21.8 C-16.5 16.25 -15.94 12.41 -12.7 7.83 C-9.59 4.48 -4.78 0 0 0 Z " fill="#D58F84" transform="translate(388,513)" />
<path d="M0 0 C0 0.66 0 1.32 0 2 C-0.56 2.23 -1.11 2.45 -1.69 2.69 C-4 4 -4 4 -6.5 6.5 C-9 9 -9 9 -13 11 C-13 16.28 -13 21.56 -13 27 C-13.99 26.67 -14.98 26.34 -16 26 C-17.03 13.46 -17.03 13.46 -13.5 8.5 C-10.23 4.82 -5.19 0 0 0 Z " fill="#D68D84" transform="translate(228,513)" />
<path d="M0 0 C0.33 0 0.66 0 1 0 C1.29 4.7 1.37 8.64 -0.56 13 C-2.21 16.87 -1.98 19.71 -1.33 23.81 C-0.86 26.9 -0.93 29.88 -1 33 C-5.26 26.6 -4.61 18.43 -4 11 C-2.98 7.17 -1.65 3.6 0 0 Z " fill="#FBF6E3" transform="translate(707,774)" />
<path d="M0 0 C0 0.33 0 0.66 0 1 C-0.6 1.01 -1.21 1.03 -1.83 1.04 C-8.42 1.44 -8.42 1.44 -11.31 4.25 C-11.87 5.16 -12.43 6.06 -13 7 C-13.68 7.74 -14.36 8.49 -15.06 9.25 C-17.64 12.91 -18.77 16.73 -20 21 C-20.33 21 -20.66 21 -21 21 C-20.45 13.36 -18.5 7.94 -13.5 2.06 C-8.87 -1.76 -5.82 -1.01 0 0 Z " fill="#EBB9B0" transform="translate(245,155)" />
<path d="M0 0 C0.66 0.33 1.32 0.66 2 1 C1.23 1.69 0.45 2.38 -0.34 3.09 C-5.99 8.17 -11.35 13.28 -16.31 19.05 C-18.43 21.49 -20.68 23.75 -23 26 C-19.77 16.82 -12.44 9.98 -5 4 C-4.01 3.2 -3.02 2.39 -2 1.56 C-1.34 1.05 -0.68 0.53 0 0 Z " fill="#EBB8B0" transform="translate(472,164)" />
<path d="M0 0 C1.13 -0.03 2.27 -0.05 3.43 -0.08 C6.8 0.28 8.12 0.97 10.56 3.25 C6.95 4.43 3.77 4.22 0 3.94 C-1.14 3.86 -2.27 3.78 -3.44 3.7 C-6.44 3.25 -6.44 3.25 -9.44 1.25 C-6.12 0.14 -3.49 0.05 0 0 Z " fill="#6B5B46" transform="translate(248.4375,457.75)" />
<path d="M0 0 C0 0.33 0 0.66 0 1 C-0.99 1.06 -1.98 1.12 -3 1.19 C-10.61 2.29 -16.5 8 -22 13 C-20.6 7.73 -17.26 5.08 -13 2 C-8.69 -0.43 -4.84 -0.16 0 0 Z " fill="#F9F3E4" transform="translate(819,682)" />
<path d="M0 0 C0.66 0.33 1.32 0.66 2 1 C-2.49 5.8 -2.49 5.8 -6.37 6.32 C-9.06 6.27 -11.7 6.08 -14.38 5.81 C-15.3 5.74 -16.23 5.67 -17.18 5.6 C-19.46 5.42 -21.73 5.22 -24 5 C-24 4.67 -24 4.34 -24 4 C-22.94 3.96 -21.88 3.93 -20.78 3.89 C-13.25 3.56 -6.98 3.07 0 0 Z " fill="#F5CCB5" transform="translate(422,551)" />
<path d="M0 0 C7.13 -0.35 12.47 0.04 19 3 C15.73 4.09 13.63 3.74 10.27 3.26 C6.52 2.83 2.77 2.92 -1 3 C-0.67 2.01 -0.34 1.02 0 0 Z " fill="#F9F2DE" transform="translate(838,688)" />
<path d="M0 0 C0.99 0.33 1.98 0.66 3 1 C1.76 2.46 0.53 3.93 -0.71 5.39 C-1.89 6.87 -2.95 8.43 -4 10 C-8.75 9.25 -8.75 9.25 -11 7 C-10.07 6.73 -9.14 6.46 -8.19 6.19 C-5.17 5.06 -4.08 4.29 -2 2 C-1.34 2 -0.68 2 0 2 C0 1.34 0 0.68 0 0 Z " fill="#DDD0B7" transform="translate(800,686)" />
<path d="M0 0 C0.58 0.25 1.15 0.5 1.75 0.75 C1.54 2.64 1.54 2.64 0.75 4.75 C-1.32 5.8 -1.32 5.8 -3.81 6.5 C-4.23 6.62 -4.23 6.62 -6.32 7.23 C-6.64 7.32 -6.64 7.32 -8.25 7.75 C-4.33 -0.48 -4.33 -0.48 0 0 Z " fill="#685843" transform="translate(342.25,521.25)" />
<path d="M0 0 C0.66 0.33 1.32 0.66 2 1 C-0.6 3.46 -3.21 5.92 -5.81 8.38 C-6.55 9.07 -7.29 9.77 -8.05 10.49 C-8.76 11.16 -9.47 11.83 -10.21 12.52 C-10.53 12.83 -10.53 12.83 -12.19 14.4 C-14 16 -14 16 -17 18 C-15.4 14.03 -12.63 11.37 -9.62 8.44 C-9.14 7.96 -8.66 7.47 -8.16 6.98 C-5.58 4.43 -2.97 2.09 0 0 Z " fill="#EEE7D2" transform="translate(470,102)" />
<path d="M0 0 C0.66 0.33 1.32 0.66 2 1 C-1.1 7.59 -3.97 13.68 -9 19 C-9.33 18.01 -9.66 17.02 -10 16 C-9.34 16 -8.68 16 -8 16 C-7.73 15.29 -7.47 14.59 -7.2 13.86 C-5.94 10.84 -4.46 8.05 -2.88 5.19 C-2.34 4.21 -1.8 3.24 -1.24 2.23 C-0.83 1.49 -0.42 0.76 0 0 Z " fill="#FBF6E8" transform="translate(304,840)" />
<path d="M0 0 C1.05 0.16 2.1 0.32 3.19 0.48 C6.07 1.27 7.17 1.94 9 4.25 C8.5 4.1 8 3.94 7.48 3.79 C4.1 3.06 0.7 2.89 -2.75 2.69 C-3.45 2.64 -4.14 2.6 -4.86 2.56 C-6.58 2.45 -8.29 2.35 -10 2.25 C-7.9 -1.95 -3.94 -0.64 0 0 Z " fill="#FDF9E9" transform="translate(818,672.75)" />
<path d="M0 0 C0.33 0 0.66 0 1 0 C1.53 1.79 2.05 3.58 2.56 5.38 C2.85 6.37 3.14 7.37 3.44 8.4 C4 11 4 11 3 13 C3.66 13 4.32 13 5 13 C5.33 16.3 5.66 19.6 6 23 C3.31 20.31 2.8 17.33 1.88 13.75 C1.78 13.42 1.78 13.42 1.32 11.76 C0.26 7.75 -0.19 4.14 0 0 Z " fill="#EFE9D3" transform="translate(192,549)" />
<path d="M0 0 C3.73 0.5 5.81 0.87 9 3 C11.32 3.71 13.65 4.38 16 5 C16 5.66 16 6.32 16 7 C9.97 6.52 5.23 3.8 0 1 C0 0.67 0 0.34 0 0 Z " fill="#D79388" transform="translate(381,548)" />
<path d="M0 0 C1.3 0.19 2.6 0.37 3.94 0.56 C4.95 0.71 5.96 0.85 7 1 C7 1.33 7 1.66 7 2 C-1.72 2.16 -10.31 1.66 -19 1 C-19 0.67 -19 0.34 -19 0 C-12.48 -0.7 -6.49 -1.27 0 0 Z " fill="#F1EAD7" transform="translate(482,936)" />
<path d="M0 0 C0.33 0.66 0.66 1.32 1 2 C-0.22 3.76 -1.45 5.5 -2.69 7.25 C-3.37 8.22 -4.06 9.2 -4.76 10.2 C-6.96 12.95 -9.18 14.93 -12 17 C-10.25 12.95 -7.58 9.69 -4.88 6.25 C-4.41 5.65 -3.94 5.05 -3.46 4.43 C-2.31 2.95 -1.15 1.47 0 0 Z " fill="#F9DBC5" transform="translate(443,356)" />
<path d="M0 0 C-0.59 0.31 -1.18 0.63 -1.79 0.95 C-7.07 3.81 -11.73 6.73 -16 11 C-15.94 8.81 -15.94 8.81 -15 6 C-12.86 4.02 -10.49 2.51 -8 1 C-7.28 0.55 -6.56 0.09 -5.81 -0.38 C-3.52 -1.16 -2.29 -0.65 0 0 Z " fill="#FBD8BF" transform="translate(390,512)" />
<path d="M0 0 C0.66 0.66 1.32 1.32 2 2 C1.81 2.57 1.61 3.14 1.41 3.72 C-0.18 8.45 -1.67 13.19 -3 18 C-3.33 18 -3.66 18 -4 18 C-3.49 11.56 -2.27 6.04 0 0 Z " fill="#EDB9B1" transform="translate(421,251)" />
<path d="M0 0 C2 2 2 2 2 5 C0.51 5.5 0.51 5.5 -7 8 C-7 7.01 -7 6.02 -7 5 C-2.78 2 -2.78 2 0 2 C0 1.34 0 0.68 0 0 Z " fill="#DFD3B8" transform="translate(724,756)" />
<path d="M0 0 C0.66 0 1.32 0 2 0 C1.67 1.65 1.34 3.3 1 5 C-2.3 5 -5.6 5 -9 5 C-8.67 4.01 -8.34 3.02 -8 2 C-7.05 2.04 -6.1 2.08 -5.12 2.12 C-2 2 -2 2 0 0 Z " fill="#E0D5BF" transform="translate(750,713)" />
<path d="M0 0 C1.18 0.12 2.36 0.24 3.57 0.36 C4.03 0.42 4.03 0.42 6.31 0.69 C4.31 2.69 4.31 2.69 1.05 2.88 C-0.22 2.86 -1.5 2.84 -2.81 2.81 C-3.45 2.8 -3.45 2.8 -6.7 2.76 C-7.19 2.75 -7.19 2.75 -9.69 2.69 C-6.97 -1.13 -4.38 -0.48 0 0 Z " fill="#F7E9CD" transform="translate(313.6875,533.3125)" />
<path d="M0 0 C0.66 0.33 1.32 0.66 2 1 C-2.33 5.33 -6.67 9.67 -11 14 C-9.59 9.53 -7.41 7.16 -4 4 C-3.24 3.24 -2.47 2.47 -1.69 1.69 C-1.13 1.13 -0.57 0.57 0 0 Z " fill="#DCCFB4" transform="translate(275,870)" />
<path d="M0 0 C0.66 0.33 1.32 0.66 2 1 C1.6 1.3 1.6 1.3 -0.44 2.81 C-4.35 6.62 -3.9 11.85 -4 17 C-4.33 17 -4.66 17 -5 17 C-5.13 14.73 -5.23 12.46 -5.31 10.19 C-5.37 8.92 -5.43 7.66 -5.49 6.36 C-5 3 -5 3 -2.61 0.99 C-1.75 0.66 -0.89 0.34 0 0 Z " fill="#F7F3E6" transform="translate(905,850)" />
<path d="M0 0 C0.99 0.33 1.98 0.66 3 1 C2.43 1.36 1.86 1.73 1.28 2.1 C-3.83 5.43 -8.46 8.94 -13 13 C-11.44 6.38 -5.3 3.53 0 0 Z " fill="#EFE7D2" transform="translate(219,86)" />
<path d="M0 0 C2.99 0.46 5.99 0.75 9 1 C9 1.33 9 1.66 9 2 C6.96 2.05 4.92 2.09 2.88 2.12 C2.31 2.14 2.31 2.14 -0.57 2.2 C-4.06 2 -6.76 1.25 -10 0 C-10 -0.33 -10 -0.66 -10 -1 C-5.8 -2.2 -3.96 -1.62 0 0 Z " fill="#FCF8E7" transform="translate(861,890)" />
<path d="M0 0 C0.33 0.66 0.66 1.32 1 2 C-3.62 3.65 -8.24 5.3 -13 7 C-13.33 6.01 -13.66 5.02 -14 4 C-9.38 2.68 -4.76 1.36 0 0 Z " fill="#E1D0AE" transform="translate(594,694)" />
<path d="M0 0 C0.71 1.67 0.71 1.67 1 4 C-0.43 6.58 -0.43 6.58 -2.44 9.25 C-3.1 10.14 -3.75 11.03 -4.43 11.95 C-4.95 12.63 -5.47 13.3 -6 14 C-6.33 13.34 -6.66 12.68 -7 12 C-5.57 9.18 -5.57 9.18 -3.56 5.88 C-3.23 5.33 -3.23 5.33 -1.57 2.55 C-1.05 1.71 -0.53 0.87 0 0 Z " fill="#FADBC6" transform="translate(472,311)" />
<path d="M0 0 C0.33 0 0.66 0 1 0 C0.57 7.03 -0.74 13.33 -3 20 C-3.33 20 -3.66 20 -4 20 C-3.61 12.89 -2.61 6.65 0 0 Z " fill="#ECB9B2" transform="translate(500,232)" />
<path d="M0 0 C0.66 0.33 1.32 0.66 2 1 C1.07 2.63 0.13 4.25 -0.81 5.88 C-1.07 6.33 -1.07 6.33 -2.39 8.62 C-4 11 -4 11 -7 13 C-6.35 9.52 -5.02 6.91 -3 4 C-2.34 4 -1.68 4 -1 4 C-0.67 2.68 -0.34 1.36 0 0 Z " fill="#FCF6E6" transform="translate(912,828)" />
<path d="M0 0 C0.66 0.33 1.32 0.66 2 1 C1.01 1 0.02 1 -1 1 C-0.67 0.67 -0.34 0.34 0 0 Z M-3 2 C-2.34 2.33 -1.68 2.66 -1 3 C-3.97 5.97 -6.94 8.94 -10 12 C-10 7.69 -7.83 6.1 -5 3 C-4.34 2.67 -3.68 2.34 -3 2 Z " fill="#FBF6E7" transform="translate(766,693)" />
<path d="M0 0 C1.1 0.1 2.19 0.2 3.32 0.31 C4.16 0.39 5.01 0.48 5.88 0.56 C5.55 1.22 5.21 1.88 4.88 2.56 C0.92 2.56 -3.05 2.56 -7.12 2.56 C-7.45 1.9 -7.79 1.24 -8.12 0.56 C-5.29 -0.86 -3.13 -0.3 0 0 Z " fill="#F9EACE" transform="translate(330.125,533.4375)" />
<path d="M0 0 C1.94 0.38 1.94 0.38 4 1 C4.33 1.66 4.66 2.32 5 3 C4.01 3.66 3.02 4.32 2 5 C2.33 6.32 2.66 7.64 3 9 C0.94 7.31 0.94 7.31 -1 5 C-0.75 2.25 -0.75 2.25 0 0 Z " fill="#6F6048" transform="translate(302,521)" />
<path d="M0 0 C0 0.99 0 1.98 0 3 C-1.53 4.39 -1.53 4.39 -3.5 5.69 C-3.82 5.91 -3.82 5.91 -5.47 7.01 C-5.97 7.34 -6.48 7.66 -7 8 C-8.32 7.34 -9.64 6.68 -11 6 C-7.37 4.02 -3.74 2.04 0 0 Z " fill="#E1D3BC" transform="translate(291,861)" />
<path d="M0 0 C0.33 0 0.66 0 1 0 C1.17 1.75 1.34 3.5 1.5 5.25 C1.59 6.22 1.69 7.2 1.78 8.2 C2.14 12.78 1.85 15.83 0 20 C-1.2 15.85 -0.89 12.01 -0.56 7.75 C-0.51 7 -0.46 6.26 -0.4 5.49 C-0.28 3.66 -0.14 1.83 0 0 Z " fill="#E5DAC5" transform="translate(917,804)" />
<path d="M0 0 C2.64 0.66 5.28 1.32 8 2 C8 2.33 8 2.66 8 3 C7.13 2.9 6.27 2.79 5.38 2.69 C0.76 3.11 -0.69 4.85 -4 8 C-2.88 5.03 -1.78 2.67 0 0 Z " fill="#FDFAEB" transform="translate(421,882)" />
<path d="M0 0 C-3 2 -3 2 -6.31 2.44 C-10.1 3.01 -12.68 4.14 -16 6 C-16 5.01 -16 4.02 -16 3 C-10.45 0.16 -6.2 -0.38 0 0 Z " fill="#EBBCB1" transform="translate(491,159)" />
<path d="M0 0 C0 4.1 -1.55 5.76 -4 9 C-6.75 11.38 -6.75 11.38 -9 13 C-7.51 9.72 -5.61 7.07 -3.38 4.25 C-2.74 3.45 -2.11 2.65 -1.46 1.83 C-0.98 1.22 -0.5 0.62 0 0 Z " fill="#FDFAEB" transform="translate(414,893)" />
<path d="M0 0 C2 3 2 3 1.88 6.06 C1.59 7.03 1.3 8 1 9 C0.34 9.33 0.34 9.33 -3 11 C-2.01 7.37 -1.02 3.74 0 0 Z " fill="#DFD0B6" transform="translate(308,832)" />
<path d="M0 0 C0.8 0.14 1.61 0.29 2.44 0.44 C6.61 1.1 10.8 1.56 15 2 C15 2.33 15 2.66 15 3 C9.06 4.1 5.32 4.41 0 1 C0 0.67 0 0.34 0 0 Z " fill="#D69086" transform="translate(227,551)" />
<path d="M0 0 C1.12 1.69 1.12 1.69 2 4 C1.19 6.38 1.19 6.38 0 9 C-0.38 10.99 -0.72 12.99 -1 15 C-1.33 15 -1.66 15 -2 15 C-2.19 9.47 -1.75 5.24 0 0 Z " fill="#F5EED8" transform="translate(716,830)" />
<path d="M0 0 C1.32 0.66 2.64 1.32 4 2 C3.34 2.66 2.68 3.32 2 4 C1.37 5.95 1.37 5.95 0.88 8.12 C0.59 9.4 0.3 10.68 0 12 C-0.33 12 -0.66 12 -1 12 C-1.08 7.84 -0.98 4.05 0 0 Z " fill="#DBCFB0" transform="translate(314,799)" />
<path d="M0 0 C0.66 0.33 1.32 0.66 2 1 C0.07 4.41 -1.83 7.74 -4 11 C-4.49 4.6 -4.49 4.6 -2 1.56 C-1.34 1.05 -0.68 0.53 0 0 Z " fill="#DFD2BC" transform="translate(726,726)" />
<path d="M0 0 C0.66 0.33 1.32 0.66 2 1 C1.01 2.32 1.01 2.32 -4 9 C-5.32 8.67 -6.64 8.34 -8 8 C-6.5 6.8 -5.01 5.59 -3.51 4.39 C-2 3 -2 3 0 0 Z " fill="#EAB8AF" transform="translate(433,366)" />
<path d="M0 0 C4.29 0.99 8.58 1.98 13 3 C10 5 10 5 7.62 4.81 C4.73 3.92 2.49 2.71 0 1 C0 0.67 0 0.34 0 0 Z " fill="#FBF7E9" transform="translate(273,916)" />
<path d="M0 0 C0.99 0.33 1.98 0.66 3 1 C-2.79 5.82 -2.79 5.82 -6 7 C-6.99 6.67 -7.98 6.34 -9 6 C-4.38 3 -4.38 3 -1 3 C-0.67 2.01 -0.34 1.02 0 0 Z " fill="#FEF9EA" transform="translate(832,902)" />
<path d="M0 0 C0 3 0 3 -1.53 4.82 C-2.18 5.44 -2.83 6.05 -3.5 6.69 C-4.15 7.31 -4.8 7.93 -5.47 8.57 C-5.97 9.04 -6.48 9.52 -7 10 C-7 6.4 -6.32 5.65 -4 3 C-2.7 1.96 -1.37 0.95 0 0 Z " fill="#EFE6CE" transform="translate(445,900)" />
<path d="M0 0 C-3.65 2.63 -6.49 4.47 -11 5 C-8.11 1.79 -4.48 -2.24 0 0 Z " fill="#FAF4E3" transform="translate(743,719)" />
<path d="M0 0 C0.66 0.33 1.32 0.66 2 1 C-0.31 3.64 -2.62 6.28 -5 9 C-5.99 8.67 -6.98 8.34 -8 8 C-7.24 7.42 -6.47 6.85 -5.69 6.25 C-3.34 4.28 -1.71 2.52 0 0 Z " fill="#FCD6BF" transform="translate(434,541)" />
<path d="M0 0 C3.63 0.66 7.26 1.32 11 2 C11 2.66 11 3.32 11 4 C7.23 5.26 5.63 4.37 2 3 C2 2.34 2 1.68 2 1 C1.34 0.67 0.68 0.34 0 0 Z " fill="#5C4C38" transform="translate(323,526)" />
<path d="M0 0 C3.88 1.75 3.88 1.75 5 4 C4.01 4 3.02 4 2 4 C2 4.66 2 5.32 2 6 C1.34 6 0.68 6 0 6 C0 5.01 0 4.02 0 3 C-0.66 2.67 -1.32 2.34 -2 2 C-1.34 1.34 -0.68 0.68 0 0 Z " fill="#5B4B36" transform="translate(305,524)" />
<path d="M0 0 C0 0.66 0 1.32 0 2 C-5.28 1.67 -10.56 1.34 -16 1 C-16 0.67 -16 0.34 -16 0 C-14.08 -0.2 -12.17 -0.38 -10.25 -0.56 C-9.72 -0.61 -9.72 -0.61 -7.02 -0.88 C-4.36 -0.99 -2.5 -0.82 0 0 Z " fill="#FACAB4" transform="translate(415,509)" />
<path d="M0 0 C1.95 0.36 3.91 0.72 5.86 1.07 C5.53 1.73 5.2 2.39 4.86 3.07 C1.23 3.07 -2.4 3.07 -6.14 3.07 C-2.14 0.07 -2.14 0.07 0 0 Z " fill="#574735" transform="translate(399.140625,460.92578125)" />
<path d="M0 0 C4.95 0.33 9.9 0.66 15 1 C15 1.33 15 1.66 15 2 C12.88 2.19 10.75 2.38 8.62 2.56 C7.44 2.67 6.26 2.77 5.04 2.88 C2 3 2 3 0 2 C0 1.34 0 0.68 0 0 Z " fill="#E2D5BD" transform="translate(757,898)" />
<path d="M0 0 C0.84 2.38 1.18 3.54 0.22 5.92 C-0.85 7.61 -1.93 9.31 -3 11 C-4 8 -4 8 -3.22 5.96 C-2.84 5.25 -2.46 4.54 -2.06 3.81 C-1.68 3.1 -1.3 2.38 -0.91 1.64 C-0.61 1.1 -0.31 0.56 0 0 Z " fill="#FCF7E7" transform="translate(890,869)" />
<path d="M0 0 C0.99 0.33 1.98 0.66 3 1 C1.71 1.84 0.42 2.67 -0.88 3.5 C-1.59 3.96 -2.31 4.43 -3.05 4.91 C-5 6 -5 6 -7 6 C-6.34 4.68 -5.68 3.36 -5 2 C-4.01 2.33 -3.02 2.66 -2 3 C-2 2.34 -2 1.68 -2 1 C-1.34 0.67 -0.68 0.34 0 0 Z " fill="#DFD5C1" transform="translate(908,846)" />
<path d="M0 0 C0.99 0.33 1.98 0.66 3 1 C2.19 2.17 1.38 3.34 0.56 4.5 C0.11 5.15 -0.34 5.8 -0.81 6.47 C-1.2 6.97 -1.59 7.48 -2 8 C-2.33 8 -2.66 8 -3 8 C-3.19 5.12 -3.19 5.12 -3 2 C-2.01 1.34 -1.02 0.68 0 0 Z " fill="#DDD1B8" transform="translate(709,768)" />
<path d="M0 0 C0 0.33 0 0.66 0 1 C-4.29 1 -8.58 1 -13 1 C-13 0.67 -13 0.34 -13 0 C-7.86 -1.85 -5.04 -2.21 0 0 Z " fill="#DFD3BE" transform="translate(820,918)" />
<path d="M0 0 C1.32 0.66 2.64 1.32 4 2 C3.01 2.83 3.01 2.83 -2 7 C-1.12 2.25 -1.12 2.25 0 0 Z " fill="#FCF9E7" transform="translate(446,892)" />
<path d="M0 0 C0.66 0.33 1.32 0.66 2 1 C1.05 2.01 0.09 3 -0.88 4 C-1.41 4.56 -1.94 5.11 -2.49 5.69 C-4 7 -4 7 -6 7 C-4.61 3.63 -3.02 2.01 0 0 Z " fill="#DFD4BF" transform="translate(889,886)" />
<path d="M0 0 C1.32 0.33 2.64 0.66 4 1 C4 3.31 4 5.62 4 8 C0 3.38 0 3.38 0 0 Z " fill="#EFE5CE" transform="translate(202,579)" />
<path d="M0 0 C0.66 0.99 1.32 1.98 2 3 C-0.31 5.5 -0.31 5.5 -3 8 C-3.99 8 -4.98 8 -6 8 C-4.73 6.5 -3.46 5.01 -2.19 3.51 C-1 2 -1 2 0 0 Z " fill="#F8CEB8" transform="translate(274,539)" />
<path d="M0 0 C2.81 -0.25 2.81 -0.25 6 0 C7.88 2 7.88 2 9 4 C6.03 3.01 3.06 2.02 0 1 C0 0.67 0 0.34 0 0 Z " fill="#EEE8D4" transform="translate(311,930)" />
<path d="M0 0 C0.66 0.33 1.32 0.66 2 1 C0.02 3.31 -1.96 5.62 -4 8 C-4.66 7.67 -5.32 7.34 -6 7 C-4.02 4.69 -2.04 2.38 0 0 Z " fill="#FBF6E7" transform="translate(730,724)" />
</svg>