<?xml version='1.0' encoding='utf-8'?>
<svg xmlns="http://www.w3.org/2000/svg" version="1.1" width="1024" height="1024">
<g transform="translate(512, 0) scale(0.85, 1) translate(-512, 0)">
<path d="M0 0 C2.11 1.69 2.11 1.69 4 3.44 C4.55 3.92 5.1 4.4 5.67 4.9 C15.99 15.33 17.87 31.62 20 45.44 C20.18 46.55 20.35 47.66 20.54 48.8 C20.99 52.39 21.15 55.84 21.17 59.45 C21.17 60.1 21.18 60.75 21.18 61.42 C21.19 63.51 21.19 65.6 21.19 67.69 C21.19 68.4 21.19 69.12 21.19 69.85 C21.17 81.16 20.61 92.24 19 103.44 C18.84 104.66 18.69 105.89 18.53 107.15 C17.77 112.71 16.77 117.9 14.78 123.14 C13.86 125.84 13.21 128.59 12.54 131.35 C4.91 161.03 -11.65 191.65 -31.85 214.73 C-34 217.44 -34 217.44 -34 220.44 C-31.95 222.16 -31.95 222.16 -29.12 224.06 C-5.1 240.94 14.97 269.05 21.28 298.07 C23.81 309.61 25.93 317.23 35.09 324.95 C45.33 333.71 52.87 349.51 54.39 362.82 C54.53 366.35 54.55 369.85 54.5 373.38 C54.52 374.55 54.53 375.72 54.55 376.93 C54.5 388.41 51.5 398.41 46 408.44 C45.34 408.44 44.68 408.44 44 408.44 C43.91 409.16 43.83 409.88 43.74 410.62 C42.84 414.03 41.39 415.82 39.12 418.5 C38.43 419.34 37.73 420.17 37.01 421.04 C36.35 421.83 35.68 422.62 35 423.44 C34.73 423.82 34.73 423.82 33.37 425.75 C33.14 426.03 33.14 426.03 32 427.44 C31.34 427.44 30.68 427.44 30 427.44 C30 428.1 30 428.76 30 429.44 C21.44 438.8 8.46 447.22 -3 452.44 C-3.66 452.44 -4.32 452.44 -5 452.44 C-4.86 453.36 -4.71 454.28 -4.56 455.23 C-3.11 465.46 -2.71 475.4 -2.95 485.72 C-3 488.5 -3.01 491.28 -3.02 494.06 C-3.39 523.52 -11.25 554.87 -27.54 579.79 C-32.96 589.6 -31.36 603.75 -31.31 614.69 C-31.31 615.56 -31.31 616.44 -31.31 617.35 C-31.28 631.87 -30.52 646.1 -28 660.44 C-27.88 661.27 -27.75 662.11 -27.62 662.97 C-26.59 668.9 -26.59 668.9 -23.79 671.45 C-22.93 671.86 -22.07 672.27 -21.19 672.69 C-13.15 676.89 -7.65 683.1 -4 691.44 C-2.39 698.22 -1.49 705.55 -4.94 711.88 C-9.2 717.69 -15.46 719.27 -22.25 720.69 C-35.63 722.57 -48.95 722.51 -61.87 718.41 C-64.91 717.46 -67.85 716.89 -71 716.44 C-71.33 717.32 -71.66 718.21 -72 719.12 C-75.11 724.27 -79.51 726.38 -84.94 728.69 C-103.79 733.31 -126.42 731.97 -143.69 722.75 C-148.87 719.25 -152.43 714.5 -156 709.44 C-156.23 709.12 -156.23 709.12 -157.38 707.53 C-160 703.8 -160 703.8 -160 701.44 C-160.85 701.61 -161.69 701.79 -162.57 701.97 C-165.73 702.63 -168.9 703.29 -172.06 703.95 C-173.43 704.23 -174.79 704.51 -176.16 704.8 C-178.13 705.21 -180.1 705.62 -182.07 706.03 C-182.66 706.15 -182.66 706.15 -185.66 706.77 C-190.44 707.72 -194.99 708.57 -199.88 708.5 C-200.66 708.49 -201.44 708.48 -202.24 708.47 C-202.53 708.47 -202.53 708.47 -204 708.44 C-203.67 709.1 -203.34 709.76 -203 710.44 C-202.88 712.25 -202.82 714.06 -202.81 715.88 C-202.8 716.84 -202.78 717.81 -202.77 718.81 C-203 721.44 -203 721.44 -205 724.44 C-222.36 729.86 -242.56 727.64 -260.56 727.62 C-261.3 727.62 -262.04 727.62 -262.8 727.62 C-290.59 727.6 -318.38 727.32 -346.17 726.85 C-350.46 726.78 -354.75 726.72 -359.04 726.67 C-364.14 726.61 -369.25 726.52 -374.35 726.42 C-376.24 726.38 -378.12 726.35 -380.01 726.34 C-403.53 726.1 -403.53 726.1 -412.34 718.39 C-416.29 714.22 -418.96 710.2 -419.05 704.32 C-418.95 703.22 -418.85 702.13 -418.75 701 C-418.66 699.91 -418.57 698.82 -418.48 697.69 C-418 694.42 -417.07 691.56 -416 688.44 C-416.06 685.75 -416.06 685.75 -417 683.44 C-419.56 681.75 -419.56 681.75 -422 680.44 C-422 679.78 -422 679.12 -422 678.44 C-422.59 678.17 -423.19 677.9 -423.8 677.62 C-426.01 676.43 -427.47 675.23 -429.24 673.46 C-429.83 672.88 -430.42 672.29 -431.03 671.69 C-431.64 671.07 -432.25 670.45 -432.88 669.81 C-433.5 669.18 -434.12 668.55 -434.77 667.91 C-446 656.44 -446 656.44 -446 652.44 C-446.57 652.68 -447.14 652.92 -447.73 653.17 C-450.47 654.3 -453.23 655.38 -456 656.44 C-456.49 656.63 -456.49 656.63 -458.96 657.59 C-473.63 662.77 -487.16 661.37 -501.38 655.45 C-515.92 648.32 -524.48 635.44 -530.27 620.79 C-534.79 606.16 -533.09 587.97 -526.75 574.25 C-520.24 562.16 -510.13 551.15 -497 546.44 C-489.57 544.37 -482.69 543.28 -475 543.44 C-474.99 542.8 -474.99 542.8 -474.92 539.55 C-474.56 526.79 -472.95 514.84 -470 502.44 C-469.82 501.65 -469.64 500.87 -469.45 500.06 C-462.95 472.01 -450.68 446.82 -434 423.44 C-433.79 423.14 -433.79 423.14 -432.74 421.66 C-414.2 395.76 -388.88 373.73 -361 358.44 C-360.18 357.98 -359.35 357.52 -358.51 357.04 C-331.5 342.04 -302.41 332.25 -272.02 326.81 C-270.31 326.5 -268.61 326.15 -266.91 325.79 C-258.69 324.09 -250.37 323.81 -242 323.44 C-241.95 323.13 -241.95 323.13 -241.67 321.6 C-241.51 320.76 -241.35 319.93 -241.19 319.06 C-241.04 318.25 -240.89 317.44 -240.73 316.6 C-238.9 308.66 -236.23 300.94 -233.56 293.25 C-233.28 292.4 -232.99 291.55 -232.69 290.67 C-230.91 285.53 -228.77 281.12 -226 276.44 C-225.53 275.31 -225.06 274.19 -224.57 273.03 C-222.69 268.74 -220.34 264.94 -217.81 261 C-217.35 260.27 -216.89 259.54 -216.41 258.78 C-215.28 257 -214.14 255.22 -213 253.44 C-215.6 250.77 -218.36 248.64 -221.38 246.44 C-234.04 237.07 -247.89 226.53 -258 214.44 C-258 213.78 -258 213.12 -258 212.44 C-258.66 212.44 -259.32 212.44 -260 212.44 C-261.3 211.18 -261.3 211.18 -262.88 209.31 C-265.07 206.71 -267.27 204.14 -269.57 201.63 C-285.18 184.41 -298.31 163.67 -307.56 142.38 C-307.8 141.84 -307.8 141.84 -308.99 139.1 C-313.01 129.73 -316.28 120.26 -319 110.44 C-319.3 109.37 -319.61 108.3 -319.92 107.2 C-320.69 104.29 -321.36 101.38 -322 98.44 C-322.14 97.88 -322.14 97.88 -322.84 95.05 C-325.01 85.14 -325.35 75.3 -325.44 65.19 C-325.45 64.51 -325.46 63.83 -325.47 63.12 C-325.68 49.71 -323.74 37.86 -314.56 27.75 C-306.51 20.48 -297.55 19.88 -287.21 20.13 C-281.6 20.43 -277.04 22 -272 24.44 C-270.91 24.92 -269.83 25.41 -268.71 25.91 C-259.73 30.12 -251.87 35.42 -244 41.44 C-243.06 42.15 -242.12 42.87 -241.14 43.61 C-236.07 47.57 -231.45 51.78 -227 56.44 C-226.22 57.22 -225.43 58 -224.62 58.81 C-223.76 59.68 -222.89 60.55 -222 61.44 C-221.69 61.72 -221.69 61.72 -220.15 63.15 C-213.01 69.92 -207.24 77.64 -201.41 85.53 C-200.3 87.04 -199.17 88.53 -198.04 90.02 C-176.27 119.55 -163.25 155.65 -154.38 190.94 C-154.13 191.92 -153.88 192.89 -153.63 193.9 C-152.52 198.5 -151.7 202.67 -152 207.44 C-151.11 207.11 -150.23 206.79 -149.32 206.45 C-135.79 201.68 -122.43 198.69 -108 199.44 C-108.02 198.37 -108.05 197.3 -108.07 196.2 C-108.53 165.41 -104.34 134.68 -96.44 104.94 C-96.17 103.92 -95.9 102.91 -95.62 101.87 C-93.96 95.96 -91.8 90.53 -89.18 84.98 C-87.58 81.54 -86.32 78.01 -85.06 74.44 C-82.63 67.72 -79.59 61.62 -76 55.44 C-75.32 54.11 -74.65 52.78 -74 51.44 C-73.34 51.44 -72.68 51.44 -72 51.44 C-71.9 50.88 -71.79 50.32 -71.69 49.75 C-66.17 31.2 -45.05 10.68 -28.61 1.04 C-20.08 -3.4 -8.5 -5.44 0 0 Z " fill="#F9F1DE" transform="translate(751,148.5625)" />
<path d="M0 0 C6.83 25.38 5.06 49.38 -7.89 72.66 C-20.5 92.62 -39.27 102.59 -60.25 112 C-69.39 116.12 -77.62 120.08 -85 127 C-85.64 127.58 -86.28 128.17 -86.94 128.77 C-94.36 136.37 -98.95 146.93 -103.7 156.32 C-108.66 166.08 -113.29 175.09 -121 183 C-121.61 183.65 -122.22 184.29 -122.84 184.96 C-134.57 196.34 -150.75 200.55 -166.62 200.38 C-167.16 200.38 -167.16 200.38 -169.86 200.41 C-176.45 200.39 -181.91 199.55 -188 197 C-187.54 188.25 -186.41 179.96 -184.38 171.44 C-184.11 170.31 -183.84 169.18 -183.57 168.02 C-173.68 127.56 -152.25 92.38 -123 63 C-122.47 62.47 -121.94 61.93 -121.39 61.38 C-107.75 47.81 -91.85 36.25 -75 27 C-74.18 26.54 -73.35 26.08 -72.51 25.61 C-54.01 15.33 -35 7.94 -14.75 1.88 C-13.73 1.57 -12.71 1.26 -11.66 0.94 C-10.72 0.67 -9.77 0.4 -8.8 0.12 C-7.97 -0.12 -7.13 -0.37 -6.28 -0.61 C-3.84 -1.03 -2.33 -0.78 0 0 Z " fill="#C3B7AB" transform="translate(465,480)" />
<path d="M0 0 C0.36 0.28 0.36 0.28 2.19 1.69 C1.67 8.28 0.38 13.92 -1.88 20.12 C-2.18 20.98 -2.49 21.84 -2.81 22.73 C-4.99 28.71 -7.37 34.6 -9.94 40.44 C-10.25 41.15 -10.56 41.86 -10.88 42.6 C-12.48 46.13 -14.18 49.23 -16.43 52.39 C-22.87 62.58 -21.17 77.29 -21.12 88.94 C-21.12 89.81 -21.12 90.69 -21.12 91.6 C-21.09 106.12 -20.34 120.35 -17.81 134.69 C-17.69 135.52 -17.56 136.36 -17.43 137.22 C-16.4 143.15 -16.4 143.15 -13.61 145.7 C-12.75 146.11 -11.89 146.52 -11 146.94 C-2.96 151.14 2.54 157.35 6.19 165.69 C7.8 172.47 8.69 179.8 5.25 186.12 C0.99 191.94 -5.27 193.52 -12.06 194.94 C-27.72 197.14 -47.04 197.73 -60.81 188.69 C-61.62 185.9 -61.62 185.9 -61.81 182.62 C-62.69 174.97 -64.92 168.83 -71.07 163.87 C-73.44 162.19 -73.44 162.19 -75.66 160.84 C-81.61 154.87 -83.06 144.67 -85.06 136.75 C-85.33 135.72 -85.6 134.7 -85.88 133.64 C-87.81 126.1 -87.81 126.1 -87.81 122.69 C-88.8 123.02 -88.8 123.02 -93.81 124.69 C-95.97 115.75 -96.15 107.01 -96.13 97.87 C-96.13 95.46 -96.15 93.04 -96.17 90.62 C-96.21 80.59 -95.21 71.44 -92.81 61.69 C-92.57 60.67 -92.33 59.64 -92.07 58.59 C-88.44 43.8 -81.48 30.38 -71.81 18.69 C-71.07 17.7 -70.33 16.71 -69.56 15.69 C-52.28 -4.64 -23.75 -15.48 0 0 Z " fill="#C3B7AB" transform="translate(740.8125,674.3125)" />
<path d="M0 0 C2.11 1.69 2.11 1.69 4 3.44 C4.28 3.68 4.28 3.68 5.67 4.9 C15.99 15.33 17.87 31.62 20 45.44 C20.18 46.55 20.35 47.66 20.54 48.8 C20.99 52.39 21.15 55.84 21.17 59.45 C21.17 59.78 21.17 59.78 21.18 61.42 C21.19 63.51 21.19 65.6 21.19 67.69 C21.19 68.04 21.19 68.04 21.19 69.85 C21.17 81.16 20.61 92.24 19 103.44 C18.84 104.66 18.69 105.89 18.53 107.15 C17.77 112.71 16.77 117.9 14.78 123.14 C13.86 125.84 13.21 128.59 12.54 131.35 C6.91 153.26 -4.01 174.4 -16 193.44 C-19.27 193.33 -22.54 193.2 -25.81 193.06 C-26.74 193.03 -27.67 193 -28.63 192.97 C-29.07 192.95 -29.07 192.95 -31.33 192.85 C-32.15 192.82 -32.98 192.79 -33.82 192.76 C-36 192.44 -36 192.44 -39 190.44 C-38.49 189.69 -37.98 188.95 -37.45 188.18 C-20.47 162.68 -5.48 132.22 -2 101.44 C-1.83 100.68 -1.66 99.93 -1.48 99.15 C0.93 85.56 -0.07 68.33 -7.75 56.5 C-9.92 54.05 -11.66 52.86 -14.88 52.19 C-22.24 52.06 -26.96 56.16 -32.06 61.06 C-60.83 91.24 -68.26 134.65 -73 174.44 C-81.4 170.57 -85.78 160.76 -88.97 152.49 C-95.58 132.85 -99.38 106.14 -90.64 86.69 C-89.58 84.59 -88.52 82.49 -87.45 80.39 C-85.96 77.36 -84.78 74.3 -83.62 71.12 C-81.79 66.28 -79.74 61.8 -77.11 57.34 C-75.98 55.41 -74.98 53.45 -74 51.44 C-73.34 51.44 -72.68 51.44 -72 51.44 C-71.9 50.88 -71.79 50.32 -71.69 49.75 C-66.17 31.2 -45.05 10.68 -28.61 1.04 C-20.08 -3.4 -8.5 -5.44 0 0 Z " fill="#FAF1DE" transform="translate(751,148.5625)" />
<path d="M0 0 C6.6 4.55 8.18 12.64 10 20 C10.2 20.77 10.39 21.53 10.59 22.32 C11.2 26.3 11.18 30.23 11.19 34.25 C11.2 35.06 11.21 35.87 11.22 36.7 C11.24 41.55 10.73 45.89 9.56 50.59 C8.93 53.31 8.52 56.03 8.11 58.79 C3.55 86.62 -10.82 115.18 -27 138 C-24.71 139.15 -23.2 139.2 -20.65 139.32 C-19.8 139.36 -18.95 139.4 -18.07 139.44 C-17.18 139.48 -16.29 139.52 -15.38 139.56 C-14.93 139.58 -14.93 139.58 -12.66 139.69 C-10.44 139.8 -8.22 139.9 -6 140 C-7.52 144.45 -9.94 148.04 -12.69 151.81 C-13.13 152.43 -13.57 153.04 -14.03 153.67 C-17.43 158.35 -21.04 162.78 -25 167 C-25.97 166.49 -26.94 165.98 -27.94 165.46 C-45.98 156.14 -63.43 150.25 -83.75 148.31 C-84.39 148.25 -84.39 148.25 -87.63 147.92 C-90.75 147.61 -93.88 147.3 -97 147 C-97.71 114.29 -94.19 80.24 -84 49 C-83.67 49 -83.34 49 -83 49 C-82.99 49.8 -82.97 50.6 -82.96 51.42 C-81.98 99.27 -81.98 99.27 -67 118 C-65.37 119.38 -63.71 120.73 -62 122 C-62.03 120.77 -62.07 119.54 -62.11 118.27 C-62.1 112.32 -61.24 106.56 -60.31 100.69 C-60.13 99.54 -59.95 98.4 -59.77 97.22 C-58.09 86.97 -55.9 76.97 -53 67 C-52.88 66.57 -52.88 66.57 -52.25 64.41 C-45.31 40.8 -32.73 12.63 -10.56 -0.44 C-6.81 -1.26 -3.6 -1.28 0 0 Z " fill="#FCB6B9" transform="translate(740,201)" />
<path d="M0 0 C30.97 11.8 52.51 43.92 65.57 72.89 C74.39 92.98 80.4 114.03 85.62 135.34 C85.93 136.6 86.24 137.87 86.56 139.18 C87.07 142.48 87.31 144.31 86.06 147.4 C83.47 149.78 83.47 149.78 80.24 152.09 C79.71 152.47 79.71 152.47 77.04 154.41 C74.74 155.94 72.56 157.26 70.06 158.4 C60.7 152.12 51.59 145.78 43.06 138.4 C42.3 137.75 41.54 137.1 40.76 136.44 C28.97 126.12 17.39 115 8.06 102.4 C7.13 101.22 6.2 100.04 5.27 98.87 C-13.8 74.53 -28.05 44.91 -25.94 13.4 C-25.09 8.05 -22.59 3.76 -18.27 0.48 C-12.47 -2.23 -6.04 -1.87 0 0 Z " fill="#FDB5B9" transform="translate(485.94482421875,223.60205078125)" />
<path d="M0 0 C0.33 0 0.66 0 1 0 C0.99 0.57 0.99 1.14 0.98 1.73 C0.38 55.78 0.38 55.78 4 75 C4.12 75.82 4.25 76.64 4.38 77.49 C5.42 83.47 5.42 83.47 8.21 86.02 C9.07 86.42 9.93 86.83 10.81 87.25 C18.85 91.45 24.35 97.67 28 106 C29.61 112.79 30.51 120.12 27.06 126.44 C22.8 132.25 16.54 133.84 9.75 135.25 C-5.91 137.45 -25.23 138.05 -39 129 C-39.81 126.21 -39.81 126.21 -40 122.94 C-40.88 115.28 -43.11 109.14 -49.25 104.18 C-50.04 103.63 -50.82 103.07 -51.62 102.5 C-56.82 98.71 -58.28 95.09 -60 89 C-60.21 88.28 -60.42 87.56 -60.64 86.82 C-61.36 84.34 -62.06 81.86 -62.75 79.38 C-62.97 78.58 -63.2 77.78 -63.43 76.95 C-64.77 71.82 -65.83 67.28 -65 62 C-62.97 59.66 -60.53 58.24 -57.88 56.69 C-56.39 55.75 -54.92 54.8 -53.44 53.85 C-52.69 53.38 -51.95 52.91 -51.18 52.42 C-40.53 45.48 -31.16 36.74 -22 28 C-21.33 27.39 -20.67 26.78 -19.98 26.14 C-12.02 18.61 -5.67 9.32 0 0 Z " fill="#B6A698" transform="translate(719,734)" />
<path d="M0 0 C21.79 2.26 40.09 16.25 54 32.44 C71.8 55.22 81.48 84.03 79 113 C77.47 125.42 74.39 137.3 70 149 C78.45 153.23 93.87 150.77 102.6 148.16 C113.1 144.55 122.41 140.07 128 130 C131.05 122.93 131.62 115.62 132 108 C134.33 110.33 134.48 111.4 135.12 114.57 C135.33 115.54 135.54 116.5 135.75 117.49 C135.98 118.55 136.2 119.6 136.44 120.69 C142.08 145.45 151.34 169.8 163.19 192.25 C164 194 164 194 164 196 C158.34 197.37 152.67 198.7 147 200 C145.99 200.23 144.99 200.47 143.95 200.71 C136.29 202.32 128.79 202.19 121 202 C120.52 201.08 120.03 200.16 119.53 199.22 C112.65 186.49 105.35 178.01 91.08 173.37 C86.75 172.09 82.4 171 78 170 C77.62 169.91 77.62 169.91 75.68 169.46 C70.29 168.53 64.77 168.81 59.31 168.81 C58.02 168.81 56.73 168.81 55.39 168.81 C45.48 168.86 35.8 169.53 26 171 C26 170.34 26 169.68 26 169 C27.47 167.59 27.47 167.59 29.5 165.94 C47.88 150.18 57.72 127.69 61 104 C62.6 74.2 51.68 45.87 32.38 23.31 C23.2 13.65 12.16 6.36 0 1 C0 0.67 0 0.34 0 0 Z " fill="#C3B7AB" transform="translate(426,654)" />
<path d="M0 0 C1.26 0.01 2.52 0.01 3.82 0.02 C4.78 0.03 5.74 0.03 6.73 0.04 C6.74 0.46 6.74 0.46 6.79 2.54 C7.76 40.86 13.83 73.6 33.73 107.04 C22.21 115.18 9.6 117.62 -4.27 116.04 C-18.97 113.1 -31.67 105.22 -40.45 93.01 C-50.1 76.94 -53.34 58.83 -49.08 40.36 C-44.7 26.03 -35.49 13.4 -22.68 5.44 C-15.05 1.44 -8.57 -0.05 0 0 Z " fill="#F2E4CA" transform="translate(269.265625,692.95703125)" />
<path d="M0 0 C4.44 3.24 8.7 6.6 12.88 10.19 C35.99 29.11 64.62 39.55 93.76 44.61 C95.71 44.95 97.66 45.32 99.61 45.69 C132.58 51.16 166.22 45.36 197.02 33.45 C199.99 32.32 202.85 31.48 206 31 C209.45 40.21 209.12 49.29 209 59 C164.52 77.11 115.35 76.81 70.75 58.11 C67.11 56.51 63.54 54.79 60 53 C59.32 52.66 58.64 52.31 57.94 51.96 C42.24 43.9 28.67 33.21 16 21 C15.35 20.4 14.7 19.8 14.02 19.18 C8.65 14.1 4.11 8.14 0 2 C0 1.34 0 0.68 0 0 Z " fill="#C3B7AB" transform="translate(539,572)" />
<path d="M0 0 C0.33 0 0.66 0 1 0 C1.01 0.8 1.03 1.6 1.04 2.42 C1.52 25.93 2.14 49.38 17 69 C17.69 69.57 18.38 70.15 19.1 70.74 C21.68 73.81 21.39 75.56 21.17 79.52 C21.11 80.77 21.06 82.02 21 83.3 C20.91 84.61 20.83 85.91 20.75 87.25 C20.68 88.57 20.62 89.88 20.55 91.24 C20.39 94.5 20.2 97.75 20 101 C12.05 100.41 4.12 99.75 -3.81 98.94 C-4.71 98.85 -5.6 98.76 -6.53 98.66 C-8.68 98.44 -10.84 98.22 -13 98 C-13.71 65.29 -10.19 31.24 0 0 Z " fill="#C3B7AB" transform="translate(656,250)" />
<path d="M0 0 C5.04 3.67 5.04 3.67 6.44 6.47 C6.82 10.41 6.67 12.95 5.07 16.59 C-0.61 22.81 -9.37 26.04 -17.64 26.72 C-28.44 27.09 -39.12 25.64 -47.29 18.03 C-49.73 15.02 -50.55 13.01 -50.62 9.09 C-49.18 4.16 -46.86 2.14 -42.56 -0.53 C-28.82 -7.15 -13.52 -8.09 0 0 Z " fill="#F9C697" transform="translate(605.55859375,510.53125)" />
<path d="M0 0 C5.11 2.19 8.58 6.25 11.11 11.15 C13.41 18.54 13.38 28 10.87 35.3 C8.16 40.09 5.46 43.41 0 45 C-3.94 45.57 -5.6 45.21 -9.12 43.31 C-15.18 38.44 -18.44 32.9 -19.32 25.17 C-19.6 17.63 -18.72 10.12 -13.47 4.3 C-8.9 0.39 -5.97 -0.4 0 0 Z " fill="#53504A" transform="translate(612,453)" />
<path d="M0 0 C3.28 2.21 4.81 3.72 7 7 C6.92 11.15 6.48 13.37 3.94 16.69 C-5.58 24.18 -16.19 25.35 -28 24 C-31.78 22.85 -34.79 21.28 -38 19 C-38.87 18.4 -39.73 17.8 -40.62 17.19 C-42.7 13.88 -42.73 10.73 -42 7 C-38.47 1.12 -33 -1.44 -26.65 -3.42 C-17.27 -5.47 -8.56 -4.23 0 0 Z " fill="#F9C797" transform="translate(785,498)" />
<path d="M0 0 C5.07 2.63 8.29 7 10.34 12.25 C12.52 21.28 11.98 29.9 7.48 38.05 C5.24 41 3.33 42.74 -0.37 43.47 C-7.97 43.56 -7.97 43.56 -11.44 40.81 C-17.85 33.78 -19.53 26.7 -19.38 17.33 C-18.65 10.94 -15.89 6.2 -11.75 1.38 C-7.73 -0.63 -4.39 -0.97 0 0 Z " fill="#534F4A" transform="translate(740,444)" />
<path d="M0 0 C0.72 -0.01 1.45 -0.03 2.2 -0.04 C7.77 0.01 11.46 1.57 16.19 4.56 C18.11 7.65 17.78 10.9 17.31 14.38 C15.39 20.25 11.21 23.84 6.31 27.38 C1.17 29.79 -3.71 30.44 -9.14 28.5 C-15.59 25.56 -20.48 21.8 -23.69 15.38 C-24.12 12.06 -24.12 12.06 -23.69 8.38 C-17.3 1.17 -9.2 0.12 0 0 Z " fill="#524F49" transform="translate(689.6875,492.625)" />
<path d="M0 0 C7.59 0.33 15.18 0.66 23 1 C21.2 5.49 19.12 8.96 16.31 12.81 C15.87 13.43 15.43 14.04 14.97 14.67 C11.56 19.36 7.92 23.73 4 28 C-1.28 25.36 -6.56 22.72 -12 20 C-12 15.5 -12 15.5 -9.63 12.62 C-9.14 12.01 -8.65 11.4 -8.14 10.77 C-7.62 10.14 -7.1 9.52 -6.56 8.88 C-1.07 2.14 -1.07 2.14 0 0 Z " fill="#C3B7AB" transform="translate(711,340)" />
<path d="M0 0 C0.2 0.76 0.4 1.52 0.61 2.31 C1.53 5.77 2.45 9.23 3.38 12.69 C3.69 13.89 4.01 15.08 4.34 16.32 C4.65 17.48 4.95 18.63 5.27 19.82 C5.56 20.89 5.84 21.95 6.13 23.05 C7 26 7 26 8.11 28.64 C9 31 9 31 9 35 C5.6 33.94 2.99 32.99 0 31 C-0.91 28.54 -0.91 28.54 -1.64 25.48 C-1.91 24.37 -2.17 23.27 -2.45 22.13 C-2.71 20.98 -2.98 19.82 -3.25 18.62 C-3.53 17.48 -3.81 16.33 -4.1 15.14 C-6.42 5.3 -6.42 5.3 -5 2 C-2 0 -2 0 0 0 Z " fill="#FDFCF6" transform="translate(653,797)" />
<path d="M0 0 C1.12 -0.01 2.25 -0.03 3.41 -0.04 C6.43 0.18 7.9 0.77 10.5 2.19 C9.2 2.24 7.9 2.29 6.55 2.34 C4.83 2.41 3.1 2.49 1.38 2.56 C0.95 2.58 0.95 2.58 -1.22 2.66 C-6.05 2.88 -9.9 3.62 -14.5 5.19 C-16.88 4.81 -16.88 4.81 -18.5 4.19 C-17.25 3.71 -16 3.23 -14.75 2.75 C-14.05 2.48 -13.36 2.22 -12.64 1.94 C-8.32 0.42 -4.6 0.03 0 0 Z " fill="#F4CDA6" transform="translate(583.5,504.8125)" />
<path d="M0 0 C0.33 0 0.66 0 1 0 C1 6.93 1 13.86 1 21 C0.67 21 0.34 21 0 21 C-0.33 17.7 -0.66 14.4 -1 11 C-1.66 11.99 -2.32 12.98 -3 14 C-2.49 9.03 -1.77 4.71 0 0 Z " fill="#C8BEB0" transform="translate(656,250)" />
<path d="M0 0 C0.66 0.33 1.32 0.66 2 1 C1.51 1.42 1.01 1.85 0.5 2.29 C-5.38 7.67 -5.38 7.67 -5.94 11.94 C-5.96 12.95 -5.98 13.96 -6 15 C-8 13 -8 13 -8.06 9.75 C-6.66 4.8 -4.08 2.91 0 0 Z " fill="#F2CAA1" transform="translate(563,510)" />
<path d="M0 0 C-2 4 -2 4 -3.19 5.81 C-4.39 9.04 -3.64 11.68 -3 15 C-3.99 14.34 -4.98 13.68 -6 13 C-6.55 8.24 -6.68 6.09 -4.12 2 C-2 0 -2 0 0 0 Z " fill="#F1CAA1" transform="translate(749,500)" />
<path d="M0 0 C0.58 0.01 0.58 0.01 3.52 0.05 C4.4 0.08 5.28 0.1 6.19 0.12 C6.19 0.45 6.19 0.79 6.19 1.12 C5.6 1.19 5 1.25 4.39 1.31 C-2.36 2.03 -2.36 2.03 -5.62 2.75 C-8.01 3.16 -9.53 2.89 -11.81 2.12 C-7.74 0.17 -4.5 -0.09 0 0 Z " fill="#F6D4AE" transform="translate(767.8125,493.875)" />
<path d="M0 0 C2.06 1.56 2.06 1.56 4 4 C3.79 10.21 3.79 10.21 1 13 C1.02 11.78 1.04 10.57 1.06 9.31 C1.07 6.08 0.79 3.15 0 0 Z " fill="#F2D0AB" transform="translate(788,501)" />
<path d="M0 0 C0.33 0 0.66 0 1 0 C1.33 4.29 1.66 8.58 2 13 C1.67 12.34 1.34 11.68 1 11 C0.34 11 -0.32 11 -1 11 C-0.67 7.37 -0.34 3.74 0 0 Z " fill="#C7BDB7" transform="translate(719,784)" />
<path d="M0 0 C0.75 1.62 0.75 1.62 1 4 C-0.94 7.25 -0.94 7.25 -3 10 C-4 7 -4 7 -3.22 5.18 C-2.15 3.45 -1.07 1.73 0 0 Z " fill="#5D584F" transform="translate(726,448)" />
</g>
</svg>