<svg xmlns="http://www.w3.org/2000/svg" width="1024" height="1024"><path fill="#dcb487" d="M350.914 135.61c15.08 6.8 27.69 20.83 37.79 33.52 2.63 3.28 5.33 6.49 8.05 9.68 5.22 6.14 5.22 6.14 6.4 7.95 1.17 1.69 1.17 1.69 3.85 4.24 3.03 0 5.1-.31 8-1 1.91-.34 3.82-.66 5.73-.97 1.06-.18 2.11-.36 3.2-.54 32.62-5.31 63.22-1.97 94.63 7.93 2.66.63 4.72.9 7.44.58 1.97-1.31 1.97-1.31 3.85-3.15l2.12-2.03c.73-.72 1.46-1.45 2.21-2.19.76-.74 1.52-1.47 2.31-2.23 3.96-3.84 7.84-7.75 11.69-11.71 11.45-11.57 29.3-27.38 46.13-28.31 3.88.24 6.6 1.09 9.44 3.95 8.6 11.55 7.61 26.95 7.56 40.61v2.66c-.04 15.65-1.11 30.9-3.31 46.4-.12.8-.23 1.6-.34 2.43-.42 2.97-.85 5.94-1.33 8.91-.82 6.54.22 10.52 3.35 16.29q1.125 2.145 2.22 4.29c.36.7.72 1.4 1.1 2.12 6.63 13.03 12.21 29.02 12.06 43.77l-.03 3.52c0 .44 0 .44-.03 2.67 1.03-.03 2.06-.07 3.12-.1 12.83-.29 25.21 1.19 37.88 3.1v4c-.77-.07-1.54-.13-2.33-.2-8.49-.69-16.97-1.09-25.49-1.36-1.27-.05-2.55-.09-3.87-.13-3.1-.11-6.21-.21-9.31-.31v24c8.62 2.81 8.62 2.81 11.3 3.68 4.44 1.46 8.57 3.1 12.7 5.32v3c-5.14-.58-9.76-1.77-14.63-3.5-4.09-1.44-8.09-2.78-12.37-3.5-.09.36-.09.36-.55 2.16-2.31 8.79-2.31 8.79-4.14 12.84-1.31 3-1.31 3-1.31 6 .43.24.43.24 2.6 1.43 8.49 4.73 16.5 9.91 24.4 15.57l-1 4c-3.63-1.31-6.47-2.9-9.57-5.19-15.12-10.81-15.12-10.81-20.43-10.81-1.98 2.27-1.98 2.27-4.07 5.25-.69.98-1.38 1.95-2.09 2.95-.61.93-1.22 1.85-1.84 2.8l-1.44 1.99c-.56 2.01-.56 2.01.55 4.92 11.28 18.44 29.38 30.2 46.69 42.36 12.48 8.76 24.14 18.2 35.2 28.73.3.29.3.29 1.81 1.73 8.88 8.52 17 17.27 24.19 27.27.47.66.95 1.32 1.44 1.99 32.62 45.71 47.57 102.73 47.63 158.48l.03 6.72c.01 3.46.02 6.92 0 10.37-.03 3.39 0 6.78.03 10.16-.01.52-.01.52-.05 3.12.09 5.31.47 8.34 4.33 12.15.61.51 1.23 1.02 1.86 1.54 10.2 8.67 14.92 26.86 16.73 39.47 1.88 25.34-6.4 49.14-22.81 68.47-.36.42-.36.42-2.19 2.53-.61.73-1.22 1.47-1.85 2.22-12.92 15.3-30.51 26.04-48.22 34.97-.58.29-1.17.59-1.78.9-43.09 21.2-89.71 29.16-137.15 32.91-1.1.1-2.2.19-3.33.29-10.39.86-20.76.91-31.17.9h-2.87c-57.24-.1-117.47-6.78-168.63-34.19-1.09-.58-2.17-1.15-3.28-1.75-14.43-8.04-27.89-18.97-33.34-35.06-2-11.32-.68-22.11 5.37-31.88 6.88-9.68 16.45-14.57 27.98-17.05 3.1-.36 6.15-.3 9.27-.26-.58-.8-1.15-1.61-1.73-2.44-22.6-32.49-36.69-69.42-45.61-107.79-.72-2.99-1.49-5.96-2.26-8.93-1.2-4.78-2.01-9.44-2.47-14.34-.5-4.75-1.05-9.43-1.93-14.12-10.04-59.88-3.88-133.51 18.45-190.22 1.1-2.93 1.62-4.79.97-7.89-1.65-2.63-3.28-4.01-5.8-5.83-12.39-9.58-24.24-21.88-30.62-36.44v-3c-8.91 4.08-16.88 8.7-24.76 14.53-1.7 1.23-3.47 2.36-5.24 3.47l-3-1v-3c2.4-1.92 4.75-3.62 7.31-5.31.36-.25.36-.25 2.2-1.48 15.36-10.21 15.36-10.21 20.49-10.21-.35-.92-.7-1.83-1.06-2.78-2.37-6.4-4.53-12.35-4.94-19.22-7.69 1.7-14.84 3.96-22.09 7.01-2.86.97-4.93 1.19-7.91.99.26-1.88.26-1.88 1-4 1.62-1.06 1.62-1.06 3.71-1.85.77-.29 1.54-.59 2.33-.89l2.46-.88c.77-.3 1.55-.6 2.36-.91 5.41-2.03 10.36-3.19 16.14-4.47v-23c-4.48.12-8.96.24-13.44.37-1.52.05-3.04.09-4.56.13-9.03.24-18.01.61-27 1.5v-4c15.42-2.59 30.37-3.4 46-3 .07-.85.15-1.7.22-2.58 2.45-22.54 12.34-56.98 28.78-73.42.12-2.11.18-4.22.21-6.34.02-1.37.05-2.74.08-4.11.01-.73.02-1.46.04-2.21 1.53-78.8 1.53-78.8 16.18-93.9 5.83-4.98 10.19-5.12 17.4-2.83"/><path fill="#dcb487" d="m601 400 2 3c13.06 17.74 28.94 29.72 46.8 42.27 12.48 8.76 24.14 18.2 35.2 28.73.3.29.3.29 1.81 1.73C695.7 484.25 703.82 493 711 503c.48.66.95 1.32 1.44 1.99 32.62 45.71 47.58 102.73 47.63 158.48l.03 6.72c.02 3.46.02 6.91 0 10.37-.02 3.39 0 6.77.03 10.16-.01 1.03-.03 2.06-.05 3.12.09 5.3.48 8.33 4.33 12.15.62.51 1.23 1.02 1.87 1.54C776.47 716.2 781.2 734.39 783 747c1.88 25.34-6.4 49.14-22.81 68.47-.72.83-1.44 1.67-2.19 2.53-.61.73-1.22 1.46-1.85 2.22-12.91 15.3-30.51 26.04-48.21 34.97-.59.29-1.18.59-1.78.9-43.1 21.2-89.71 29.16-137.16 32.91-1.1.1-2.19.19-3.32.29-10.39.86-20.76.91-31.18.9h-2.86c-57.25-.1-117.48-6.79-168.64-34.19-1.08-.58-2.16-1.15-3.28-1.75-14.42-8.04-27.89-18.97-33.33-35.06-2-11.32-.69-22.11 5.36-31.88 7.71-10.84 18.38-15.29 31.27-17.49 6-.87 11.98-1.1 18.04-1.13.87-.01 1.74-.01 2.63-.02 5.41.06 10.11.82 15.31 2.33-.34-.93-.68-1.86-1.03-2.81-5.02-14.14-8.47-28.65-12-43.21-.99-4.08-2.01-8.15-3.03-12.23a857 857 0 0 1-15.82-78.44c-.12-.77-.24-1.55-.36-2.35-.59-4.02-.88-7.9-.76-11.96 1.94-.56 1.94-.56 4-1 1.97 1.97 1.82 5.57 2.23 8.28.25 1.54.49 3.09.74 4.64.12.82.25 1.64.38 2.48 4.46 28.5 10.32 56.48 17.14 84.49.46 1.92.93 3.84 1.39 5.76 2.98 12.37 6.26 24.6 9.94 36.78.28.95.57 1.89.86 2.87.25.84.51 1.67.77 2.54.55 2.16.55 2.16.55 5.16 1.1-.05 2.21-.09 3.34-.14 5.24.01 10.08 1.14 15.16 2.33 2.03.46 4.06.92 6.09 1.37 1.04.24 2.09.48 3.17.72 6.46 1.43 12.95 2.73 19.43 4.02.95.19 1.9.39 2.88.59.83.16 1.67.33 2.52.5 2.59.65 4.96 1.57 7.41 2.61-.01-.63-.01-1.26-.02-1.91-.02-3.03-.03-6.06-.04-9.09l-.03-3c-.02-7.19.22-14.33.56-21.5.74-16.32.87-32.65 1.06-48.99.05-4.24.11-8.49.16-12.73.11-8.26.21-16.52.31-24.78h3c.03-.55.05-1.1.08-1.66.37-5.22 1.3-10.02 2.72-15.06 1.58-5.72 2.93-11.46 4.13-17.28.16-.77.32-1.54.48-2.33.66-3.16 1.31-6.32 1.94-9.48 5.85-29.12 17.76-51.87 42.84-68.66 2.35-1.55 4.7-3.1 7.06-4.65 16.95-11.17 26.19-22.65 31.06-42.76 3.22-19.24-1.78-38.12-8.31-56.12-.67-2-1.34-4-2-6 1.02-.44 2.04-.88 3.09-1.33 16.57-7.34 31.06-16.86 43.91-29.67.75-.7 1.49-1.4 2.26-2.12C600 403 600 403 601 400"/><path fill="#e2ded8" d="M460 266c6.49 2.25 10.1 6.93 13.06 12.88 3.64 8.61 4.71 18.09 5.82 27.31 1.48 10.78 5.63 21.37 14.14 28.51 6.86 5 13.97 7.96 21.92 10.86 17.22 6.37 33.67 13.76 43.06 30.44.43.76.87 1.52 1.31 2.3 2.95 6.41 3.07 12.83 3.13 19.76l.03 2.8c-.14 11.24-3.74 22.06-10.47 31.14-3.41 2.59-6.93 3.74-11 5-1.49.51-2.98 1.03-4.46 1.55-6.8 2.34-13.62 4.52-20.54 6.45l-1 4c8.68-1.85 16.9-4.62 25.23-7.66.83-.3 1.67-.6 2.52-.91.75-.28 1.5-.55 2.26-.84C547 439 547 439 550 439c3.5 9.57 6.85 19.02 9 29 .2.86.41 1.73.62 2.62 3.66 16.99 1.6 35.3-6.82 50.61-8.13 12.47-19.82 19.85-31.99 27.83-31.5 20.94-38.13 50.53-45.4 85.3-1.95 9.26-4.14 18.46-6.41 27.64-1.83.59-1.83.59-4 1-2.74-1.48-2.74-1.48-5.88-3.75-.28-.2-.28-.2-1.71-1.24A360 360 0 0 1 452 654c-.58-.43-1.16-.87-1.76-1.32-19.9-14.96-37.72-31.71-46.24-55.68-.24-.63-.47-1.27-.71-1.92-2.27-6.35-3.46-12.77-4.67-19.39-3.88-20.21-12.3-32.39-26.14-47.42-8.98-10.2-16.63-22.39-17.48-36.27-.08-1.26-.16-2.52-.24-3.82-.68-16.43 3.65-31.28 10.24-46.18 6.51 1.9 12.94 3.98 19.34 6.23 2.66.77 2.66.77 6.66.77v-3c-.7-.22-1.39-.44-2.11-.67-3.17-1.02-6.34-2.05-9.51-3.08-1.1-.35-2.19-.7-3.32-1.05-8.78-2.88-14.67-5.6-19.62-13.7-.39-.62-.77-1.23-1.17-1.86-8.61-14.15-12.45-29.05-9.81-45.54 2.27-8.49 6.94-16.3 13.54-22.1.47-.47.93-.94 1.41-1.42 7.89-7.53 18.61-10.65 28.71-14.08 15.28-5.21 27.5-11.55 34.88-26.5 3.35-7.34 5.51-14.82 7.44-22.62 2.61-10.38 5.59-19.16 14.83-25.36 4.48-2.64 8.6-2.57 13.73-2.02"/><path fill="#dcb487" d="M335 421c4.41.57 7.24 2.21 10.94 4.62 13.45 8.54 27.73 14.83 43.27 18.51 1.79.87 1.79.87 2.55 2.96.08.63.16 1.26.24 1.91-5.15 1.8-9.17-.06-14.06-1.81-.4-.14-.4-.14-2.43-.83-3.64-1.26-7.09-2.58-10.51-4.36-1.02 3-2.01 5.99-3 9-.34 1.02-.67 2.05-1.02 3.11-6.25 19.59-7.76 38.68.96 57.83 4.76 9.04 11.53 16.32 18.55 23.67 11.85 12.54 16.94 26.25 19.82 43.01 6.77 36.9 30.27 59.34 59.69 80.38 1.02.56 2.03 1.12 3.08 1.7 2.92 2.3 2.92 2.3 3.65 5.18 0 1.13-.01 2.25-.02 3.41.01 1.28.01 2.57.02 3.89-.02 1.41-.05 2.82-.07 4.24-.01 1.47-.01 2.95-.01 4.43-.01 3.96-.06 7.92-.12 11.88-.04 3.27-.06 6.54-.08 9.81-.17 26.84-.98 53.66-2.45 80.46-7.94-1.56-15.84-3.24-23.75-4.94-1.17-.25-2.35-.5-3.55-.76-1.18-.25-2.35-.51-3.56-.76-.59-.13-.59-.13-3.55-.77-2.44-.52-4.88-1.06-7.32-1.59-6.08-1.34-12.07-2.56-18.27-3.18-.45-1.61-.9-3.22-1.36-4.84-.29-1.03-.58-2.07-.87-3.13-.65-2.3-1.29-4.6-1.93-6.89-2.81-10.04-2.81-10.04-4.14-14.68-10.02-35.17-17.25-70.78-23.28-106.83-.13-.77-.26-1.53-.39-2.33-.74-4.42-1.41-8.85-2.03-13.3h-3c.48 11.95 2.44 23.5 4.56 35.25.09.49.09.49.53 2.97 3.31 18.44 7.34 36.62 11.91 54.78.51 2.05 1.02 4.09 1.54 6.14l1.02 4.09c1 4 1.99 8.01 2.97 12.02 2.55 10.42 5.23 20.71 8.59 30.9.88 2.85.88 2.85.88 4.85-.55-.09-.55-.09-3.32-.55-3.41-.44-6.5-.37-9.92-.02-13.98 1.26-13.98 1.26-18.54-1.51-3.26-3.24-5.12-7.29-7.02-11.41-1.32-2.76-2.8-5.39-4.32-8.04-16.09-28.2-26.88-58.13-34.22-89.7-.71-2.99-1.49-5.96-2.26-8.93-1.2-4.78-2-9.44-2.46-14.34-.5-4.75-1.06-9.43-1.94-14.12-10.12-60.43-3.21-132.69 18.27-190.14 1.44-3.89 1.99-7.09 1.73-11.24"/><path fill="#be7a3f" d="M367 619c2.06.44 2.06.44 4 1 .16.98.31 1.97.47 2.98 5.12 32.31 11.28 64.13 19.02 95.91.46 1.92.93 3.84 1.39 5.76 2.98 12.37 6.26 24.6 9.94 36.78.28.95.57 1.89.86 2.87.25.84.51 1.67.77 2.54.55 2.16.55 2.16.55 5.16 1.1-.05 2.21-.09 3.34-.14 5.24.01 10.08 1.14 15.16 2.33 2.03.46 4.06.92 6.09 1.37 1.04.24 2.09.48 3.17.72 6.46 1.43 12.95 2.73 19.43 4.02.95.19 1.9.39 2.88.59.83.16 1.67.33 2.52.5 2.59.65 4.96 1.57 7.41 2.61-.01-.63-.01-1.26-.02-1.91-.02-3.03-.03-6.06-.04-9.09l-.03-3c-.02-7.2.22-14.35.56-21.53.73-16.16.87-32.32 1.06-48.49.05-4.19.11-8.37.16-12.56.11-8.14.21-16.28.31-24.42l5 1c.24 31.07.06 62.07-1 93.12-.02.71-.05 1.41-.07 2.14-.3 8.58-.6 17.16-.93 25.74 1.19.14 2.38.28 3.61.42 3.59.45 7.09 1.09 10.62 1.88 1.13.26 2.27.51 3.44.77.58.14.58.14 3.52.81 1.14.25 2.28.51 3.46.77 4.65 1.05 9.29 2.1 13.92 3.19 1.14.27 2.29.54 3.46.81 1.02.24 2.04.49 3.09.74 3.96.84 7.86 1.27 11.88 1.61.25-.79.5-1.57.75-2.38 1.25-3.63 2.64-7.18 4.07-10.75 9.38-23.51 17.65-47.2 24.29-71.64.95-3.44 1.95-6.87 2.96-10.3 1.78-6.2 3.18-12.4 4.37-18.74.2-1.08.41-2.15.62-3.25 2.7-14.58 4.81-29.27 6.94-43.94h5c-2.98 56.22-22.26 111.53-44 163l3.62-.06c3.56-.01 6.89.36 10.38 1.06.21-.66.41-1.32.62-2 5.07-11.05 14.19-17.71 25.29-22.07 4.68-1.41 9.23-1.76 14.09-1.93-.2-.53-.39-1.07-.59-1.61-10.29-28.09-14.07-54.12-1.29-82.08 4-8.3 8.82-15.39 14.88-22.31.62-.73 1.24-1.46 1.88-2.22 9.48-10.34 21.81-16.9 35.12-20.78 1.16-.37 2.31-.74 3.5-1.12 3.48-.88 6.36-1.09 9.94-1 1.05.01 2.1.03 3.18.05.79.02 1.57.05 2.38.07l-1 4c-.59.11-1.19.23-1.8.35-23.15 4.58-41.43 12.68-55.33 32.72-13.37 21.05-18.52 42.69-13.75 67.43 1.49 5.82 3.57 11.43 5.81 17 1.53 3.82 2.77 7.38 3.07 11.5-2.96 2.96-6.59 3.05-10.56 3.81-6.85 1.43-12.72 2.97-18.44 7.19-.63.45-1.26.9-1.91 1.37-4.53 3.55-7.29 7.66-10.09 12.63 11.15.98 22.25 1.24 33.44 1.25h2.67c13.85 0 27.23-.82 40.89-3.25 1.54-.25 3.09-.49 4.63-.73 33.18-5.28 64.9-18.09 88.08-43.11.42-.39.85-.77 1.29-1.16 2.19.31 2.19.31 4 1-.98 7.81-11.25 14.58-17.17 19.19-18.25 13.67-38.7 21.08-60.45 27.19l-2.7.76c-5.87 1.58-11.61 2.44-17.68 2.86-.1.65-.1.65-.62 3.94-2.45 11.01-11.21 19.13-20.38 25.06-13.03 7.12-27.03 10.42-41.56 6.44-12.42-4.24-23.41-12.27-29.54-24.05-1.53-4.06-1.74-8.09-1.9-12.39l-1.91-.12c-7.94-.59-15.56-2.08-23.34-3.76l-7.68-1.62-3.69-.79c-4.23-.89-8.46-1.75-12.69-2.59-1.13-.22-2.26-.44-3.43-.67-.74-.15-1.49-.3-2.26-.45.41.66.82 1.33 1.24 2.01.54.88 1.08 1.77 1.64 2.68.53.87 1.06 1.74 1.61 2.63 3.9 6.92 4.11 12.83 3.51 20.68-2.76 9.74-13.79 15.27-22 20-7.37 4.59-9.71 12.69-11.94 20.69-1.67 5.68-3.54 9.45-8.06 13.31-.59.52-1.17 1.03-1.78 1.56-4.84 3.64-8.32 3.59-14.18 2.93-5.13-.82-10.06-2.17-15.04-3.61-1.09-.32-2.18-.63-3.3-.95-27.24-7.96-62.4-19.73-78.32-45.18-.83-1.57-1.62-3.15-2.38-4.75-.34-.61-.67-1.21-1.02-1.84-3.66-7.62-3.21-19.12-.86-27.1 4.47-10.93 11.8-18.4 22.63-22.96 10.22-3.46 20.58-4.35 31.31-4.41.87-.01 1.74-.01 2.63-.02 5.41.06 10.11.82 15.31 2.33-.34-.93-.68-1.86-1.03-2.81-5.02-14.14-8.47-28.65-12-43.21-.99-4.08-2.01-8.15-3.03-12.23a857 857 0 0 1-15.82-78.44l-.36-2.35c-.59-4.01-.97-7.9-.76-11.96zm266-185c5.01 2.75 9.61 5.77 14.19 9.19.65.48 1.3.97 1.97 1.46 1.33.99 2.65 1.97 3.97 2.96 1.67 1.24 3.34 2.46 5.02 3.69C678 465.88 696.56 482.96 711 503c.82 1.08 1.65 2.16 2.47 3.25 6.14 8.42 6.14 8.42 5.78 12.75-.51 1.88-.51 1.88-1.25 4-.24.93-.49 1.85-.74 2.8-3.13 10.87-9.1 20.44-19.02 26.23-5.91 2.69-12.93 3.24-19.24 1.97-8.08-3.63-11.41-9.24-15.12-17-5.79-11.89-11.16-16.59-23.19-21.81-11.27-5.16-19.55-10.22-24.85-21.93-4.38-11.8-2.71-26.07 2.26-37.39 3.88-8.09 8.31-15.72 14.9-21.87m104 119c20.05 18.4 21.75 72.16 23 98 .17 6 .13 12 0 18-16.32 3.9-30.93.05-45-8.38-9.21-6.32-16.88-14.24-19-25.62-1.69-23.08 9.51-46.99 23.19-65.12.43-.57.85-1.14 1.3-1.73 2.11-2.71 3.18-4.04 6.51-5.15l1-3c2.07-1.82 2.07-1.82 4.56-3.69.83-.62 1.66-1.24 2.51-1.88.32-.24.32-.24 1.93-1.43"/><path fill="#bf7b3f" d="M751.629 818.473c1.37 1.53 1.37 1.53 1.37 5.53-25.71 29.91-75.25 48.39-113 55h-3c-1.07-14.85 4.1-27.31 13.69-38.46 13.32-14.91 29.93-24.63 49.31-29.54.4-.11.4-.11 2.43-.68 16.57-4.08 35.02-1.52 49.2 8.15M316 515c15.95 8.47 26.75 26.13 32.35 42.85 6.35 21.27 4.44 42.04-5.69 61.76-5.17 9.22-12.46 17.96-21.66 23.39h-2c-.7-3.33-1.35-6.66-2-10-.24-1.2-.48-2.4-.73-3.64-6.96-35.85-7.6-77.31-1.27-113.36z"/><path fill="#e2ded8" d="M590 172c3.97 3.76 5.84 7.88 6.24 13.3 0 1.23-.01 2.46-.01 3.73v2.04c0 1.42-.01 2.84-.02 4.26-.02 2.14-.02 4.27-.02 6.4-.08 32.16-.08 32.16-6.19 38.27-3.43.58-5.89.67-8.94-1.16-2.11-1.66-4.12-3.41-6.12-5.22-1.49-1.29-2.99-2.57-4.48-3.85-.75-.64-1.49-1.28-2.25-1.94-3.77-3.13-7.77-5.9-11.83-8.63-3.05-2.09-5.51-3.98-7.38-7.2-.21-10.79 9.55-19.33 16.53-26.61 6.69-6.73 14.48-14.42 24.47-13.39"/><path fill="#e1ddd7" d="M348.125 158.188c6.16 1.29 9.58 5.4 13.88 9.81.69.7 1.38 1.39 2.1 2.11 6.76 7.17 16.06 18.33 17.33 28.33-.57 4.64-1.91 5.54-5.43 8.56-2.74 1.74-5.57 3.25-8.44 4.75a193 193 0 0 0-20.45 12.64c-3.64 1.88-6.08 1.93-10.11 1.61-3.08-5.93-3.48-10.81-3.38-17.43l.03-3.02c.14-7.52.72-14.95 1.59-22.42.06-.49.06-.49.34-2.97.96-7.31 2.94-13.66 7.23-19.72 2.19-1.44 2.19-1.44 5.31-2.25"/><path fill="#be7a3f" d="M628.508 539.723c10.29 4.31 14.15 10.22 18.49 20.28 3.09 7.86 3.25 16.52.25 24.43-2.2 4.81-4.44 8.29-8.81 11.38-6.03 2.08-11.93 2.37-17.75-.38-6.22-5.64-10.05-11.48-13.5-19.12-.39-.84-.79-1.68-1.19-2.55-3.58-7.73-4.83-14.16-4-22.76 5.14-10.65 15.41-14.48 26.51-11.28"/><path fill="#bf7b40" d="M544 861c5.07 4.1 8.93 9.8 11 16 .07 2.23.08 4.46.06 6.69-.01 1.18-.02 2.36-.02 3.57-.02.91-.03 1.81-.04 2.74-24.43.22-48.65.16-73-2-.22-8.19 3.9-12.5 9.19-18.47 14.24-14.83 34.84-20.68 52.81-8.53"/><path fill="#be7a3f" d="M457 187c-.37 6.55-1.34 11.99-4.12 17.94-.16.34-.16.34-.95 2.07-5.38 11.52-12.21 23.57-24.63 28.37-5.38 1.46-9.55 1.44-14.61-.94-4.86-4.4-7.39-9.52-7.89-16.07-.12-7.25.77-13.53 3.2-20.37l1-3.67c2.17-3.62 2.45-3.87 6.26-4.89 1.8-.33 3.61-.62 5.43-.88.96-.15 1.91-.31 2.9-.47 11.09-1.63 22.23-1.47 33.41-1.09m23 1c8.85.57 17.26 2.39 25.84 4.52 2.16.48 2.16.48 5.85.96 3.59.66 5.52 1.13 8.31 3.52 3.94 8.45 5.79 21.37 3.34 30.45-3.04 5.69-6.25 9.17-12.28 11.86-6.28 1.41-10.64.96-16.22-2.12-2.73-1.76-4.71-3.73-6.84-6.19l-1.5-1.68c-8.58-10.34-9.62-22.41-8.5-35.32 1.02-3.51 1.02-3.51 2-6"/><path fill="#221d17" d="M441 326s7-1 15-1 15 1 15 1c2 5-5 22-15 24-10-2-17-19-15-24"/><path fill="none" stroke="#221d17" stroke-linecap="round" stroke-linejoin="round" stroke-width="6" d="M414 360c14 15 34 15 42-10 8 25 28 25 42 10"/><path fill="#211e1b" d="M389 288c3.79 2.11 6.46 4.94 8 9 .3 3.24.3 3.24.31 6.88.02 1.19.04 2.38.05 3.61-.52 5.06-2.5 8.35-5.48 12.39-3.47 2.56-5.51 2.86-9.73 2.6-4.59-1.03-6.44-4.46-8.96-8.1-2.2-6.26-2.3-12.73.5-18.82 3.6-6.11 8-9.23 15.31-7.56m138 5c4.68 2.71 7.37 5.83 9 11 .92 7.12.23 13.1-4 19-3 3.33-4.47 3.92-8.94 4.56-4.76-.25-6.85-2.12-10.06-5.56-3.17-6.21-2.85-13.23-2-20 3.32-7.09 7.99-10.53 16-9"/><path fill="#bf7b40" d="M601 399c-.4 4.9-2.79 7.42-6.19 10.69-.53.52-1.07 1.04-1.62 1.58-17.93 17.06-40.87 27.3-64 35.23-.74.26-1.47.51-2.23.77-4.11 1.36-7.63 2-11.96 1.73l1-5c.3-.09.3-.09 1.83-.56 28.88-8.94 56.35-19.99 77.2-42.79C597 399 597 399 601 399"/><path fill="#be7a3f" d="M275.018 321.63c3.08 0 6.16-.04 9.24-.08 18.68-.1 39.99 2.3 56.74 11.45v3c-5.52-.55-10.47-1.65-15.75-3.37-15.76-4.86-31.62-6.1-48.04-5.91-2.73.03-5.47.04-8.2.05-9.04.04-18.01.24-27.01 1.23v-4c10.97-2.29 21.86-2.37 33.02-2.37"/><path fill="#bf7b40" d="M627.599 325.588c2.99.04 5.99.04 8.98.04 9.99.04 19.61.35 29.42 2.37v4c-1.94-.14-3.87-.29-5.81-.44-.6-.04-.6-.04-3.65-.27-2.85-.23-5.69-.53-8.54-.85-25.34-2.23-52.25.03-75.93 9.77-2.45.94-3.64.69-6.07-.21v-3c1.48-.61 2.96-1.21 4.44-1.81.82-.34 1.65-.67 2.49-1.02 17.79-6.78 35.72-8.82 54.67-8.58"/><path fill="#bd793f" d="M340 361v4c-.61.13-.61.13-3.67.81-12.66 2.92-24.47 6.91-36.33 12.19-.72.32-1.43.64-2.17.96-8.88 4.02-16.86 8.81-24.69 14.62-1.66 1.21-3.4 2.33-5.14 3.42l-3-1v-3c2.27-1.87 4.5-3.5 6.94-5.12.72-.49 1.44-.98 2.19-1.48 18.05-11.91 43.63-26.21 65.87-25.4"/><path fill="#bf7b40" d="M568 365c7.97.38 14.97 1.89 22.5 4.5 1.04.36 2.08.71 3.16 1.08 16.3 5.73 30.54 13.29 44.65 23.23 1.55 1.09 3.12 2.14 4.69 3.19l-1 4c-3.55-1.29-6.3-2.8-9.31-5.06C613.29 382.17 591.2 373.8 568 369z"/><path fill="#bd7a3f" d="m617 352 4.45 1.14c20.24 5.28 20.24 5.28 26.55 8.86.84 2.15.84 2.15 1 4-6.6-.62-12.5-2.75-18.75-4.88-18.08-5.93-35.29-7.63-54.25-8.12v-3c10.44-5.22 30.18-.91 41 2"/><path fill="#bf7b3f" d="M335 421c4.41.57 7.24 2.21 10.94 4.62 13.45 8.54 27.73 14.83 43.27 18.51 1.79.87 1.79.87 2.55 2.96.08.63.16 1.26.24 1.91-4.72 1.51-8.36.32-12.88-1.25-.77-.26-1.54-.53-2.33-.8-32.27-11.5-32.27-11.5-41.79-21.95z"/><path fill="#c07d42" d="M330 345c.16.66.16.66 1 4-.29.01-.29.01-1.75.04-12.68.36-24.84 1.28-37.25 3.96-1.04.22-2.08.43-3.15.65-6.69 1.52-12.99 3.79-19.33 6.37-3.65 1.44-6.59 2.32-10.52 1.98.28-1.89.28-1.89 1-4a67.5 67.5 0 0 1 8.06-3.5l2.46-.91c19.64-7.14 38.7-8.96 59.48-8.59"/><path fill="#bf7b40" d="m333.5 329.5 3.72 1.16c2.78 1.34 2.78 1.34 3.69 3.5L341 336c-5.52-.55-10.48-1.65-15.75-3.38-7.55-2.37-15.06-3.68-22.91-4.63-2.12-.27-4.23-.62-6.34-.99l-1-2c10.93-6.03 27.35 1.02 38.5 4.5"/><path fill="#472219" d="M617 326c4.89-.05 9.78-.09 14.67-.11 1.65-.01 3.31-.02 4.97-.04 10.01-.1 19.5.19 29.36 2.15v4c-1.94-.14-3.88-.29-5.81-.44-1.08-.08-2.16-.16-3.27-.24-2.12-.17-4.23-.35-6.34-.56-7.42-.72-14.82-1.07-22.27-1.32-1.19-.05-2.38-.09-3.6-.13-2.91-.11-5.81-.21-8.71-.31z"/><path fill="#bf7c40" d="M340 361v4c-.64.15-.64.15-3.88.92-10.3 2.48-20.25 5.24-30.12 9.08.57-3.31 1.45-4.83 4-7 2.76-.96 5.44-1.8 8.25-2.56.37-.11.37-.11 2.24-.63 1.46-.42 2.93-.82 4.4-1.23 1.99-.55 3.97-1.13 5.94-1.72 3.2-.87 5.87-1.02 9.17-.86"/><path fill="#c07e44" d="M466 663c.82.16.82.16 5 1v58h-1l-1-31-3-1z"/><path fill="#bf7b40" d="M615 381c5.1.52 8.68 3.04 12.88 5.75.68.43 1.36.86 2.06 1.3 4.46 2.84 8.78 5.84 13.06 8.95l-1 4c-3.59-1.3-6.43-2.86-9.5-5.12-5.98-4.29-12.21-8.08-18.5-11.88z"/><path fill="#be7a3f" d="M319.438 344.813c1.02.01 2.04.03 3.08.04 2.5.04 4.99.09 7.48.15l1 4-29 1-1-2c6.21-3.32 11.49-3.37 18.44-3.19"/><path fill="#bf7c41" d="M583.445 348.902c1.08 0 2.15.01 3.26.01l3.42.03a2369 2369 0 0 1 11.87.06v3c-5.88.85-11.55 1.12-17.5 1.06-.82 0-1.64-.01-2.49-.01-2-.02-4-.03-6.01-.05v-3c2.61-1.31 4.53-1.12 7.45-1.1"/><path fill="#c07d42" d="M630 356c6.61 1.82 12.81 4.05 19 7v3c-5.27-.6-9.94-1.81-14.94-3.56-.68-.24-1.37-.47-2.07-.71-1.67-.57-3.33-1.15-4.99-1.73l2-1z"/><path fill="#be7a3f" d="M281 383v2l-1 1 3 1c-2.43 1.7-4.87 3.39-7.31 5.06-.35.25-.35.25-2.09 1.47-.67.46-1.34.91-2.03 1.38-.61.42-1.22.85-1.85 1.29-1.72.8-1.72.8-4.72-.2v-3c2.26-1.87 4.47-3.54 6.88-5.19.32-.23.32-.23 1.97-1.4 4.87-3.41 4.87-3.41 7.15-3.41m-5.582-29.133c.52.37 1.04.75 1.58 1.13v2c-2.06.85-4.12 1.68-6.19 2.5-1.14.47-2.29.93-3.48 1.41-3.05 1-5.16 1.33-8.33 1.09.11-1.82.11-1.82 1-4 2.8-1.55 2.8-1.55 6.31-2.87 1.16-.45 2.31-.9 3.49-1.37 3.2-.76 3.2-.76 5.62.11"/><path fill="#ba783e" d="M264 322c3.96-.06 7.92-.09 11.88-.12l3.41-.06c1.08 0 2.16-.01 3.26-.02l3.02-.03C288 322 288 322 290 324c-1 1-1 1-3.41 1.11-1.04 0-2.08-.01-3.16-.01-1.12-.01-2.25-.01-3.4-.01l-3.59-.03c-1.19 0-2.38-.01-3.6-.01-2.95-.01-5.89-.03-8.84-.05z"/><path fill="#c3844d" d="M288 322h14c-5.09 3.82-7.67 4.12-13.86 4.1-.33 0-.33 0-2-.01q-3.165 0-6.33-.03c-1.43 0-2.86-.01-4.29-.01-3.51-.01-7.01-.03-10.52-.05v-1l24-1z"/><path fill="#ba783e" d="M528 443h7c-2.45 2.45-4.48 3.03-7.75 4.12-1.03.36-2.05.71-3.11 1.08-3.18.81-5.87.95-9.14.8l1-5c2.33-.04 4.67-.04 7 0l1 1h4z"/><path fill="#bf7b3f" d="M289 350v3c-1.41.53-2.83 1.05-4.25 1.56-.79.29-1.58.58-2.39.88-2.55.61-3.91.41-6.36-.44v-3c4.5-1.76 8.18-2.19 13-2"/><path fill="#c18047" d="M661.188 327.438c.45.05.45.05 2.73.31.69.08 1.37.17 2.08.25v4l-13-1v-3c3.2-1.06 4.89-.95 8.19-.56"/><path fill="#bd7a3f" d="M617 326h18l1 2c-4.52.88-8.78 1.11-13.38 1.06-.62 0-.62 0-3.77-.02-.47-.01-.47-.01-2.85-.04z"/><path fill="#bf7c41" d="M606 376c3.87 1.14 7 2.23 10 5v2c-3.64 1.21-4.33.67-7.69-.94-.81-.38-1.61-.76-2.45-1.15-.3-.15-.3-.15-1.86-.91z"/><path fill="#ba783e" d="M288 381v3c-1.29.53-2.58 1.05-3.88 1.56-.35.15-.35.15-2.17.88C280 387 280 387 278 386l3-1v-3c3.62-2.12 3.62-2.12 7-1"/><path fill="#be7a3f" d="m647 326 9 1c-.33.5-.33.5-2 3-2.82.29-2.82.29-6.12.19-.55-.02-.55-.02-3.33-.08-.42-.02-.42-.02-2.55-.11v-1h5z"/><path fill="#dcb588" d="M605 244h2l-1 18h-2c-1.55-6.58-1.03-11.66 1-18"/><path fill="#c17e45" d="M387 444c.82.33.82.33 5 2l-1 4-8-1 4-1z"/><path fill="#322119" d="M519 293c0 3.76-1.42 4.73-3.82 7.44-1.57 2.08-1.95 3.99-2.18 6.56l-2-1c.53-4.53 2.27-7.39 5-11z"/><path fill="#c07e44" d="M281 383v2l-1 1 3 1-7 4c-.17-.82-.17-.82-1-5 3.75-3 3.75-3 6-3"/><path fill="#c07d43" d="M607 326h10v2l4 2h-9l1-3h-6z"/><path fill="#c17e45" d="M275.188 353.938c.3.18.3.18 1.81 1.06v2l-5 1v-2h-5c5.09-3.39 5.09-3.39 8.19-2.06"/><path fill="#ba783e" d="m285.563 349.938 3.44.06v3l-7 1-1-3c1-1 1-1 4.56-1.06"/><path fill="#c07d42" d="m339 779 2 1c-1.49 3.8-3.76 5.61-7 8l-2-1z"/><path fill="#bf7b40" d="M516 444c.66.17.66.17 4 1l1 4h-6z"/><path fill="#c07e43" d="M264 357v3l2 1-7 1c.38-1.94.38-1.94 1-4 2-1 2-1 4-1"/><path fill="#c07d43" d="m292 377 1 4-4 2-3-3c3.75-3 3.75-3 6-3"/><path fill="#ba783e" d="M624 355c.99.17.99.17 6 1l-1 3h-5z"/><path fill="#d1cbc1" d="m444 349 4 2-1 7h-2z"/><path fill="#c07d43" d="M255 322h9l1 4h-5l1-2c-.99-.17-.99-.17-6-1z"/><path fill="#dab182" d="M457 187h14v1l-2.3.15c-.99.07-1.99.15-3.01.23-.5.03-.5.03-2.99.21-2.7.41-2.7.41-5.7 2.41z"/><path fill="#dcb487" d="m441 876 2 1-1 3-7 1c3.75-3.88 3.75-3.88 6-5"/><path fill="#ddb78c" d="m321 648 2 2c-.38 3.62-.38 3.62-1 7h-1c-.88-6.15-.88-6.15-1-8z"/><path fill="#bf7b3f" d="m294 348 3 1v2l-6 1 1-3z"/><path fill="#e2ded8" d="m461 345 3 1a139 139 0 0 1-5 5h-2c1.15-2.47 2.05-4.05 4-6"/><path fill="#2f2016" d="M381 289c-1.39 3.37-2.98 4.99-6 7 .63-3.64 1.85-7 6-7"/></svg>