<?xml version='1.0' encoding='utf-8'?>
<svg xmlns="http://www.w3.org/2000/svg" version="1.1" width="1024" height="1024">
<path d="M0 0 C15.08 6.8 27.69 20.83 37.79 33.52 C40.42 36.8 43.12 40.01 45.84 43.2 C51.06 49.34 51.06 49.34 52.24 51.15 C53.41 52.84 53.41 52.84 56.09 55.39 C59.12 55.39 61.19 55.08 64.09 54.39 C66 54.05 67.91 53.73 69.82 53.42 C70.88 53.24 71.93 53.06 73.02 52.88 C105.64 47.57 136.24 50.91 167.65 60.81 C170.31 61.44 172.37 61.71 175.09 61.39 C177.06 60.08 177.06 60.08 178.94 58.24 C179.64 57.57 180.34 56.9 181.06 56.21 C181.79 55.49 182.52 54.76 183.27 54.02 C184.03 53.28 184.79 52.55 185.58 51.79 C189.54 47.95 193.42 44.04 197.27 40.08 C208.72 28.51 226.57 12.7 243.4 11.77 C247.28 12.01 250 12.86 252.84 15.72 C261.44 27.27 260.45 42.67 260.4 56.33 C260.4 57.21 260.4 58.09 260.4 58.99 C260.36 74.64 259.29 89.89 257.09 105.39 C256.97 106.19 256.86 106.99 256.75 107.82 C256.33 110.79 255.9 113.76 255.42 116.73 C254.6 123.27 255.64 127.25 258.77 133.02 C259.52 134.45 260.26 135.88 260.99 137.31 C261.35 138.01 261.71 138.71 262.09 139.43 C268.72 152.46 274.3 168.45 274.15 183.2 C274.14 184.36 274.13 185.53 274.12 186.72 C274.12 187.16 274.12 187.16 274.09 189.39 C275.12 189.36 276.15 189.32 277.21 189.29 C290.04 189 302.42 190.48 315.09 192.39 C315.09 193.71 315.09 195.03 315.09 196.39 C314.32 196.32 313.55 196.26 312.76 196.19 C304.27 195.5 295.79 195.1 287.27 194.83 C286 194.78 284.72 194.74 283.4 194.7 C280.3 194.59 277.19 194.49 274.09 194.39 C274.09 202.31 274.09 210.23 274.09 218.39 C282.71 221.2 282.71 221.2 285.39 222.07 C289.83 223.53 293.96 225.17 298.09 227.39 C298.09 228.38 298.09 229.37 298.09 230.39 C292.95 229.81 288.33 228.62 283.46 226.89 C279.37 225.45 275.37 224.11 271.09 223.39 C271 223.75 271 223.75 270.54 225.55 C268.23 234.34 268.23 234.34 266.4 238.39 C265.09 241.39 265.09 241.39 265.09 244.39 C265.52 244.63 265.52 244.63 267.69 245.82 C276.18 250.55 284.19 255.73 292.09 261.39 C291.76 262.71 291.43 264.03 291.09 265.39 C287.46 264.08 284.62 262.49 281.52 260.2 C266.4 249.39 266.4 249.39 261.09 249.39 C259.11 251.66 259.11 251.66 257.02 254.64 C256.33 255.62 255.64 256.59 254.93 257.59 C254.32 258.52 253.71 259.44 253.09 260.39 C252.85 260.72 252.85 260.72 251.65 262.38 C251.09 264.39 251.09 264.39 252.2 267.3 C263.48 285.74 281.58 297.5 298.89 309.66 C311.37 318.42 323.03 327.86 334.09 338.39 C334.39 338.68 334.39 338.68 335.9 340.12 C344.78 348.64 352.9 357.39 360.09 367.39 C360.56 368.05 361.04 368.71 361.53 369.38 C394.15 415.09 409.1 472.11 409.16 527.86 C409.17 530.1 409.18 532.34 409.19 534.58 C409.2 538.04 409.21 541.5 409.19 544.95 C409.16 548.34 409.19 551.73 409.22 555.11 C409.21 555.63 409.21 555.63 409.17 558.23 C409.26 563.54 409.64 566.57 413.5 570.38 C414.11 570.89 414.73 571.4 415.36 571.92 C425.56 580.59 430.28 598.78 432.09 611.39 C433.97 636.73 425.69 660.53 409.28 679.86 C408.92 680.28 408.92 680.28 407.09 682.39 C406.48 683.12 405.87 683.86 405.24 684.61 C392.32 699.91 374.73 710.65 357.02 719.58 C356.44 719.87 355.85 720.17 355.24 720.48 C312.15 741.68 265.53 749.64 218.09 753.39 C216.99 753.49 215.89 753.58 214.76 753.68 C204.37 754.54 194 754.59 183.59 754.58 C182.64 754.58 181.7 754.58 180.72 754.58 C123.48 754.48 63.25 747.8 12.09 720.39 C11 719.81 9.92 719.24 8.81 718.64 C-5.62 710.6 -19.08 699.67 -24.53 683.58 C-26.53 672.26 -25.21 661.47 -19.16 651.7 C-12.28 642.02 -2.71 637.13 8.82 634.65 C11.92 634.29 14.97 634.35 18.09 634.39 C17.51 633.59 16.94 632.78 16.36 631.95 C-6.24 599.46 -20.33 562.53 -29.25 524.16 C-29.97 521.17 -30.74 518.2 -31.51 515.23 C-32.71 510.45 -33.52 505.79 -33.98 500.89 C-34.48 496.14 -35.03 491.46 -35.91 486.77 C-45.95 426.89 -39.79 353.26 -17.46 296.55 C-16.36 293.62 -15.84 291.76 -16.49 288.66 C-18.14 286.03 -19.77 284.65 -22.29 282.83 C-34.68 273.25 -46.53 260.95 -52.91 246.39 C-52.91 245.4 -52.91 244.41 -52.91 243.39 C-61.82 247.47 -69.79 252.09 -77.67 257.92 C-79.37 259.15 -81.14 260.28 -82.91 261.39 C-83.9 261.06 -84.89 260.73 -85.91 260.39 C-85.91 259.4 -85.91 258.41 -85.91 257.39 C-83.51 255.47 -81.16 253.77 -78.6 252.08 C-78.24 251.83 -78.24 251.83 -76.4 250.6 C-61.04 240.39 -61.04 240.39 -55.91 240.39 C-56.26 239.47 -56.61 238.56 -56.97 237.61 C-59.34 231.21 -61.5 225.26 -61.91 218.39 C-69.6 220.09 -76.75 222.35 -84 225.4 C-86.86 226.37 -88.93 226.59 -91.91 226.39 C-91.65 224.51 -91.65 224.51 -90.91 222.39 C-89.29 221.33 -89.29 221.33 -87.2 220.54 C-86.43 220.25 -85.66 219.95 -84.87 219.65 C-84.06 219.36 -83.25 219.07 -82.41 218.77 C-81.64 218.47 -80.86 218.17 -80.05 217.86 C-74.64 215.83 -69.69 214.67 -63.91 213.39 C-63.91 205.8 -63.91 198.21 -63.91 190.39 C-68.39 190.51 -72.87 190.63 -77.35 190.76 C-78.87 190.81 -80.39 190.85 -81.91 190.89 C-90.94 191.13 -99.92 191.5 -108.91 192.39 C-108.91 191.07 -108.91 189.75 -108.91 188.39 C-93.49 185.8 -78.54 184.99 -62.91 185.39 C-62.84 184.54 -62.76 183.69 -62.69 182.81 C-60.24 160.27 -50.35 125.83 -33.91 109.39 C-33.79 107.28 -33.73 105.17 -33.7 103.05 C-33.68 101.68 -33.65 100.31 -33.62 98.94 C-33.61 98.21 -33.6 97.48 -33.58 96.73 C-32.05 17.93 -32.05 17.93 -17.4 2.83 C-11.57 -2.15 -7.21 -2.29 0 0 Z " fill="#DCB487" transform="translate(350.9140625,135.609375)" />
<path d="M0 0 C0.66 0.99 1.32 1.98 2 3 C15.06 20.74 30.94 32.72 48.8 45.27 C61.28 54.03 72.94 63.47 84 74 C84.3 74.29 84.3 74.29 85.81 75.73 C94.7 84.25 102.82 93 110 103 C110.48 103.66 110.95 104.32 111.44 104.99 C144.06 150.7 159.02 207.72 159.07 263.47 C159.08 265.71 159.09 267.95 159.1 270.19 C159.12 273.65 159.12 277.1 159.1 280.56 C159.08 283.95 159.1 287.33 159.13 290.72 C159.12 291.75 159.1 292.78 159.08 293.84 C159.17 299.14 159.56 302.17 163.41 305.99 C164.03 306.5 164.64 307.01 165.28 307.53 C175.47 316.2 180.2 334.39 182 347 C183.88 372.34 175.6 396.14 159.19 415.47 C158.47 416.3 157.75 417.14 157 418 C156.39 418.73 155.78 419.46 155.15 420.22 C142.24 435.52 124.64 446.26 106.94 455.19 C106.35 455.48 105.76 455.78 105.16 456.09 C62.06 477.29 15.45 485.25 -32 489 C-33.1 489.1 -34.19 489.19 -35.32 489.29 C-45.71 490.15 -56.08 490.2 -66.5 490.19 C-67.45 490.19 -68.39 490.19 -69.36 490.19 C-126.61 490.09 -186.84 483.4 -238 456 C-239.08 455.42 -240.16 454.85 -241.28 454.25 C-255.7 446.21 -269.17 435.28 -274.61 419.19 C-276.61 407.87 -275.3 397.08 -269.25 387.31 C-261.54 376.47 -250.87 372.02 -237.98 369.82 C-231.98 368.95 -226 368.72 -219.94 368.69 C-219.07 368.68 -218.2 368.68 -217.31 368.67 C-211.9 368.73 -207.2 369.49 -202 371 C-202.34 370.07 -202.68 369.14 -203.03 368.19 C-208.05 354.05 -211.5 339.54 -215.03 324.98 C-216.02 320.9 -217.04 316.83 -218.06 312.75 C-224.56 286.82 -229.82 260.74 -233.88 234.31 C-234 233.54 -234.12 232.76 -234.24 231.96 C-234.83 227.94 -235.12 224.06 -235 220 C-233.06 219.44 -233.06 219.44 -231 219 C-229.03 220.97 -229.18 224.57 -228.77 227.28 C-228.52 228.82 -228.28 230.37 -228.03 231.92 C-227.91 232.74 -227.78 233.56 -227.65 234.4 C-223.19 262.9 -217.33 290.88 -210.51 318.89 C-210.05 320.81 -209.58 322.73 -209.12 324.65 C-206.14 337.02 -202.86 349.25 -199.18 361.43 C-198.9 362.38 -198.61 363.32 -198.32 364.3 C-198.07 365.14 -197.81 365.97 -197.55 366.84 C-197 369 -197 369 -197 372 C-195.9 371.95 -194.79 371.91 -193.66 371.86 C-188.42 371.87 -183.58 373 -178.5 374.19 C-176.47 374.65 -174.44 375.11 -172.41 375.56 C-171.37 375.8 -170.32 376.04 -169.24 376.28 C-162.78 377.71 -156.29 379.01 -149.81 380.3 C-148.86 380.49 -147.91 380.69 -146.93 380.89 C-146.1 381.05 -145.26 381.22 -144.41 381.39 C-141.82 382.04 -139.45 382.96 -137 384 C-137.01 383.37 -137.01 382.74 -137.02 382.09 C-137.04 379.06 -137.05 376.03 -137.06 373 C-137.07 372.01 -137.08 371.02 -137.09 370 C-137.11 362.81 -136.87 355.67 -136.53 348.5 C-135.79 332.18 -135.66 315.85 -135.47 299.51 C-135.42 295.27 -135.36 291.02 -135.31 286.78 C-135.2 278.52 -135.1 270.26 -135 262 C-134.01 262 -133.02 262 -132 262 C-131.97 261.45 -131.95 260.9 -131.92 260.34 C-131.55 255.12 -130.62 250.32 -129.2 245.28 C-127.62 239.56 -126.27 233.82 -125.07 228 C-124.91 227.23 -124.75 226.46 -124.59 225.67 C-123.93 222.51 -123.28 219.35 -122.65 216.19 C-116.8 187.07 -104.89 164.32 -79.81 147.53 C-77.46 145.98 -75.11 144.43 -72.75 142.88 C-55.8 131.71 -46.56 120.23 -41.69 100.12 C-38.47 80.88 -43.47 62 -50 44 C-50.67 42 -51.34 40 -52 38 C-50.98 37.56 -49.96 37.12 -48.91 36.67 C-32.34 29.33 -17.85 19.81 -5 7 C-4.25 6.3 -3.51 5.6 -2.74 4.88 C-1 3 -1 3 0 0 Z " fill="#DCB487" transform="translate(601,400)" />
<path d="M0 0 C6.49 2.25 10.1 6.93 13.06 12.88 C16.7 21.49 17.77 30.97 18.88 40.19 C20.36 50.97 24.51 61.56 33.02 68.7 C39.88 73.7 46.99 76.66 54.94 79.56 C72.16 85.93 88.61 93.32 98 110 C98.43 110.76 98.87 111.52 99.31 112.3 C102.26 118.71 102.38 125.13 102.44 132.06 C102.45 132.98 102.46 133.91 102.47 134.86 C102.33 146.1 98.73 156.92 92 166 C88.59 168.59 85.07 169.74 81 171 C79.51 171.51 78.02 172.03 76.54 172.55 C69.74 174.89 62.92 177.07 56 179 C55.67 180.32 55.34 181.64 55 183 C63.68 181.15 71.9 178.38 80.23 175.34 C81.06 175.04 81.9 174.74 82.75 174.43 C83.5 174.15 84.25 173.88 85.01 173.59 C87 173 87 173 90 173 C93.5 182.57 96.85 192.02 99 202 C99.2 202.86 99.41 203.73 99.62 204.62 C103.28 221.61 101.22 239.92 92.8 255.23 C84.67 267.7 72.98 275.08 60.81 283.06 C29.31 304 22.68 333.59 15.41 368.36 C13.46 377.62 11.27 386.82 9 396 C7.17 396.59 7.17 396.59 5 397 C2.26 395.52 2.26 395.52 -0.88 393.25 C-1.16 393.05 -1.16 393.05 -2.59 392.01 C-4.41 390.69 -6.21 389.35 -8 388 C-8.58 387.57 -9.16 387.13 -9.76 386.68 C-29.66 371.72 -47.48 354.97 -56 331 C-56.24 330.37 -56.47 329.73 -56.71 329.08 C-58.98 322.73 -60.17 316.31 -61.38 309.69 C-65.26 289.48 -73.68 277.3 -87.52 262.27 C-96.5 252.07 -104.15 239.88 -105 226 C-105.08 224.74 -105.16 223.48 -105.24 222.18 C-105.92 205.75 -101.59 190.9 -95 176 C-88.49 177.9 -82.06 179.98 -75.66 182.23 C-73 183 -73 183 -69 183 C-69 182.01 -69 181.02 -69 180 C-69.7 179.78 -70.39 179.56 -71.11 179.33 C-74.28 178.31 -77.45 177.28 -80.62 176.25 C-81.72 175.9 -82.81 175.55 -83.94 175.2 C-92.72 172.32 -98.61 169.6 -103.56 161.5 C-103.95 160.88 -104.33 160.27 -104.73 159.64 C-113.34 145.49 -117.18 130.59 -114.54 114.1 C-112.27 105.61 -107.6 97.8 -101 92 C-100.53 91.53 -100.07 91.06 -99.59 90.58 C-91.7 83.05 -80.98 79.93 -70.88 76.5 C-55.6 71.29 -43.38 64.95 -36 50 C-32.65 42.66 -30.49 35.18 -28.56 27.38 C-25.95 17 -22.97 8.22 -13.73 2.02 C-9.25 -0.62 -5.13 -0.55 0 0 Z " fill="#E2DED8" transform="translate(460,266)" />
<path d="M0 0 C4.41 0.57 7.24 2.21 10.94 4.62 C24.39 13.16 38.67 19.45 54.21 23.13 C56 24 56 24 56.76 26.09 C56.84 26.72 56.92 27.35 57 28 C51.85 29.8 47.83 27.94 42.94 26.19 C42.54 26.05 42.54 26.05 40.51 25.36 C36.87 24.1 33.42 22.78 30 21 C28.98 24 27.99 26.99 27 30 C26.66 31.02 26.33 32.05 25.98 33.11 C19.73 52.7 18.22 71.79 26.94 90.94 C31.7 99.98 38.47 107.26 45.49 114.61 C57.34 127.15 62.43 140.86 65.31 157.62 C72.08 194.52 95.58 216.96 125 238 C126.02 238.56 127.03 239.12 128.08 239.7 C131 242 131 242 131.73 244.88 C131.73 246.01 131.72 247.13 131.71 248.29 C131.72 249.57 131.72 250.86 131.73 252.18 C131.71 253.59 131.68 255 131.66 256.42 C131.65 257.89 131.65 259.37 131.65 260.85 C131.64 264.81 131.59 268.77 131.53 272.73 C131.49 276 131.47 279.27 131.45 282.54 C131.28 309.38 130.47 336.2 129 363 C121.06 361.44 113.16 359.76 105.25 358.06 C104.08 357.81 102.9 357.56 101.7 357.3 C100.52 357.05 99.35 356.79 98.14 356.54 C97.55 356.41 97.55 356.41 94.59 355.77 C92.15 355.25 89.71 354.71 87.27 354.18 C81.19 352.84 75.2 351.62 69 351 C68.55 349.39 68.1 347.78 67.64 346.16 C67.35 345.13 67.06 344.09 66.77 343.03 C66.12 340.73 65.48 338.43 64.84 336.14 C62.03 326.1 62.03 326.1 60.7 321.46 C50.68 286.29 43.45 250.68 37.42 214.63 C37.29 213.86 37.16 213.1 37.03 212.3 C36.29 207.88 35.62 203.45 35 199 C34.01 199 33.02 199 32 199 C32.48 210.95 34.44 222.5 36.56 234.25 C36.65 234.74 36.65 234.74 37.09 237.22 C40.4 255.66 44.43 273.84 49 292 C49.51 294.05 50.02 296.09 50.54 298.14 C50.88 299.5 51.22 300.87 51.56 302.23 C52.56 306.23 53.55 310.24 54.53 314.25 C57.08 324.67 59.76 334.96 63.12 345.15 C64 348 64 348 64 350 C63.45 349.91 63.45 349.91 60.68 349.45 C57.27 349.01 54.18 349.08 50.76 349.43 C36.78 350.69 36.78 350.69 32.22 347.92 C28.96 344.68 27.1 340.63 25.2 336.51 C23.88 333.75 22.4 331.12 20.88 328.47 C4.79 300.27 -6 270.34 -13.34 238.77 C-14.05 235.78 -14.83 232.81 -15.6 229.84 C-16.8 225.06 -17.6 220.4 -18.06 215.5 C-18.56 210.75 -19.12 206.07 -20 201.38 C-30.12 140.95 -23.21 68.69 -1.73 11.24 C-0.29 7.35 0.26 4.15 0 0 Z " fill="#DCB487" transform="translate(335,421)" />
<path d="M0 0 C2.06 0.44 2.06 0.44 4 1 C4.16 1.98 4.31 2.97 4.47 3.98 C9.59 36.29 15.75 68.11 23.49 99.89 C23.95 101.81 24.42 103.73 24.88 105.65 C27.86 118.02 31.14 130.25 34.82 142.43 C35.1 143.38 35.39 144.32 35.68 145.3 C35.93 146.14 36.19 146.97 36.45 147.84 C37 150 37 150 37 153 C38.1 152.95 39.21 152.91 40.34 152.86 C45.58 152.87 50.42 154 55.5 155.19 C57.53 155.65 59.56 156.11 61.59 156.56 C62.63 156.8 63.68 157.04 64.76 157.28 C71.22 158.71 77.71 160.01 84.19 161.3 C85.14 161.49 86.09 161.69 87.07 161.89 C87.9 162.05 88.74 162.22 89.59 162.39 C92.18 163.04 94.55 163.96 97 165 C96.99 164.37 96.99 163.74 96.98 163.09 C96.96 160.06 96.95 157.03 96.94 154 C96.93 153.01 96.92 152.02 96.91 151 C96.89 143.8 97.13 136.65 97.47 129.47 C98.2 113.31 98.34 97.15 98.53 80.98 C98.58 76.79 98.64 72.61 98.69 68.42 C98.8 60.28 98.9 52.14 99 44 C100.65 44.33 102.3 44.66 104 45 C104.24 76.07 104.06 107.07 103 138.12 C102.98 138.83 102.95 139.53 102.93 140.26 C102.63 148.84 102.33 157.42 102 166 C103.19 166.14 104.38 166.28 105.61 166.42 C109.2 166.87 112.7 167.51 116.23 168.3 C117.36 168.56 118.5 168.81 119.67 169.07 C120.25 169.21 120.25 169.21 123.19 169.88 C124.33 170.13 125.47 170.39 126.65 170.65 C131.3 171.7 135.94 172.75 140.57 173.84 C141.71 174.11 142.86 174.38 144.03 174.65 C145.05 174.89 146.07 175.14 147.12 175.39 C151.08 176.23 154.98 176.66 159 177 C159.25 176.21 159.5 175.43 159.75 174.62 C161 170.99 162.39 167.44 163.82 163.87 C173.2 140.36 181.47 116.67 188.11 92.23 C189.06 88.79 190.06 85.36 191.07 81.93 C192.85 75.73 194.25 69.53 195.44 63.19 C195.64 62.11 195.85 61.04 196.06 59.94 C198.76 45.36 200.87 30.67 203 16 C204.65 16 206.3 16 208 16 C205.02 72.22 185.74 127.53 164 179 C164.6 178.99 164.6 178.99 167.62 178.94 C171.18 178.93 174.51 179.3 178 180 C178.21 179.34 178.41 178.68 178.62 178 C183.69 166.95 192.81 160.29 203.91 155.93 C208.59 154.52 213.14 154.17 218 154 C217.8 153.47 217.61 152.93 217.41 152.39 C207.12 124.3 203.34 98.27 216.12 70.31 C220.12 62.01 224.94 54.92 231 48 C231.62 47.27 232.24 46.54 232.88 45.78 C242.36 35.44 254.69 28.88 268 25 C269.16 24.63 270.31 24.26 271.5 23.88 C274.98 23 277.86 22.79 281.44 22.88 C282.49 22.89 283.54 22.91 284.62 22.93 C285.41 22.95 286.19 22.98 287 23 C286.67 24.32 286.34 25.64 286 27 C285.41 27.11 284.81 27.23 284.2 27.35 C261.05 31.93 242.77 40.03 228.87 60.07 C215.5 81.12 210.35 102.76 215.12 127.5 C216.61 133.32 218.69 138.93 220.93 144.5 C222.46 148.32 223.7 151.88 224 156 C221.04 158.96 217.41 159.05 213.44 159.81 C206.59 161.24 200.72 162.78 195 167 C194.37 167.45 193.74 167.9 193.09 168.37 C188.56 171.92 185.8 176.03 183 181 C194.15 181.98 205.25 182.24 216.44 182.25 C217.32 182.25 218.2 182.25 219.11 182.25 C232.96 182.25 246.34 181.43 260 179 C261.54 178.75 263.09 178.51 264.63 178.27 C297.81 172.99 329.53 160.18 352.71 135.16 C353.13 134.77 353.56 134.39 354 134 C356.19 134.31 356.19 134.31 358 135 C357.02 142.81 346.75 149.58 340.83 154.19 C322.58 167.86 302.13 175.27 280.38 181.38 C279.49 181.63 278.6 181.88 277.68 182.14 C271.81 183.72 266.07 184.58 260 185 C259.9 185.65 259.9 185.65 259.38 188.94 C256.93 199.95 248.17 208.07 239 214 C225.97 221.12 211.97 224.42 197.44 220.44 C185.02 216.2 174.03 208.17 167.9 196.39 C166.37 192.33 166.16 188.3 166 184 C165.37 183.96 164.74 183.92 164.09 183.88 C156.15 183.29 148.53 181.8 140.75 180.12 C138.19 179.58 135.63 179.04 133.07 178.5 C132.46 178.37 132.46 178.37 129.38 177.71 C125.15 176.82 120.92 175.96 116.69 175.12 C115.56 174.9 114.43 174.68 113.26 174.45 C112.52 174.3 111.77 174.15 111 174 C111.41 174.66 111.82 175.33 112.24 176.01 C112.78 176.89 113.32 177.78 113.88 178.69 C114.41 179.56 114.94 180.43 115.49 181.32 C119.39 188.24 119.6 194.15 119 202 C116.24 211.74 105.21 217.27 97 222 C89.63 226.59 87.29 234.69 85.06 242.69 C83.39 248.37 81.52 252.14 77 256 C76.41 256.52 75.83 257.03 75.22 257.56 C70.38 261.2 66.9 261.15 61.04 260.49 C55.91 259.67 50.98 258.32 46 256.88 C44.91 256.56 43.82 256.25 42.7 255.93 C15.46 247.97 -19.7 236.2 -35.62 210.75 C-36.45 209.18 -37.24 207.6 -38 206 C-38.34 205.39 -38.67 204.79 -39.02 204.16 C-42.68 196.54 -42.23 185.04 -39.88 177.06 C-35.41 166.13 -28.08 158.66 -17.25 154.1 C-7.03 150.64 3.33 149.75 14.06 149.69 C14.93 149.68 15.8 149.68 16.69 149.67 C22.1 149.73 26.8 150.49 32 152 C31.66 151.07 31.32 150.14 30.97 149.19 C25.95 135.05 22.5 120.54 18.97 105.98 C17.98 101.9 16.96 97.83 15.94 93.75 C9.44 67.82 4.18 41.74 0.12 15.31 C0.06 14.92 0.06 14.92 -0.24 12.96 C-0.83 8.95 -1.21 5.06 -1 1 C-0.67 0.67 -0.34 0.34 0 0 Z " fill="#BE7A3F" transform="translate(367,619)" />
<path d="M0 0 C5.01 2.75 9.61 5.77 14.19 9.19 C14.84 9.67 15.49 10.16 16.16 10.65 C17.49 11.64 18.81 12.62 20.13 13.61 C21.8 14.85 23.47 16.07 25.15 17.3 C45 31.88 63.56 48.96 78 69 C78.82 70.08 79.65 71.16 80.47 72.25 C86.61 80.67 86.61 80.67 86.25 85 C85.74 86.88 85.74 86.88 85 89 C84.76 89.93 84.51 90.85 84.26 91.8 C81.13 102.67 75.16 112.24 65.24 118.03 C59.33 120.72 52.31 121.27 46 120 C37.92 116.37 34.59 110.76 30.88 103 C25.09 91.11 19.72 86.41 7.69 81.19 C-3.58 76.03 -11.86 70.97 -17.16 59.26 C-21.54 47.46 -19.87 33.19 -14.9 21.87 C-11.02 13.78 -6.59 6.15 0 0 Z " fill="#BE7A3F" transform="translate(633,434)" />
<path d="M0 0 C20.05 18.4 21.75 72.16 23 98 C23.17 104 23.13 110 23 116 C6.68 119.9 -7.93 116.05 -22 107.62 C-31.21 101.3 -38.88 93.38 -41 82 C-42.69 58.92 -31.49 35.01 -17.81 16.88 C-17.38 16.31 -16.96 15.74 -16.51 15.15 C-14.4 12.44 -13.33 11.11 -10 10 C-9.67 9.01 -9.34 8.02 -9 7 C-6.93 5.18 -6.93 5.18 -4.44 3.31 C-3.61 2.69 -2.78 2.07 -1.93 1.43 C-1.61 1.19 -1.61 1.19 0 0 Z " fill="#BE7A3F" transform="translate(737,553)" />
<path d="M0 0 C1.37 1.53 1.37 1.53 1.37 5.53 C-24.34 35.44 -73.88 53.92 -111.63 60.53 C-112.62 60.53 -113.61 60.53 -114.63 60.53 C-115.7 45.68 -110.53 33.22 -100.94 22.07 C-87.62 7.16 -71.01 -2.56 -51.63 -7.47 C-51.23 -7.58 -51.23 -7.58 -49.2 -8.15 C-32.63 -12.23 -14.18 -9.67 0 0 Z " fill="#BF7B3F" transform="translate(751.62890625,818.47265625)" />
<path d="M0 0 C15.95 8.47 26.75 26.13 32.35 42.85 C38.7 64.12 36.79 84.89 26.66 104.61 C21.49 113.83 14.2 122.57 5 128 C4.34 128 3.68 128 3 128 C2.3 124.67 1.65 121.34 1 118 C0.76 116.8 0.52 115.6 0.27 114.36 C-6.69 78.51 -7.33 37.05 -1 1 C-0.67 0.67 -0.34 0.34 0 0 Z " fill="#BF7B3F" transform="translate(316,515)" />
<path d="M0 0 C3.97 3.76 5.84 7.88 6.24 13.3 C6.24 14.53 6.23 15.76 6.23 17.03 C6.23 17.7 6.23 18.38 6.23 19.07 C6.23 20.49 6.22 21.91 6.21 23.33 C6.19 25.47 6.19 27.6 6.19 29.73 C6.11 61.89 6.11 61.89 0 68 C-3.43 68.58 -5.89 68.67 -8.94 66.84 C-11.05 65.18 -13.06 63.43 -15.06 61.62 C-16.55 60.33 -18.05 59.05 -19.54 57.77 C-20.29 57.13 -21.03 56.49 -21.79 55.83 C-25.56 52.7 -29.56 49.93 -33.62 47.2 C-36.67 45.11 -39.13 43.22 -41 40 C-41.21 29.21 -31.45 20.67 -24.47 13.39 C-17.78 6.66 -9.99 -1.03 0 0 Z " fill="#E2DED8" transform="translate(590,172)" />
<path d="M0 0 C6.16 1.29 9.58 5.4 13.88 9.81 C14.57 10.51 15.26 11.2 15.98 11.92 C22.74 19.09 32.04 30.25 33.31 40.25 C32.74 44.89 31.4 45.79 27.88 48.81 C25.14 50.55 22.31 52.06 19.44 53.56 C12.3 57.38 5.6 61.53 -1.01 66.2 C-4.65 68.08 -7.09 68.13 -11.12 67.81 C-14.2 61.88 -14.6 57 -14.5 50.38 C-14.49 49.38 -14.48 48.39 -14.47 47.36 C-14.33 39.84 -13.75 32.41 -12.88 24.94 C-12.82 24.45 -12.82 24.45 -12.54 21.97 C-11.58 14.66 -9.6 8.31 -5.31 2.25 C-3.12 0.81 -3.12 0.81 0 0 Z " fill="#E1DDD7" transform="translate(348.125,158.1875)" />
<path d="M0 0 C10.29 4.31 14.15 10.22 18.49 20.28 C21.58 28.14 21.74 36.8 18.74 44.71 C16.54 49.52 14.3 53 9.93 56.09 C3.9 58.17 -2 58.46 -7.82 55.71 C-14.04 50.07 -17.87 44.23 -21.32 36.59 C-21.71 35.75 -22.11 34.91 -22.51 34.04 C-26.09 26.31 -27.34 19.88 -26.51 11.28 C-21.37 0.63 -11.1 -3.2 0 0 Z " fill="#BE7A3F" transform="translate(628.5078125,539.72265625)" />
<path d="M0 0 C5.07 4.1 8.93 9.8 11 16 C11.07 18.23 11.08 20.46 11.06 22.69 C11.05 23.87 11.04 25.05 11.04 26.26 C11.02 27.17 11.01 28.07 11 29 C-13.43 29.22 -37.65 29.16 -62 27 C-62.22 18.81 -58.1 14.5 -52.81 8.53 C-38.57 -6.3 -17.97 -12.15 0 0 Z " fill="#BF7B40" transform="translate(544,861)" />
<path d="M0 0 C-0.37 6.55 -1.34 11.99 -4.12 17.94 C-4.28 18.28 -4.28 18.28 -5.07 20.01 C-10.45 31.53 -17.28 43.58 -29.7 48.38 C-35.08 49.84 -39.25 49.82 -44.31 47.44 C-49.17 43.04 -51.7 37.92 -52.2 31.37 C-52.32 24.12 -51.43 17.84 -49 11 C-48.67 9.79 -48.34 8.58 -48 7.33 C-45.83 3.71 -45.55 3.46 -41.74 2.44 C-39.94 2.11 -38.13 1.82 -36.31 1.56 C-35.35 1.41 -34.4 1.25 -33.41 1.09 C-22.32 -0.54 -11.18 -0.38 0 0 Z " fill="#BE7A3F" transform="translate(457,187)" />
<path d="M0 0 C8.85 0.57 17.26 2.39 25.84 4.52 C28 5 28 5 31.69 5.48 C35.28 6.14 37.21 6.61 40 9 C43.94 17.45 45.79 30.37 43.34 39.45 C40.3 45.14 37.09 48.62 31.06 51.31 C24.78 52.72 20.42 52.27 14.84 49.19 C12.11 47.43 10.13 45.46 8 43 C7.75 42.72 7.75 42.72 6.5 41.32 C-2.08 30.98 -3.12 18.91 -2 6 C-0.98 2.49 -0.98 2.49 0 0 Z " fill="#BE7A3F" transform="translate(480,188)" />
<g id="NoseAndMouth">
  <!-- Nose: Clean rounded cat nose -->
  <path d="M 441 326 C 441 326 448 325 456 325 C 464 325 471 326 471 326 C 473 331 466 348 456 350 C 446 348 439 331 441 326 Z" fill="#221D17" />
  <!-- Mouth: Clean double-arc stroke smile -->
  <path d="M 414 360 C 428 375 448 375 456 350 C 464 375 484 375 498 360" stroke="#221D17" stroke-width="6" stroke-linecap="round" stroke-linejoin="round" fill="none" />
</g>
<path d="M0 0 C3.79 2.11 6.46 4.94 8 9 C8.3 12.24 8.3 12.24 8.31 15.88 C8.33 17.07 8.35 18.26 8.36 19.49 C7.84 24.55 5.86 27.84 2.88 31.88 C-0.59 34.44 -2.63 34.74 -6.85 34.48 C-11.44 33.45 -13.29 30.02 -15.81 26.38 C-18.01 20.12 -18.11 13.65 -15.31 7.56 C-11.71 1.45 -7.31 -1.67 0 0 Z " fill="#211E1B" transform="translate(389,288)" />
<path d="M0 0 C4.68 2.71 7.37 5.83 9 11 C9.92 18.12 9.23 24.1 5 30 C2 33.33 0.53 33.92 -3.94 34.56 C-8.7 34.31 -10.79 32.44 -14 29 C-17.17 22.79 -16.85 15.77 -16 9 C-12.68 1.91 -8.01 -1.53 0 0 Z " fill="#211E1B" transform="translate(527,293)" />
<path d="M0 0 C-0.4 4.9 -2.79 7.42 -6.19 10.69 C-6.72 11.21 -7.26 11.73 -7.81 12.27 C-25.74 29.33 -48.68 39.57 -71.81 47.5 C-72.55 47.76 -73.28 48.01 -74.04 48.27 C-78.15 49.63 -81.67 50.27 -86 50 C-85.67 48.35 -85.34 46.7 -85 45 C-84.7 44.91 -84.7 44.91 -83.17 44.44 C-54.29 35.5 -26.82 24.45 -5.97 1.65 C-4 0 -4 0 0 0 Z " fill="#BF7B40" transform="translate(601,399)" />
<path d="M0 0 C3.08 -0 6.16 -0.04 9.24 -0.08 C27.92 -0.18 49.23 2.22 65.98 11.37 C65.98 12.36 65.98 13.35 65.98 14.37 C60.46 13.82 55.51 12.72 50.23 11 C34.47 6.14 18.61 4.9 2.19 5.09 C-0.54 5.12 -3.28 5.13 -6.01 5.14 C-15.05 5.18 -24.02 5.38 -33.02 6.37 C-33.02 5.05 -33.02 3.73 -33.02 2.37 C-22.05 0.08 -11.16 -0 0 0 Z " fill="#BE7A3F" transform="translate(275.017578125,321.62939453125)" />
<path d="M0 0 C2.99 0.04 5.99 0.04 8.98 0.04 C18.97 0.08 28.59 0.39 38.4 2.41 C38.4 3.73 38.4 5.05 38.4 6.41 C36.46 6.27 34.53 6.12 32.59 5.97 C31.99 5.93 31.99 5.93 28.94 5.7 C26.09 5.47 23.25 5.17 20.4 4.85 C-4.94 2.62 -31.85 4.88 -55.53 14.62 C-57.98 15.56 -59.17 15.31 -61.6 14.41 C-61.6 13.42 -61.6 12.43 -61.6 11.41 C-60.12 10.8 -58.64 10.2 -57.16 9.6 C-56.34 9.26 -55.51 8.93 -54.67 8.58 C-36.88 1.8 -18.95 -0.24 0 0 Z " fill="#BF7B40" transform="translate(627.598876953125,325.58837890625)" />
<path d="M0 0 C0 1.32 0 2.64 0 4 C-0.61 4.13 -0.61 4.13 -3.67 4.81 C-16.33 7.73 -28.14 11.72 -40 17 C-40.72 17.32 -41.43 17.64 -42.17 17.96 C-51.05 21.98 -59.03 26.77 -66.86 32.58 C-68.52 33.79 -70.26 34.91 -72 36 C-72.99 35.67 -73.98 35.34 -75 35 C-75 34.01 -75 33.02 -75 32 C-72.73 30.13 -70.5 28.5 -68.06 26.88 C-67.34 26.39 -66.62 25.9 -65.87 25.4 C-47.82 13.49 -22.24 -0.81 0 0 Z " fill="#BD793F" transform="translate(340,361)" />
<path d="M0 0 C7.97 0.38 14.97 1.89 22.5 4.5 C23.54 4.86 24.58 5.21 25.66 5.58 C41.96 11.31 56.2 18.87 70.31 28.81 C71.86 29.9 73.43 30.95 75 32 C74.67 33.32 74.34 34.64 74 36 C70.45 34.71 67.7 33.2 64.69 30.94 C45.29 17.17 23.2 8.8 0 4 C0 2.68 0 1.36 0 0 Z " fill="#BF7B40" transform="translate(568,365)" />
<path d="M0 0 C1.48 0.38 2.97 0.76 4.45 1.14 C24.69 6.42 24.69 6.42 31 10 C31.84 12.15 31.84 12.15 32 14 C25.4 13.38 19.5 11.25 13.25 9.12 C-4.83 3.19 -22.04 1.49 -41 1 C-41 0.01 -41 -0.98 -41 -2 C-30.56 -7.22 -10.82 -2.91 0 0 Z " fill="#BD7A3F" transform="translate(617,352)" />
<path d="M0 0 C4.41 0.57 7.24 2.21 10.94 4.62 C24.39 13.16 38.67 19.45 54.21 23.13 C56 24 56 24 56.76 26.09 C56.84 26.72 56.92 27.35 57 28 C52.28 29.51 48.64 28.32 44.12 26.75 C43.35 26.49 42.58 26.22 41.79 25.95 C9.52 14.45 9.52 14.45 0 4 C0 2.68 0 1.36 0 0 Z " fill="#BF7B3F" transform="translate(335,421)" />
<path d="M0 0 C0.16 0.66 0.16 0.66 1 4 C0.71 4.01 0.71 4.01 -0.75 4.04 C-13.43 4.4 -25.59 5.32 -38 8 C-39.04 8.22 -40.08 8.43 -41.15 8.65 C-47.84 10.17 -54.14 12.44 -60.48 15.02 C-64.13 16.46 -67.07 17.34 -71 17 C-70.72 15.11 -70.72 15.11 -70 13 C-67.29 11.61 -64.78 10.53 -61.94 9.5 C-61.13 9.2 -60.32 8.9 -59.48 8.59 C-39.84 1.45 -20.78 -0.37 0 0 Z " fill="#C07D42" transform="translate(330,345)" />
<path d="M0 0 C0.61 0.19 0.61 0.19 3.72 1.16 C6.5 2.5 6.5 2.5 7.41 4.66 C7.44 5.26 7.47 5.87 7.5 6.5 C1.98 5.95 -2.98 4.85 -8.25 3.12 C-15.8 0.75 -23.31 -0.56 -31.16 -1.51 C-33.28 -1.78 -35.39 -2.13 -37.5 -2.5 C-37.83 -3.16 -38.16 -3.82 -38.5 -4.5 C-27.57 -10.53 -11.15 -3.48 0 0 Z " fill="#BF7B40" transform="translate(333.5,329.5)" />
<path d="M0 0 C4.89 -0.05 9.78 -0.09 14.67 -0.11 C16.32 -0.12 17.98 -0.13 19.64 -0.15 C29.65 -0.25 39.14 0.04 49 2 C49 3.32 49 4.64 49 6 C47.06 5.86 45.12 5.71 43.19 5.56 C42.11 5.48 41.03 5.4 39.92 5.32 C37.8 5.15 35.69 4.97 33.58 4.76 C26.16 4.04 18.76 3.69 11.31 3.44 C10.12 3.39 8.93 3.35 7.71 3.31 C4.8 3.2 1.9 3.1 -1 3 C-0.67 2.01 -0.34 1.02 0 0 Z " fill="#472219" transform="translate(617,326)" />
<path d="M0 0 C0 1.32 0 2.64 0 4 C-0.64 4.15 -0.64 4.15 -3.88 4.92 C-14.18 7.4 -24.13 10.16 -34 14 C-33.43 10.69 -32.55 9.17 -30 7 C-27.24 6.04 -24.56 5.2 -21.75 4.44 C-21.38 4.33 -21.38 4.33 -19.51 3.81 C-18.05 3.39 -16.58 2.99 -15.11 2.58 C-13.12 2.03 -11.14 1.45 -9.17 0.86 C-5.97 -0.01 -3.3 -0.16 0 0 Z " fill="#BF7C40" transform="translate(340,361)" />

<path d="M0 0 C0.82 0.16 0.82 0.16 5 1 C5 20.14 5 39.28 5 59 C4.67 59 4.34 59 4 59 C3.67 48.77 3.34 38.54 3 28 C2.01 27.67 1.02 27.34 0 27 C0 18.09 0 9.18 0 0 Z " fill="#C07E44" transform="translate(466,663)" />
<path d="M0 0 C5.1 0.52 8.68 3.04 12.88 5.75 C13.56 6.18 14.24 6.61 14.94 7.05 C19.4 9.89 23.72 12.89 28 16 C27.67 17.32 27.34 18.64 27 20 C23.41 18.7 20.57 17.14 17.5 14.88 C11.52 10.59 5.29 6.8 -1 3 C-0.67 2.01 -0.34 1.02 0 0 Z " fill="#BF7B40" transform="translate(615,381)" />
<path d="M0 0 C1.02 0.01 2.04 0.03 3.08 0.04 C5.58 0.08 8.07 0.13 10.56 0.19 C10.89 1.51 11.22 2.83 11.56 4.19 C1.99 4.52 -7.58 4.85 -17.44 5.19 C-17.77 4.53 -18.1 3.87 -18.44 3.19 C-12.23 -0.13 -6.95 -0.18 0 0 Z " fill="#BE7A3F" transform="translate(319.4375,344.8125)" />
<path d="M0 0 C1.08 0 2.15 0.01 3.26 0.01 C4.39 0.02 5.52 0.03 6.68 0.04 C7.82 0.04 8.95 0.04 10.12 0.05 C12.93 0.06 15.74 0.08 18.55 0.1 C18.55 1.09 18.55 2.08 18.55 3.1 C12.67 3.95 7 4.22 1.05 4.16 C0.23 4.16 -0.59 4.15 -1.44 4.15 C-3.44 4.13 -5.44 4.12 -7.45 4.1 C-7.45 3.11 -7.45 2.12 -7.45 1.1 C-4.84 -0.21 -2.92 -0.02 0 0 Z " fill="#BF7C41" transform="translate(583.4453125,348.90234375)" />
<path d="M0 0 C6.61 1.82 12.81 4.05 19 7 C19 7.99 19 8.98 19 10 C13.73 9.4 9.06 8.19 4.06 6.44 C3.38 6.2 2.69 5.97 1.99 5.73 C0.32 5.16 -1.34 4.58 -3 4 C-2.34 3.67 -1.68 3.34 -1 3 C-0.67 2.01 -0.34 1.02 0 0 Z " fill="#C07D42" transform="translate(630,356)" />
<path d="M0 0 C0 0.66 0 1.32 0 2 C-0.33 2.33 -0.66 2.66 -1 3 C-0.01 3.33 0.98 3.66 2 4 C-0.43 5.7 -2.87 7.39 -5.31 9.06 C-5.66 9.31 -5.66 9.31 -7.4 10.53 C-8.07 10.99 -8.74 11.44 -9.43 11.91 C-10.04 12.33 -10.65 12.76 -11.28 13.2 C-13 14 -13 14 -16 13 C-16 12.01 -16 11.02 -16 10 C-13.74 8.13 -11.53 6.46 -9.12 4.81 C-8.8 4.58 -8.8 4.58 -7.15 3.41 C-2.28 0 -2.28 0 0 0 Z " fill="#BE7A3F" transform="translate(281,383)" />
<path d="M0 0 C0.52 0.37 1.04 0.75 1.58 1.13 C1.58 1.79 1.58 2.45 1.58 3.13 C-0.48 3.98 -2.54 4.81 -4.61 5.63 C-5.75 6.1 -6.9 6.56 -8.09 7.04 C-11.14 8.04 -13.25 8.37 -16.42 8.13 C-16.31 6.31 -16.31 6.31 -15.42 4.13 C-12.62 2.58 -12.62 2.58 -9.11 1.26 C-7.95 0.81 -6.8 0.36 -5.62 -0.11 C-2.42 -0.87 -2.42 -0.87 0 0 Z " fill="#BE7A3F" transform="translate(275.41796875,353.8671875)" />
<path d="M0 0 C3.96 -0.06 7.92 -0.09 11.88 -0.12 C13 -0.14 14.13 -0.16 15.29 -0.18 C16.37 -0.18 17.45 -0.19 18.55 -0.2 C19.55 -0.21 20.54 -0.22 21.57 -0.23 C24 0 24 0 26 2 C25 3 25 3 22.59 3.11 C21.55 3.11 20.51 3.1 19.43 3.1 C18.31 3.09 17.18 3.09 16.03 3.09 C14.84 3.08 13.66 3.07 12.44 3.06 C11.25 3.06 10.06 3.05 8.84 3.05 C5.89 3.04 2.95 3.02 0 3 C0 2.01 0 1.02 0 0 Z " fill="#BA783E" transform="translate(264,322)" />

<path d="M0 0 C4.62 0 9.24 0 14 0 C8.91 3.82 6.33 4.12 0.14 4.1 C-0.19 4.1 -0.19 4.1 -1.86 4.09 C-3.97 4.09 -6.08 4.08 -8.19 4.06 C-9.62 4.06 -11.05 4.05 -12.48 4.05 C-15.99 4.04 -19.49 4.02 -23 4 C-23 3.67 -23 3.34 -23 3 C-15.08 2.67 -7.16 2.34 1 2 C0.67 1.34 0.34 0.68 0 0 Z " fill="#C3844D" transform="translate(288,322)" />
<path d="M0 0 C2.31 0 4.62 0 7 0 C4.55 2.45 2.52 3.03 -0.75 4.12 C-1.78 4.48 -2.8 4.83 -3.86 5.2 C-7.04 6.01 -9.73 6.15 -13 6 C-12.67 4.35 -12.34 2.7 -12 1 C-9.67 0.96 -7.33 0.96 -5 1 C-4.67 1.33 -4.34 1.66 -4 2 C-2.68 2 -1.36 2 0 2 C0 1.34 0 0.68 0 0 Z " fill="#BA783E" transform="translate(528,443)" />
<path d="M0 0 C0 0.99 0 1.98 0 3 C-1.41 3.53 -2.83 4.05 -4.25 4.56 C-5.04 4.85 -5.83 5.14 -6.64 5.44 C-9.19 6.05 -10.55 5.85 -13 5 C-13 4.01 -13 3.02 -13 2 C-8.5 0.24 -4.82 -0.19 0 0 Z " fill="#BF7B3F" transform="translate(289,350)" />
<path d="M0 0 C0.45 0.05 0.45 0.05 2.73 0.31 C3.42 0.39 4.1 0.48 4.81 0.56 C4.81 1.88 4.81 3.2 4.81 4.56 C0.52 4.23 -3.77 3.9 -8.19 3.56 C-8.19 2.57 -8.19 1.58 -8.19 0.56 C-4.99 -0.5 -3.3 -0.39 0 0 Z " fill="#C18047" transform="translate(661.1875,327.4375)" />
<path d="M0 0 C5.94 0 11.88 0 18 0 C18.33 0.66 18.66 1.32 19 2 C14.48 2.88 10.22 3.11 5.62 3.06 C5 3.06 5 3.06 1.85 3.04 C1.38 3.03 1.38 3.03 -1 3 C-0.67 2.01 -0.34 1.02 0 0 Z " fill="#BD7A3F" transform="translate(617,326)" />
<path d="M0 0 C3.87 1.14 7 2.23 10 5 C10 5.66 10 6.32 10 7 C6.36 8.21 5.67 7.67 2.31 6.06 C1.5 5.68 0.7 5.3 -0.14 4.91 C-0.44 4.76 -0.44 4.76 -2 4 C-1.34 2.68 -0.68 1.36 0 0 Z " fill="#BF7C41" transform="translate(606,376)" />

<path d="M0 0 C0 0.99 0 1.98 0 3 C-1.29 3.53 -2.58 4.05 -3.88 4.56 C-4.23 4.71 -4.23 4.71 -6.05 5.44 C-8 6 -8 6 -10 5 C-9.01 4.67 -8.02 4.34 -7 4 C-7 3.01 -7 2.02 -7 1 C-3.38 -1.12 -3.38 -1.12 0 0 Z " fill="#BA783E" transform="translate(288,381)" />
<path d="M0 0 C2.97 0.33 5.94 0.66 9 1 C8.67 1.5 8.67 1.5 7 4 C4.18 4.29 4.18 4.29 0.88 4.19 C0.33 4.17 0.33 4.17 -2.45 4.11 C-2.87 4.09 -2.87 4.09 -5 4 C-5 3.67 -5 3.34 -5 3 C-3.35 3 -1.7 3 0 3 C0 2.01 0 1.02 0 0 Z " fill="#BE7A3F" transform="translate(647,326)" />
<path d="M0 0 C0.66 0 1.32 0 2 0 C1.67 5.94 1.34 11.88 1 18 C0.34 18 -0.32 18 -1 18 C-2.55 11.42 -2.03 6.34 0 0 Z " fill="#DCB588" transform="translate(605,244)" />
<path d="M0 0 C0.82 0.33 0.82 0.33 5 2 C4.67 3.32 4.34 4.64 4 6 C1.36 5.67 -1.28 5.34 -4 5 C-2.68 4.67 -1.36 4.34 0 4 C0 2.68 0 1.36 0 0 Z " fill="#C17E45" transform="translate(387,444)" />
<path d="M0 0 C0 3.76 -1.42 4.73 -3.82 7.44 C-5.39 9.52 -5.77 11.43 -6 14 C-6.66 13.67 -7.32 13.34 -8 13 C-7.47 8.47 -5.73 5.61 -3 2 C-2.01 1.34 -1.02 0.68 0 0 Z " fill="#322119" transform="translate(519,293)" />
<path d="M0 0 C0 0.66 0 1.32 0 2 C-0.33 2.33 -0.66 2.66 -1 3 C-0.01 3.33 0.98 3.66 2 4 C-0.31 5.32 -2.62 6.64 -5 8 C-5.17 7.18 -5.17 7.18 -6 3 C-2.25 0 -2.25 0 0 0 Z " fill="#C07E44" transform="translate(281,383)" />

<path d="M0 0 C3.3 0 6.6 0 10 0 C10 0.66 10 1.32 10 2 C11.32 2.66 12.64 3.32 14 4 C11.03 4 8.06 4 5 4 C5.33 3.01 5.66 2.02 6 1 C4.02 1 2.04 1 0 1 C0 0.67 0 0.34 0 0 Z " fill="#C07D43" transform="translate(607,326)" />
<path d="M0 0 C0.3 0.18 0.3 0.18 1.81 1.06 C1.81 1.72 1.81 2.38 1.81 3.06 C0.16 3.39 -1.49 3.72 -3.19 4.06 C-3.19 3.4 -3.19 2.74 -3.19 2.06 C-4.84 2.06 -6.49 2.06 -8.19 2.06 C-3.1 -1.33 -3.1 -1.33 0 0 Z " fill="#C17E45" transform="translate(275.1875,353.9375)" />
<path d="M0 0 C1.13 0.02 2.27 0.04 3.44 0.06 C3.44 1.05 3.44 2.04 3.44 3.06 C1.13 3.39 -1.18 3.72 -3.56 4.06 C-3.89 3.07 -4.22 2.08 -4.56 1.06 C-3.56 0.06 -3.56 0.06 0 0 Z " fill="#BA783E" transform="translate(285.5625,349.9375)" />
<path d="M0 0 C0.66 0.33 1.32 0.66 2 1 C0.51 4.8 -1.76 6.61 -5 9 C-5.66 8.67 -6.32 8.34 -7 8 C-4.69 5.36 -2.38 2.72 0 0 Z " fill="#C07D42" transform="translate(339,779)" />
<path d="M0 0 C0.66 0.17 0.66 0.17 4 1 C4.33 2.32 4.66 3.64 5 5 C3.02 5 1.04 5 -1 5 C-0.67 3.35 -0.34 1.7 0 0 Z " fill="#BF7B40" transform="translate(516,444)" />
<path d="M0 0 C0.66 0.99 1.32 1.98 2 3 C1.67 3.66 1.34 4.32 1 5 C3.97 5 6.94 5 10 5 C10 5.33 10 5.66 10 6 C8.4 6.05 6.79 6.09 5.19 6.12 C4.29 6.15 3.4 6.17 2.48 6.2 C0 6 0 6 -3 4 C-2.01 2.68 -1.02 1.36 0 0 Z " fill="#C07C41" transform="translate(471,378)" />
<path d="M0 0 C0 0.99 0 1.98 0 3 C0.66 3.33 1.32 3.66 2 4 C-0.31 4.33 -2.62 4.66 -5 5 C-4.62 3.06 -4.62 3.06 -4 1 C-2 0 -2 0 0 0 Z " fill="#C07E43" transform="translate(264,357)" />
<path d="M0 0 C0.33 1.32 0.66 2.64 1 4 C0.34 4.33 0.34 4.33 -3 6 C-3.99 5.01 -4.98 4.02 -6 3 C-2.25 0 -2.25 0 0 0 Z " fill="#C07D43" transform="translate(292,377)" />

<path d="M0 0 C0.99 0.17 0.99 0.17 6 1 C5.67 1.99 5.34 2.98 5 4 C3.35 4 1.7 4 0 4 C0 2.68 0 1.36 0 0 Z " fill="#BA783E" transform="translate(624,355)" />
<path d="M0 0 C0.66 0.33 0.66 0.33 4 2 C3.67 4.31 3.34 6.62 3 9 C2.34 9 1.68 9 1 9 C0.67 6.03 0.34 3.06 0 0 Z " fill="#D1CBC1" transform="translate(444,349)" />
<path d="M0 0 C-0.66 0 -1.32 0 -2 0 C-2 0.66 -2 1.32 -2 2 C-4.71 3.35 -7.01 3.07 -10 3 C-9.01 2.67 -8.02 2.34 -7 2 C-7 1.34 -7 0.68 -7 0 C-3.87 -1.04 -3.01 -0.93 0 0 Z " fill="#C07C42" transform="translate(614,352)" />
<path d="M0 0 C2.97 0 5.94 0 9 0 C9.33 1.32 9.66 2.64 10 4 C8.35 4 6.7 4 5 4 C5.33 3.34 5.66 2.68 6 2 C5.01 1.83 5.01 1.83 0 1 C0 0.67 0 0.34 0 0 Z " fill="#C07D43" transform="translate(255,322)" />
<path d="M0 0 C4.62 0 9.24 0 14 0 C14 0.33 14 0.66 14 1 C13.24 1.05 12.48 1.1 11.7 1.15 C10.71 1.22 9.71 1.3 8.69 1.38 C8.19 1.41 8.19 1.41 5.7 1.59 C3 2 3 2 0 4 C0 2.68 0 1.36 0 0 Z " fill="#DAB182" transform="translate(457,187)" />
<path d="M0 0 C0.66 0.33 1.32 0.66 2 1 C1.67 1.99 1.34 2.98 1 4 C-1.31 4.33 -3.62 4.66 -6 5 C-2.25 1.12 -2.25 1.12 0 0 Z " fill="#DCB487" transform="translate(441,876)" />
<path d="M0 0 C0.66 0.66 1.32 1.32 2 2 C1.62 5.62 1.62 5.62 1 9 C0.67 9 0.34 9 0 9 C-0.88 2.85 -0.88 2.85 -1 1 C-0.67 0.67 -0.34 0.34 0 0 Z " fill="#DDB78C" transform="translate(321,648)" />


<path d="M0 0 C0.99 0.33 1.98 0.66 3 1 C3 1.66 3 2.32 3 3 C1.02 3.33 -0.96 3.66 -3 4 C-2.67 3.01 -2.34 2.02 -2 1 C-1.34 0.67 -0.68 0.34 0 0 Z " fill="#BF7B3F" transform="translate(294,348)" />
<path d="M0 0 C0.99 0.33 1.98 0.66 3 1 C1.38 2.71 -0.29 4.37 -2 6 C-2.66 6 -3.32 6 -4 6 C-2.85 3.53 -1.95 1.95 0 0 Z " fill="#E2DED8" transform="translate(461,345)" />
<path d="M0 0 C-1.39 3.37 -2.98 4.99 -6 7 C-5.37 3.36 -4.15 0 0 0 Z " fill="#2F2016" transform="translate(381,289)" />
</svg>