<svg viewBox="300 375 399.9999999999998 262.49999999999994" fill="none" xmlns="http://www.w3.org/2000/svg" xmlns:xlink="http://www.w3.org/1999/xlink" xmlns:blush="http://design.blush" overflow="visible" width="399.9999999999998px" height="262.49999999999994px"><g id="Master/Stickers/Dog" blush:has-customizable-colors="true" blush:viewBox="305 375 394.9999999999998 265.0000000000002" blush:i="0"><g id="Dog" blush:i="0.0"><path id="Fill 1" fill-rule="evenodd" clip-rule="evenodd" d="M643.385 380.005C619.238 373.062 569.313 369.828 548.174 450.777C548.174 450.777 480.352 452.835 442.136 459.455C397.533 467.18 397.095 487.6 379.021 497.969C336.635 522.284 305.033 525.904 305.055 530.888C305.127 546.357 368.766 525.379 376.55 522.479C376.55 522.479 365.644 556.208 384.67 631.347C385.35 634.034 387.898 635.825 390.655 635.541L398.587 634.722C401.504 634.419 403.688 631.911 403.586 628.98L402.112 586.768C402.037 584.636 403.769 582.88 405.901 582.924L406.027 582.926C407.908 582.965 409.463 584.403 409.647 586.276L413.864 629.015C414.152 631.943 416.666 634.142 419.606 634.04L425.726 633.826C428.718 633.722 431.094 631.273 431.107 628.279L431.403 561.008C431.403 561.008 525.906 580.147 563.759 577.6L571.204 629.797C571.585 632.479 573.839 634.497 576.546 634.584L579.433 634.675C582.141 634.761 584.519 632.888 585.069 630.235L594.662 584.02C595.027 582.264 596.596 581.019 598.389 581.061L598.944 581.075C600.822 581.12 602.371 582.559 602.554 584.428L606.856 628.506C607.121 631.215 609.302 633.336 612.017 633.526L617.675 633.923C620.594 634.128 623.175 632.041 623.586 629.144L644.135 484.223C644.135 484.223 700.052 438.34 670.809 398.704C664.068 389.568 654.296 383.143 643.385 380.005" fill="#9B7368" blush:i="0.0.0"/><path id="Fill 4" fill-rule="evenodd" clip-rule="evenodd" d="M507.727 528.329C508.386 519.443 518.142 514.307 525.968 518.57C536.444 524.279 549.209 534.615 532.242 545.523C515.12 556.529 506.761 541.374 507.727 528.329" fill="#F7D3BB" blush:i="0.0.1"/><path id="Fill 6" fill-rule="evenodd" clip-rule="evenodd" d="M615.713 398.4C616.78 402.448 619.776 405.168 622.406 404.476C625.035 403.782 626.302 399.938 625.235 395.89C624.168 391.842 621.17 389.121 618.542 389.815C615.912 390.507 614.645 394.351 615.713 398.4" fill="#010101" blush:i="0.0.2"/><path id="Fill 8" fill-rule="evenodd" clip-rule="evenodd" d="M642.112 415.481C642.46 414.781 643.311 414.497 644.013 414.846C644.062 414.871 649.041 417.311 653.622 415.558C656.265 414.548 658.296 412.293 659.659 408.855L659.894 408.259L652.774 400.903C651.91 400.01 652.384 398.513 653.605 398.282L662.066 396.676C663.197 396.463 664.164 397.503 663.864 398.616L661.436 407.667L662.091 408.502C662.159 408.59 669.048 417.194 678.171 413.309C678.886 413.005 679.724 413.338 680.03 414.059C680.337 414.78 680 415.612 679.281 415.918C670.98 419.447 664.279 414.587 661.393 411.868C659.752 414.989 657.486 417.116 654.634 418.207C653.249 418.737 651.851 418.969 650.527 419.015C646.378 419.16 642.936 417.475 642.746 417.382C642.047 417.032 641.762 416.181 642.112 415.481" fill="#010101" blush:i="0.0.3"/><path id="Fill 10" fill-rule="evenodd" clip-rule="evenodd" d="M595.688 473.097C584.73 489.131 566.161 435.734 560.398 417.9C567.296 404.597 575.321 395.322 583.747 388.995C588.329 401.539 607.249 456.179 595.688 473.097" fill="#6D4038" blush:i="0.0.4"/><path id="Fill 12" fill-rule="evenodd" clip-rule="evenodd" d="M478.788 498.169C456.567 535.781 415.311 487.494 418.048 466.334C424.315 463.573 432.107 461.193 442.135 459.456C451.302 457.868 462.175 456.542 473.403 455.445C483.941 462.081 492.631 474.737 478.788 498.169" fill="#F7D3BB" blush:i="0.0.5"/><path id="Fill 14" fill-rule="evenodd" clip-rule="evenodd" d="M677.104 437.79C684.593 445.846 702.762 468.477 693.295 489.798C684.384 509.868 671.805 476.926 666.213 459.713C670.684 453.185 674.737 445.723 677.104 437.79" fill="#6D4038" blush:i="0.0.6"/></g></g></svg>